<svg width="445" height="445" viewBox="0 0 445 445" fill="none" xmlns="http://www.w3.org/2000/svg">
<circle cx="222.5" cy="222.5" r="222.5" fill="#222327"/>
<circle cx="222.5" cy="222.5" r="181.58" fill="#292A2F"/>
<circle cx="222.661" cy="222.5" r="140.661" fill="#121212"/>
<path d="M209.217 159.676C203.765 150.464 192.979 150.035 192.979 150.035C192.979 150.035 182.469 148.691 175.727 162.72C169.443 175.797 160.77 188.422 174.331 191.483L176.78 183.859L178.297 192.051C180.228 192.19 182.165 192.223 184.1 192.15C198.622 191.681 212.453 192.287 212.007 187.076C211.415 180.148 214.462 168.539 209.217 159.676Z" fill="#4D3A3C"/>
<path d="M186.839 178.954C188.717 183.109 189.902 188.062 190.609 193.564L205.691 192.622C202.223 187.708 201.072 182.069 202.392 175.655L186.839 178.954Z" fill="#F5C0B0"/>
<path opacity="0.2" d="M186.839 178.954C188.717 183.109 189.902 188.062 190.609 193.564L205.691 192.622C202.223 187.708 201.072 182.069 202.392 175.655L186.839 178.954Z" fill="#F5C0B0"/>
<path d="M116.866 258.069C116.866 258.069 109.061 262.25 113.022 265.82C116.983 269.39 122.215 261.095 122.215 261.095L116.866 258.069Z" fill="#F5C0B0"/>
<path d="M212.29 245.877L212.168 251.589L211.908 263.931V263.933L211.832 267.507H161.917L163.946 256.242L163.948 256.234L165.764 246.152L166.575 241.637V241.635L207.578 235.979L212.29 245.877Z" fill="#121212"/>
<path d="M212.29 245.878L212.167 251.591C197.661 251.218 175.175 247.716 165.764 246.152L166.574 241.637L207.577 235.981L212.29 245.878Z" fill="#F5C0B0"/>
<path d="M194.145 182.962C200.652 182.962 205.927 177.687 205.927 171.18C205.927 164.673 200.652 159.397 194.145 159.397C187.637 159.397 182.362 164.673 182.362 171.18C182.362 177.687 187.637 182.962 194.145 182.962Z" fill="#F5C0B0"/>
<path d="M216.766 252.241C216.766 252.241 218.18 264.966 209.697 264.023L208.283 251.298L200.742 243.757L179.534 243.286L163.981 257.896C163.981 257.896 163.51 242.815 165.395 241.401C167.28 239.987 171.522 236.688 171.522 236.688V234.332L158.797 208.41C158.797 208.41 166.338 192.857 172.464 192.386L180.476 191.915C180.476 191.915 183.304 190.501 183.304 190.03C183.304 189.558 182.833 185.788 185.189 186.731C185.189 186.731 185.402 181.895 187.885 183.37C187.885 183.37 195.704 189.497 203.641 183.639C203.641 183.639 207.34 182.96 206.869 184.845C206.398 186.731 206.869 188.144 207.812 188.144C208.754 188.144 212.996 189.558 212.996 190.501C212.996 190.704 213.302 192.655 213.783 195.591V195.596C215.531 206.299 219.594 230.09 219.594 230.09C219.594 230.09 223.836 236.217 216.766 252.241Z" fill="#00F4B9"/>
<path d="M162.098 206.052L158.799 208.409L128.636 247.055L112.612 259.78C112.612 259.78 121.567 258.366 119.682 265.907L174.823 234.33L162.098 206.052Z" fill="#00F4B9"/>
<path d="M213.783 195.591V195.595C213.156 199.281 192.73 198.513 189.902 198.513C187.075 198.513 184.718 198.041 181.89 196.156C179.063 194.271 180.477 191.914 180.477 191.914C180.477 191.914 182.884 190.081 182.884 189.609C182.884 189.138 182.413 185.368 184.769 186.31C184.769 186.31 184.982 181.475 187.465 182.95C187.465 182.95 195.704 189.497 203.641 183.638C203.641 183.638 207.34 182.96 206.869 184.845C206.398 186.73 206.869 188.144 207.812 188.144C208.754 188.144 212.996 189.558 212.996 190.501C212.996 190.703 213.302 192.654 213.783 195.591Z" fill="#08A982"/>
<path d="M211.349 178.013C211.349 178.013 207.579 170.001 203.809 173.771C200.038 177.542 208.05 183.197 208.05 183.197L211.349 178.013Z" fill="#F5C0B0"/>
<path d="M211.348 176.126C211.348 176.126 205.526 183.484 203.724 184.047C203.724 184.047 208.991 204.875 215.589 210.531L219.36 229.854C219.36 229.854 235.384 223.256 231.613 212.416C231.576 212.307 231.538 212.2 231.501 212.093C228.353 203.065 224.008 194.501 218.583 186.629L211.348 176.126Z" fill="#00F4B9"/>
<path opacity="0.2" d="M208.237 197.948L219.832 229.853L215.59 210.53L208.237 197.948Z" fill="black"/>
<path opacity="0.2" d="M208.237 197.948L219.832 229.853L215.59 210.53L208.237 197.948Z" fill="black"/>
<path opacity="0.2" d="M208.237 197.948L219.832 229.853L215.59 210.53L208.237 197.948Z" fill="black"/>
<path opacity="0.2" d="M208.237 197.948L219.832 229.853L215.59 210.53L208.237 197.948Z" fill="black"/>
<path opacity="0.2" d="M208.237 197.948L219.832 229.853L215.59 210.53L208.237 197.948Z" fill="black"/>
<path d="M206.807 158.788L196.151 153.207L181.436 155.49L178.392 168.936L185.97 168.645L188.088 163.705V168.563L191.584 168.429L193.614 160.564L194.883 168.936L207.314 168.683L206.807 158.788Z" fill="#4D3A3C"/>
<path d="M300.683 234.999L306.14 254.466C306.14 254.466 305.015 271.71 310.263 268.336C315.634 264.884 313.637 250.343 313.637 250.343L310.491 232.878L300.683 234.999Z" fill="#FFC7B6"/>
<path d="M303.601 180.386L308.108 184.893V206.366C308.108 206.366 310.759 210.343 310.228 211.403C309.698 212.464 309.168 212.464 309.698 213.259C310.228 214.054 310.759 214.585 310.228 215.115C309.698 215.645 309.698 216.97 310.228 217.501C310.759 218.031 311.819 218.826 311.024 219.622C310.228 220.417 309.168 219.887 310.228 222.803C311.289 225.719 313.145 226.514 312.614 227.575C312.084 228.635 312.084 231.286 312.084 231.286L300.685 232.877L298.299 202.92L303.601 180.386Z" fill="#262F51"/>
<path d="M312.614 231.021L299.358 231.551L299.889 237.118L311.553 234.998L312.614 231.021Z" fill="#534E8A"/>
<path d="M276.164 152.684L274.573 168.59L290.745 170.976L291.938 161.83L293.131 152.684H276.164Z" fill="#FFC7B6"/>
<path opacity="0.1" d="M276.164 152.597L274.573 168.503L290.745 170.889L291.938 161.743L293.131 152.597H276.164Z" fill="black"/>
<path d="M241.036 228.369L250.05 247.722C250.05 247.722 251.64 256.735 254.026 257C256.412 257.266 258.798 247.722 258.798 247.722L255.617 242.685L251.905 228.369H241.036Z" fill="#FFC7B6"/>
<path d="M302.736 267.857H251.778C252.182 261.471 252.436 257.533 252.436 257.533L253.113 256.468L256.394 251.312L258.737 247.63L259.554 246.345L259.858 245.869L263.067 245.283L296.177 239.242C296.725 241.694 297.5 244.09 298.492 246.398C298.718 246.912 298.96 247.425 299.22 247.933C300.052 249.558 301.068 251.097 302.276 252.231C302.551 252.489 302.75 253.177 302.879 254.235C303.197 256.826 303.106 261.645 302.736 267.857Z" fill="#121212"/>
<path d="M285.042 157.853C292.07 157.853 297.767 152.156 297.767 145.128C297.767 138.1 292.07 132.403 285.042 132.403C278.015 132.403 272.317 138.1 272.317 145.128C272.317 152.156 278.015 157.853 285.042 157.853Z" fill="#FFC7B6"/>
<path d="M256.677 171.107L254.821 170.046C254.821 170.046 246.603 175.613 243.952 188.073C241.301 200.533 239.445 203.714 239.445 203.714C239.445 203.714 236.794 204.244 238.65 206.1C240.506 207.956 240.506 207.691 238.915 208.751C237.324 209.812 236.264 207.691 237.324 209.812C238.385 211.932 239.71 211.402 238.65 212.728C237.589 214.053 235.734 214.053 236.794 215.114C237.855 216.174 235.734 218.56 237.059 219.62C238.385 220.681 238.915 220.946 238.915 222.802C238.907 223.885 239.086 224.961 239.445 225.983H253.231C253.231 225.983 250.58 220.946 251.375 219.886C252.17 218.825 252.435 217.765 251.905 217.235C251.375 216.704 249.784 217.765 251.375 216.439C252.965 215.114 253.496 215.909 252.965 214.318C252.435 212.728 251.375 213.523 252.435 212.728C253.496 211.932 254.291 212.198 253.761 211.402C253.231 210.607 252.17 210.607 253.231 210.077C254.291 209.547 255.086 210.077 254.821 208.751C254.556 207.426 254.291 207.956 254.821 207.426C255.351 206.895 260.919 188.868 260.919 188.338C260.919 187.808 256.677 171.107 256.677 171.107Z" fill="#262F51"/>
<path d="M254.026 224.925L237.324 225.986L241.566 229.962L253.23 230.227L254.026 224.925Z" fill="#534E8A"/>
<path d="M258.799 244.806L255.353 251.168C255.353 251.168 265.692 252.494 269.403 253.819C273.114 255.145 282.658 257 282.658 257L285.044 247.722L258.799 244.806Z" fill="#534E8A"/>
<path d="M289.02 247.723L291.936 256.471L303.6 254.085L302.275 245.867L289.02 247.723Z" fill="#534E8A"/>
<path d="M293.791 162.095C293.791 162.095 292.996 161.565 291.14 162.625C289.285 163.685 283.187 164.216 280.271 161.034C277.355 157.853 275.234 155.202 274.439 155.732C273.644 156.263 273.113 162.36 273.113 162.36L270.462 164.481L254.821 170.048L256.147 205.837L258.533 214.055C258.533 214.055 256.677 220.418 259.063 224.129C261.449 227.84 257.737 229.166 257.737 229.166C257.737 229.166 256.942 230.226 257.472 232.877C258.003 235.528 256.942 245.337 256.942 245.337C256.942 245.337 279.476 255.411 303.07 246.663L300.419 236.589L299.094 214.055C299.094 214.055 300.419 210.344 300.154 208.753C299.889 207.162 308.107 184.894 308.107 184.894C308.107 184.894 306.782 173.759 299.889 171.373C292.996 168.987 291.936 166.602 291.936 166.602C291.936 166.602 295.117 163.155 293.791 162.095Z" fill="#262F51"/>
<path d="M272.23 146.758C272.23 146.758 270.909 144.776 271.417 142.641C271.721 141.429 271.841 140.179 271.773 138.931C271.773 138.931 272.84 135.475 273.908 133.544C274.975 131.613 274.467 130.799 277.821 130.189C281.175 129.58 279.803 125.209 288.646 129.935C288.945 130.352 289.36 130.671 289.839 130.852C290.319 131.033 290.841 131.067 291.34 130.952C293.17 130.596 293.83 133.137 293.83 133.137C293.83 133.137 295.05 132.426 295.508 133.442C295.965 134.459 299.227 132.832 299.227 139.693C299.227 146.555 295.515 152.683 295.515 152.683C295.515 152.683 295.787 141.142 289.739 139.973C283.691 138.804 277.186 135.399 275.61 139.77C274.035 144.141 272.23 146.758 272.23 146.758Z" fill="#4D3A3C"/>
<path d="M295.648 149.503C296.307 149.503 296.841 148.791 296.841 147.913C296.841 147.034 296.307 146.322 295.648 146.322C294.989 146.322 294.455 147.034 294.455 147.913C294.455 148.791 294.989 149.503 295.648 149.503Z" fill="#FFC7B6"/>
<path d="M142.665 298H140.969V292.085H134.518V298H132.83V285.203H134.518V290.705H140.969V285.203H142.665V298ZM154.879 297.06C154.246 297.804 153.317 298.176 152.093 298.176C151.079 298.176 150.305 297.883 149.772 297.297C149.245 296.705 148.978 295.832 148.972 294.678V288.49H150.598V294.634C150.598 296.075 151.184 296.796 152.356 296.796C153.598 296.796 154.425 296.333 154.835 295.407V288.49H156.461V298H154.914L154.879 297.06ZM164.069 288.49L164.112 289.545C164.81 288.725 165.75 288.314 166.934 288.314C168.264 288.314 169.169 288.824 169.65 289.844C169.966 289.387 170.376 289.018 170.88 288.736C171.39 288.455 171.99 288.314 172.682 288.314C174.768 288.314 175.828 289.419 175.863 291.628V298H174.237V291.725C174.237 291.045 174.082 290.538 173.772 290.204C173.461 289.864 172.94 289.694 172.207 289.694C171.604 289.694 171.103 289.876 170.704 290.239C170.306 290.597 170.074 291.08 170.01 291.689V298H168.375V291.769C168.375 290.386 167.698 289.694 166.345 289.694C165.279 289.694 164.549 290.148 164.156 291.057V298H162.53V288.49H164.069ZM187.796 298C187.702 297.812 187.626 297.479 187.567 296.998C186.811 297.783 185.909 298.176 184.86 298.176C183.922 298.176 183.152 297.912 182.548 297.385C181.951 296.852 181.652 296.178 181.652 295.363C181.652 294.373 182.027 293.605 182.777 293.061C183.533 292.51 184.593 292.234 185.959 292.234H187.541V291.487C187.541 290.919 187.371 290.468 187.031 290.134C186.691 289.794 186.19 289.624 185.528 289.624C184.948 289.624 184.462 289.771 184.069 290.063C183.676 290.356 183.48 290.711 183.48 291.127H181.845C181.845 290.652 182.012 290.195 182.346 289.756C182.686 289.311 183.143 288.959 183.717 288.701C184.297 288.443 184.933 288.314 185.625 288.314C186.72 288.314 187.579 288.59 188.2 289.141C188.821 289.686 189.143 290.438 189.167 291.399V295.776C189.167 296.649 189.278 297.344 189.501 297.859V298H187.796ZM185.097 296.761C185.607 296.761 186.09 296.629 186.547 296.365C187.004 296.102 187.336 295.759 187.541 295.337V293.386H186.266C184.274 293.386 183.278 293.969 183.278 295.135C183.278 295.645 183.448 296.043 183.788 296.33C184.128 296.617 184.564 296.761 185.097 296.761ZM196.854 288.49L196.906 289.686C197.633 288.771 198.582 288.314 199.754 288.314C201.764 288.314 202.777 289.448 202.795 291.716V298H201.169V291.707C201.163 291.021 201.005 290.515 200.694 290.187C200.39 289.858 199.912 289.694 199.262 289.694C198.734 289.694 198.271 289.835 197.873 290.116C197.475 290.397 197.164 290.767 196.941 291.224V298H195.315V288.49H196.854ZM212.231 293.228H207.942V291.9H212.231V293.228ZM227.09 293.939C226.931 295.293 226.43 296.339 225.587 297.077C224.749 297.81 223.633 298.176 222.238 298.176C220.726 298.176 219.513 297.634 218.599 296.55C217.691 295.466 217.237 294.016 217.237 292.199V290.969C217.237 289.779 217.448 288.733 217.87 287.831C218.298 286.929 218.901 286.237 219.68 285.757C220.46 285.271 221.362 285.027 222.387 285.027C223.747 285.027 224.837 285.408 225.657 286.17C226.477 286.926 226.955 287.975 227.09 289.316H225.393C225.247 288.297 224.928 287.559 224.435 287.102C223.949 286.645 223.266 286.416 222.387 286.416C221.309 286.416 220.463 286.814 219.847 287.611C219.238 288.408 218.933 289.542 218.933 291.013V292.252C218.933 293.641 219.223 294.745 219.804 295.565C220.384 296.386 221.195 296.796 222.238 296.796C223.176 296.796 223.893 296.585 224.391 296.163C224.895 295.735 225.229 294.994 225.393 293.939H227.09ZM236.693 298.176C235.404 298.176 234.355 297.754 233.546 296.91C232.737 296.061 232.333 294.927 232.333 293.509V293.21C232.333 292.267 232.512 291.426 232.869 290.688C233.233 289.943 233.737 289.363 234.381 288.947C235.031 288.525 235.735 288.314 236.49 288.314C237.727 288.314 238.688 288.722 239.373 289.536C240.059 290.351 240.402 291.517 240.402 293.034V293.711H233.959C233.983 294.648 234.255 295.407 234.777 295.987C235.304 296.562 235.972 296.849 236.78 296.849C237.355 296.849 237.841 296.731 238.239 296.497C238.638 296.263 238.987 295.952 239.285 295.565L240.279 296.339C239.482 297.563 238.286 298.176 236.693 298.176ZM236.49 289.65C235.834 289.65 235.283 289.891 234.838 290.371C234.393 290.846 234.117 291.514 234.012 292.375H238.776V292.252C238.729 291.426 238.506 290.787 238.108 290.336C237.709 289.879 237.17 289.65 236.49 289.65ZM247.429 288.49L247.482 289.686C248.209 288.771 249.158 288.314 250.33 288.314C252.339 288.314 253.353 289.448 253.371 291.716V298H251.745V291.707C251.739 291.021 251.581 290.515 251.27 290.187C250.965 289.858 250.488 289.694 249.838 289.694C249.31 289.694 248.847 289.835 248.449 290.116C248.05 290.397 247.74 290.767 247.517 291.224V298H245.891V288.49H247.429ZM261.629 286.188V288.49H263.404V289.747H261.629V295.645C261.629 296.025 261.708 296.312 261.866 296.506C262.024 296.693 262.294 296.787 262.675 296.787C262.862 296.787 263.12 296.752 263.448 296.682V298C263.021 298.117 262.604 298.176 262.2 298.176C261.474 298.176 260.926 297.956 260.557 297.517C260.188 297.077 260.003 296.453 260.003 295.645V289.747H258.271V288.49H260.003V286.188H261.629ZM272.858 298.176C271.569 298.176 270.52 297.754 269.711 296.91C268.903 296.061 268.498 294.927 268.498 293.509V293.21C268.498 292.267 268.677 291.426 269.035 290.688C269.398 289.943 269.902 289.363 270.546 288.947C271.197 288.525 271.9 288.314 272.656 288.314C273.892 288.314 274.853 288.722 275.538 289.536C276.224 290.351 276.567 291.517 276.567 293.034V293.711H270.124C270.148 294.648 270.42 295.407 270.942 295.987C271.469 296.562 272.137 296.849 272.946 296.849C273.52 296.849 274.006 296.731 274.405 296.497C274.803 296.263 275.152 295.952 275.451 295.565L276.444 296.339C275.647 297.563 274.452 298.176 272.858 298.176ZM272.656 289.65C271.999 289.65 271.449 289.891 271.003 290.371C270.558 290.846 270.283 291.514 270.177 292.375H274.941V292.252C274.894 291.426 274.671 290.787 274.273 290.336C273.874 289.879 273.335 289.65 272.656 289.65ZM286.653 289.949C286.407 289.908 286.14 289.888 285.853 289.888C284.787 289.888 284.063 290.342 283.682 291.25V298H282.056V288.49H283.638L283.665 289.589C284.198 288.739 284.954 288.314 285.932 288.314C286.249 288.314 286.489 288.355 286.653 288.438V289.949ZM295.527 298.176C294.237 298.176 293.189 297.754 292.38 296.91C291.571 296.061 291.167 294.927 291.167 293.509V293.21C291.167 292.267 291.346 291.426 291.703 290.688C292.067 289.943 292.57 289.363 293.215 288.947C293.865 288.525 294.569 288.314 295.324 288.314C296.561 288.314 297.522 288.722 298.207 289.536C298.893 290.351 299.236 291.517 299.236 293.034V293.711H292.793C292.817 294.648 293.089 295.407 293.611 295.987C294.138 296.562 294.806 296.849 295.614 296.849C296.189 296.849 296.675 296.731 297.073 296.497C297.472 296.263 297.82 295.952 298.119 295.565L299.112 296.339C298.316 297.563 297.12 298.176 295.527 298.176ZM295.324 289.65C294.668 289.65 294.117 289.891 293.672 290.371C293.227 290.846 292.951 291.514 292.846 292.375H297.61V292.252C297.563 291.426 297.34 290.787 296.942 290.336C296.543 289.879 296.004 289.65 295.324 289.65ZM304.33 293.166C304.33 291.707 304.675 290.535 305.367 289.65C306.058 288.76 306.963 288.314 308.083 288.314C309.196 288.314 310.078 288.695 310.728 289.457V284.5H312.354V298H310.86L310.781 296.98C310.13 297.777 309.225 298.176 308.065 298.176C306.963 298.176 306.064 297.725 305.367 296.822C304.675 295.92 304.33 294.742 304.33 293.289V293.166ZM305.956 293.351C305.956 294.429 306.178 295.272 306.624 295.882C307.069 296.491 307.684 296.796 308.469 296.796C309.501 296.796 310.254 296.333 310.728 295.407V291.039C310.242 290.143 309.495 289.694 308.487 289.694C307.69 289.694 307.069 290.002 306.624 290.617C306.178 291.232 305.956 292.144 305.956 293.351ZM175.853 316.296C174.406 315.88 173.351 315.37 172.689 314.767C172.033 314.157 171.704 313.407 171.704 312.517C171.704 311.509 172.106 310.677 172.909 310.021C173.717 309.358 174.766 309.027 176.055 309.027C176.934 309.027 177.716 309.197 178.402 309.537C179.093 309.877 179.626 310.346 180.001 310.943C180.382 311.541 180.573 312.194 180.573 312.903H178.876C178.876 312.13 178.63 311.523 178.138 311.084C177.646 310.639 176.952 310.416 176.055 310.416C175.223 310.416 174.573 310.601 174.104 310.97C173.641 311.333 173.41 311.84 173.41 312.49C173.41 313.012 173.629 313.454 174.069 313.817C174.514 314.175 175.267 314.503 176.328 314.802C177.394 315.101 178.226 315.432 178.824 315.795C179.427 316.152 179.872 316.571 180.16 317.052C180.453 317.532 180.599 318.098 180.599 318.748C180.599 319.785 180.195 320.617 179.386 321.244C178.578 321.865 177.496 322.176 176.143 322.176C175.264 322.176 174.444 322.009 173.682 321.675C172.92 321.335 172.331 320.872 171.915 320.286C171.505 319.7 171.3 319.035 171.3 318.291H172.996C172.996 319.064 173.281 319.677 173.849 320.128C174.423 320.573 175.188 320.796 176.143 320.796C177.034 320.796 177.716 320.614 178.191 320.251C178.665 319.888 178.903 319.393 178.903 318.766C178.903 318.139 178.683 317.655 178.244 317.315C177.804 316.97 177.007 316.63 175.853 316.296ZM185.684 317.157C185.684 316.226 185.866 315.388 186.229 314.644C186.598 313.899 187.108 313.325 187.759 312.921C188.415 312.517 189.162 312.314 190 312.314C191.295 312.314 192.341 312.763 193.137 313.659C193.94 314.556 194.342 315.748 194.342 317.236V317.351C194.342 318.276 194.163 319.108 193.805 319.847C193.454 320.579 192.947 321.15 192.285 321.561C191.629 321.971 190.873 322.176 190.017 322.176C188.728 322.176 187.682 321.728 186.88 320.831C186.083 319.935 185.684 318.748 185.684 317.271V317.157ZM187.319 317.351C187.319 318.405 187.562 319.252 188.049 319.891C188.541 320.529 189.197 320.849 190.017 320.849C190.844 320.849 191.5 320.526 191.986 319.882C192.472 319.231 192.716 318.323 192.716 317.157C192.716 316.114 192.467 315.271 191.969 314.626C191.476 313.976 190.82 313.65 190 313.65C189.197 313.65 188.55 313.97 188.057 314.608C187.565 315.247 187.319 316.161 187.319 317.351ZM201.747 322H200.121V308.5H201.747V322ZM213.829 321.06C213.196 321.804 212.267 322.176 211.043 322.176C210.029 322.176 209.255 321.883 208.722 321.297C208.195 320.705 207.928 319.832 207.922 318.678V312.49H209.548V318.634C209.548 320.075 210.134 320.796 211.306 320.796C212.548 320.796 213.375 320.333 213.785 319.407V312.49H215.411V322H213.864L213.829 321.06ZM223.695 310.188V312.49H225.471V313.747H223.695V319.645C223.695 320.025 223.774 320.312 223.933 320.506C224.091 320.693 224.36 320.787 224.741 320.787C224.929 320.787 225.187 320.752 225.515 320.682V322C225.087 322.117 224.671 322.176 224.267 322.176C223.54 322.176 222.992 321.956 222.623 321.517C222.254 321.077 222.069 320.453 222.069 319.645V313.747H220.338V312.49H222.069V310.188H223.695ZM232.745 322H231.119V312.49H232.745V322ZM230.987 309.968C230.987 309.704 231.066 309.481 231.224 309.3C231.388 309.118 231.628 309.027 231.945 309.027C232.261 309.027 232.501 309.118 232.665 309.3C232.829 309.481 232.912 309.704 232.912 309.968C232.912 310.231 232.829 310.451 232.665 310.627C232.501 310.803 232.261 310.891 231.945 310.891C231.628 310.891 231.388 310.803 231.224 310.627C231.066 310.451 230.987 310.231 230.987 309.968ZM238.524 317.157C238.524 316.226 238.706 315.388 239.069 314.644C239.438 313.899 239.948 313.325 240.598 312.921C241.255 312.517 242.002 312.314 242.84 312.314C244.135 312.314 245.18 312.763 245.977 313.659C246.78 314.556 247.181 315.748 247.181 317.236V317.351C247.181 318.276 247.003 319.108 246.645 319.847C246.294 320.579 245.787 321.15 245.125 321.561C244.469 321.971 243.713 322.176 242.857 322.176C241.568 322.176 240.522 321.728 239.72 320.831C238.923 319.935 238.524 318.748 238.524 317.271V317.157ZM240.159 317.351C240.159 318.405 240.402 319.252 240.888 319.891C241.381 320.529 242.037 320.849 242.857 320.849C243.683 320.849 244.34 320.526 244.826 319.882C245.312 319.231 245.555 318.323 245.555 317.157C245.555 316.114 245.306 315.271 244.808 314.626C244.316 313.976 243.66 313.65 242.84 313.65C242.037 313.65 241.389 313.97 240.897 314.608C240.405 315.247 240.159 316.161 240.159 317.351ZM254.359 312.49L254.411 313.686C255.138 312.771 256.087 312.314 257.259 312.314C259.269 312.314 260.282 313.448 260.3 315.716V322H258.674V315.707C258.668 315.021 258.51 314.515 258.199 314.187C257.895 313.858 257.417 313.694 256.767 313.694C256.239 313.694 255.777 313.835 255.378 314.116C254.98 314.397 254.669 314.767 254.446 315.224V322H252.821V312.49H254.359ZM271.889 319.478C271.889 319.038 271.722 318.698 271.388 318.458C271.06 318.212 270.483 318.001 269.657 317.825C268.837 317.649 268.183 317.438 267.697 317.192C267.216 316.946 266.859 316.653 266.625 316.313C266.396 315.974 266.282 315.569 266.282 315.101C266.282 314.321 266.61 313.662 267.266 313.123C267.928 312.584 268.772 312.314 269.797 312.314C270.876 312.314 271.749 312.593 272.417 313.149C273.09 313.706 273.427 314.418 273.427 315.285H271.793C271.793 314.84 271.602 314.456 271.221 314.134C270.846 313.812 270.372 313.65 269.797 313.65C269.206 313.65 268.743 313.779 268.409 314.037C268.075 314.295 267.908 314.632 267.908 315.048C267.908 315.44 268.063 315.736 268.374 315.936C268.684 316.135 269.244 316.325 270.052 316.507C270.867 316.688 271.526 316.905 272.03 317.157C272.534 317.409 272.906 317.714 273.146 318.071C273.392 318.423 273.515 318.854 273.515 319.363C273.515 320.213 273.175 320.896 272.496 321.411C271.816 321.921 270.934 322.176 269.85 322.176C269.088 322.176 268.415 322.041 267.829 321.771C267.243 321.502 266.783 321.127 266.449 320.646C266.121 320.16 265.957 319.636 265.957 319.073H267.583C267.612 319.618 267.829 320.052 268.233 320.374C268.643 320.69 269.182 320.849 269.85 320.849C270.465 320.849 270.958 320.726 271.327 320.479C271.702 320.228 271.889 319.894 271.889 319.478Z" fill="white"/>
</svg>
