<svg width="445" height="445" viewBox="0 0 445 445" fill="none" xmlns="http://www.w3.org/2000/svg">
<circle cx="222.5" cy="222.5" r="222.5" fill="#272727"/>
<circle cx="222.5" cy="222.5" r="181.58" fill="#353535"/>
<circle cx="222.661" cy="222.5" r="140.661" fill="#0A0A0A"/>
<path d="M205.444 156.054C199.809 146.533 188.662 146.089 188.662 146.089C188.662 146.089 177.799 144.7 170.83 159.201C164.335 172.716 155.371 185.766 169.387 188.93L171.919 181.05L173.487 189.517C175.482 189.66 177.484 189.694 179.484 189.619C194.494 189.134 208.789 189.761 208.329 184.374C207.717 177.214 210.866 165.215 205.444 156.054Z" fill="#2F2E41"/>
<path d="M182.315 175.98C184.257 180.275 185.481 185.394 186.212 191.081L201.8 190.106C198.216 185.028 197.026 179.199 198.39 172.57L182.315 175.98Z" fill="#F5C0B0"/>
<path opacity="0.2" d="M182.315 175.98C184.257 180.275 185.481 185.394 186.212 191.081L201.8 190.106C198.216 185.028 197.026 179.199 198.39 172.57L182.315 175.98Z" fill="black"/>
<path d="M109.992 257.752C109.992 257.752 101.924 262.074 106.018 265.763C110.112 269.453 115.52 260.88 115.52 260.88L109.992 257.752Z" fill="#F5C0B0"/>
<path d="M208.621 245.15L208.495 251.054L208.226 263.811V263.813L208.148 267.507H156.556L158.653 255.864L158.655 255.855L160.532 245.435L161.37 240.768V240.766L203.75 234.92L208.621 245.15Z" fill="#0A0A0A"/>
<path d="M208.621 245.152L208.494 251.056C193.501 250.671 170.26 247.052 160.532 245.435L161.37 240.768L203.75 234.922L208.621 245.152Z" fill="#3F3D56"/>
<path d="M189.867 180.123C196.592 180.123 202.045 174.671 202.045 167.945C202.045 161.219 196.592 155.767 189.867 155.767C183.141 155.767 177.688 161.219 177.688 167.945C177.688 174.671 183.141 180.123 189.867 180.123Z" fill="#F5C0B0"/>
<path d="M213.247 251.728C213.247 251.728 214.709 264.88 205.941 263.906L204.479 250.754L196.685 242.96L174.764 242.473L158.689 257.573C158.689 257.573 158.202 241.985 160.151 240.524C162.099 239.063 166.483 235.653 166.483 235.653V233.217L153.331 206.425C153.331 206.425 161.125 190.35 167.458 189.863L175.739 189.376C175.739 189.376 178.661 187.914 178.661 187.427C178.661 186.94 178.174 183.043 180.61 184.017C180.61 184.017 180.829 179.02 183.396 180.544C183.396 180.544 191.478 186.877 199.681 180.822C199.681 180.822 203.505 180.12 203.018 182.069C202.531 184.017 203.018 185.479 203.992 185.479C204.966 185.479 209.35 186.94 209.35 187.914C209.35 188.124 209.667 190.141 210.164 193.175V193.18C211.971 204.243 216.17 228.833 216.17 228.833C216.17 228.833 220.554 235.166 213.247 251.728Z" fill="#6C63FF"/>
<path d="M156.743 203.988L153.333 206.424L122.157 246.368L105.594 259.521C105.594 259.521 114.85 258.059 112.901 265.853L169.895 233.216L156.743 203.988Z" fill="#6C63FF"/>
<path d="M210.165 193.175V193.18C209.517 196.989 188.405 196.195 185.482 196.195C182.56 196.195 180.124 195.708 177.201 193.759C174.278 191.811 175.74 189.375 175.74 189.375C175.74 189.375 178.228 187.48 178.228 186.993C178.228 186.506 177.741 182.609 180.177 183.583C180.177 183.583 180.396 178.585 182.963 180.11C182.963 180.11 191.479 186.876 199.682 180.821C199.682 180.821 203.506 180.12 203.019 182.068C202.532 184.017 203.019 185.478 203.993 185.478C204.967 185.478 209.352 186.94 209.352 187.914C209.352 188.123 209.668 190.14 210.165 193.175Z" fill="#3F3D56"/>
<path d="M207.648 175.007C207.648 175.007 203.751 166.726 199.854 170.623C195.957 174.52 204.238 180.365 204.238 180.365L207.648 175.007Z" fill="#F5C0B0"/>
<path d="M207.647 173.057C207.647 173.057 201.629 180.661 199.767 181.243C199.767 181.243 205.211 202.771 212.031 208.617L215.928 228.589C215.928 228.589 232.49 221.769 228.593 210.565C228.554 210.453 228.516 210.342 228.477 210.231C225.223 200.901 220.732 192.049 215.125 183.912L207.647 173.057Z" fill="#6C63FF"/>
<path opacity="0.2" d="M204.431 195.612L216.415 228.589L212.031 208.616L204.431 195.612Z" fill="black"/>
<path d="M202.953 155.136L191.94 149.367L176.731 151.727L173.584 165.625L181.417 165.324L183.605 160.218V165.24L187.22 165.101L189.318 156.972L190.629 165.625L203.478 165.363L202.953 155.136Z" fill="#2F2E41"/>
<path d="M306.992 230.101L313.241 252.392C313.241 252.392 311.953 272.135 317.962 268.272C324.111 264.319 321.825 247.67 321.825 247.67L318.223 227.673L306.992 230.101Z" fill="#FFC7B6"/>
<path d="M310.334 167.57L315.494 172.73V197.317C315.494 197.317 318.53 201.87 317.922 203.084C317.315 204.298 316.708 204.298 317.315 205.209C317.922 206.12 318.53 206.727 317.922 207.334C317.315 207.941 317.315 209.459 317.922 210.066C318.53 210.673 319.744 211.584 318.833 212.494C317.922 213.405 316.708 212.798 317.922 216.137C319.137 219.476 321.261 220.386 320.654 221.6C320.047 222.815 320.047 225.85 320.047 225.85L306.995 227.671L304.263 193.371L310.334 167.57Z" fill="#D0CDE1"/>
<path d="M320.653 225.547L305.476 226.154L306.083 232.528L319.439 230.1L320.653 225.547Z" fill="#3F3D56"/>
<path d="M278.918 135.851L277.097 154.063L295.613 156.795L296.979 146.323L298.345 135.851H278.918Z" fill="#FFC7B6"/>
<path opacity="0.1" d="M278.918 135.751L277.097 153.964L295.613 156.696L296.979 146.223L298.345 135.751H278.918Z" fill="black"/>
<path d="M238.697 222.511L249.018 244.669C249.018 244.669 250.839 254.99 253.571 255.293C256.303 255.597 259.035 244.669 259.035 244.669L255.392 238.902L251.143 222.511H238.697Z" fill="#FFC7B6"/>
<path d="M309.344 267.724H250.998C251.46 260.412 251.751 255.903 251.751 255.903L252.526 254.683L256.283 248.779L258.966 244.564L259.901 243.093L260.249 242.548L263.923 241.877L301.834 234.959C302.461 237.767 303.349 240.51 304.485 243.153C304.743 243.742 305.021 244.33 305.318 244.912C306.271 246.772 307.434 248.534 308.817 249.832C309.132 250.127 309.36 250.915 309.507 252.126C309.872 255.094 309.768 260.611 309.344 267.724Z" fill="#0A0A0A"/>
<path d="M289.085 141.769C297.132 141.769 303.655 135.246 303.655 127.199C303.655 119.153 297.132 112.629 289.085 112.629C281.038 112.629 274.515 119.153 274.515 127.199C274.515 135.246 281.038 141.769 289.085 141.769Z" fill="#FFC7B6"/>
<path d="M256.606 156.945L254.481 155.73C254.481 155.73 245.071 162.105 242.036 176.371C239 190.638 236.876 194.28 236.876 194.28C236.876 194.28 233.84 194.887 235.965 197.012C238.09 199.137 238.09 198.834 236.269 200.048C234.447 201.262 233.233 198.834 234.447 201.262C235.661 203.69 237.179 203.083 235.965 204.601C234.751 206.119 232.626 206.119 233.84 207.333C235.054 208.547 232.626 211.279 234.144 212.493C235.661 213.707 236.269 214.011 236.269 216.135C236.259 217.376 236.465 218.608 236.876 219.778H252.66C252.66 219.778 249.624 214.011 250.535 212.796C251.446 211.582 251.749 210.368 251.142 209.761C250.535 209.154 248.714 210.368 250.535 208.85C252.356 207.333 252.963 208.243 252.356 206.422C251.749 204.601 250.535 205.511 251.749 204.601C252.963 203.69 253.874 203.994 253.267 203.083C252.66 202.172 251.446 202.172 252.66 201.565C253.874 200.958 254.785 201.565 254.481 200.048C254.178 198.53 253.874 199.137 254.481 198.53C255.088 197.923 261.463 177.282 261.463 176.675C261.463 176.068 256.606 156.945 256.606 156.945Z" fill="#D0CDE1"/>
<path d="M253.57 218.567L234.447 219.782L239.304 224.335L252.66 224.638L253.57 218.567Z" fill="#3F3D56"/>
<path d="M259.035 241.33L255.089 248.615C255.089 248.615 266.927 250.133 271.176 251.651C275.426 253.168 286.353 255.293 286.353 255.293L289.085 244.669L259.035 241.33Z" fill="#3F3D56"/>
<path d="M293.638 244.67L296.977 254.687L310.333 251.955L308.815 242.545L293.638 244.67Z" fill="#3F3D56"/>
<path d="M299.103 146.626C299.103 146.626 298.192 146.019 296.067 147.234C293.942 148.448 286.961 149.055 283.622 145.412C280.283 141.77 277.855 138.734 276.944 139.341C276.033 139.948 275.426 146.93 275.426 146.93L272.391 149.358L254.482 155.733L256 196.711L258.732 206.121C258.732 206.121 256.607 213.406 259.339 217.655C262.071 221.905 257.821 223.423 257.821 223.423C257.821 223.423 256.91 224.637 257.517 227.672C258.124 230.708 256.91 241.939 256.91 241.939C256.91 241.939 282.711 253.473 309.727 243.457L306.691 231.922L305.174 206.121C305.174 206.121 306.691 201.871 306.388 200.05C306.084 198.229 315.494 172.731 315.494 172.731C315.494 172.731 313.976 159.982 306.084 157.25C298.192 154.519 296.978 151.787 296.978 151.787C296.978 151.787 300.62 147.841 299.103 146.626Z" fill="#D0CDE1"/>
<path d="M274.416 129.066C274.416 129.066 272.902 126.796 273.484 124.352C273.832 122.965 273.969 121.533 273.892 120.104C273.892 120.104 275.114 116.147 276.336 113.936C277.558 111.724 276.976 110.793 280.817 110.095C284.658 109.397 283.086 104.392 293.212 109.804C293.554 110.281 294.029 110.646 294.578 110.853C295.127 111.06 295.725 111.1 296.296 110.968C298.391 110.56 299.148 113.47 299.148 113.47C299.148 113.47 300.544 112.655 301.068 113.819C301.592 114.983 305.326 113.121 305.326 120.977C305.326 128.833 301.077 135.85 301.077 135.85C301.077 135.85 301.388 122.636 294.463 121.297C287.538 119.959 280.089 116.06 278.285 121.064C276.481 126.069 274.416 129.066 274.416 129.066Z" fill="#2F2E41"/>
<path d="M301.228 132.209C301.982 132.209 302.594 131.394 302.594 130.388C302.594 129.382 301.982 128.566 301.228 128.566C300.473 128.566 299.862 129.382 299.862 130.388C299.862 131.394 300.473 132.209 301.228 132.209Z" fill="#FFC7B6"/>
<path d="M142.665 298H140.969V292.085H134.518V298H132.83V285.203H134.518V290.705H140.969V285.203H142.665V298ZM154.879 297.06C154.246 297.804 153.317 298.176 152.093 298.176C151.079 298.176 150.305 297.883 149.772 297.297C149.245 296.705 148.978 295.832 148.972 294.678V288.49H150.598V294.634C150.598 296.075 151.184 296.796 152.356 296.796C153.598 296.796 154.425 296.333 154.835 295.407V288.49H156.461V298H154.914L154.879 297.06ZM164.069 288.49L164.112 289.545C164.81 288.725 165.75 288.314 166.934 288.314C168.264 288.314 169.169 288.824 169.65 289.844C169.966 289.387 170.376 289.018 170.88 288.736C171.39 288.455 171.99 288.314 172.682 288.314C174.768 288.314 175.828 289.419 175.863 291.628V298H174.237V291.725C174.237 291.045 174.082 290.538 173.772 290.204C173.461 289.864 172.94 289.694 172.207 289.694C171.604 289.694 171.103 289.876 170.704 290.239C170.306 290.597 170.074 291.08 170.01 291.689V298H168.375V291.769C168.375 290.386 167.698 289.694 166.345 289.694C165.279 289.694 164.549 290.148 164.156 291.057V298H162.53V288.49H164.069ZM187.796 298C187.702 297.812 187.626 297.479 187.567 296.998C186.811 297.783 185.909 298.176 184.86 298.176C183.922 298.176 183.152 297.912 182.548 297.385C181.951 296.852 181.652 296.178 181.652 295.363C181.652 294.373 182.027 293.605 182.777 293.061C183.533 292.51 184.593 292.234 185.959 292.234H187.541V291.487C187.541 290.919 187.371 290.468 187.031 290.134C186.691 289.794 186.19 289.624 185.528 289.624C184.948 289.624 184.462 289.771 184.069 290.063C183.676 290.356 183.48 290.711 183.48 291.127H181.845C181.845 290.652 182.012 290.195 182.346 289.756C182.686 289.311 183.143 288.959 183.717 288.701C184.297 288.443 184.933 288.314 185.625 288.314C186.72 288.314 187.579 288.59 188.2 289.141C188.821 289.686 189.143 290.438 189.167 291.399V295.776C189.167 296.649 189.278 297.344 189.501 297.859V298H187.796ZM185.097 296.761C185.607 296.761 186.09 296.629 186.547 296.365C187.004 296.102 187.336 295.759 187.541 295.337V293.386H186.266C184.274 293.386 183.278 293.969 183.278 295.135C183.278 295.645 183.448 296.043 183.788 296.33C184.128 296.617 184.564 296.761 185.097 296.761ZM196.854 288.49L196.906 289.686C197.633 288.771 198.582 288.314 199.754 288.314C201.764 288.314 202.777 289.448 202.795 291.716V298H201.169V291.707C201.163 291.021 201.005 290.515 200.694 290.187C200.39 289.858 199.912 289.694 199.262 289.694C198.734 289.694 198.271 289.835 197.873 290.116C197.475 290.397 197.164 290.767 196.941 291.224V298H195.315V288.49H196.854ZM212.231 293.228H207.942V291.9H212.231V293.228ZM227.09 293.939C226.931 295.293 226.43 296.339 225.587 297.077C224.749 297.81 223.633 298.176 222.238 298.176C220.726 298.176 219.513 297.634 218.599 296.55C217.691 295.466 217.237 294.016 217.237 292.199V290.969C217.237 289.779 217.448 288.733 217.87 287.831C218.298 286.929 218.901 286.237 219.68 285.757C220.46 285.271 221.362 285.027 222.387 285.027C223.747 285.027 224.837 285.408 225.657 286.17C226.477 286.926 226.955 287.975 227.09 289.316H225.393C225.247 288.297 224.928 287.559 224.435 287.102C223.949 286.645 223.266 286.416 222.387 286.416C221.309 286.416 220.463 286.814 219.847 287.611C219.238 288.408 218.933 289.542 218.933 291.013V292.252C218.933 293.641 219.223 294.745 219.804 295.565C220.384 296.386 221.195 296.796 222.238 296.796C223.176 296.796 223.893 296.585 224.391 296.163C224.895 295.735 225.229 294.994 225.393 293.939H227.09ZM236.693 298.176C235.404 298.176 234.355 297.754 233.546 296.91C232.737 296.061 232.333 294.927 232.333 293.509V293.21C232.333 292.267 232.512 291.426 232.869 290.688C233.233 289.943 233.737 289.363 234.381 288.947C235.031 288.525 235.735 288.314 236.49 288.314C237.727 288.314 238.688 288.722 239.373 289.536C240.059 290.351 240.402 291.517 240.402 293.034V293.711H233.959C233.983 294.648 234.255 295.407 234.777 295.987C235.304 296.562 235.972 296.849 236.78 296.849C237.355 296.849 237.841 296.731 238.239 296.497C238.638 296.263 238.987 295.952 239.285 295.565L240.279 296.339C239.482 297.563 238.286 298.176 236.693 298.176ZM236.49 289.65C235.834 289.65 235.283 289.891 234.838 290.371C234.393 290.846 234.117 291.514 234.012 292.375H238.776V292.252C238.729 291.426 238.506 290.787 238.108 290.336C237.709 289.879 237.17 289.65 236.49 289.65ZM247.429 288.49L247.482 289.686C248.209 288.771 249.158 288.314 250.33 288.314C252.339 288.314 253.353 289.448 253.371 291.716V298H251.745V291.707C251.739 291.021 251.581 290.515 251.27 290.187C250.965 289.858 250.488 289.694 249.838 289.694C249.31 289.694 248.847 289.835 248.449 290.116C248.05 290.397 247.74 290.767 247.517 291.224V298H245.891V288.49H247.429ZM261.629 286.188V288.49H263.404V289.747H261.629V295.645C261.629 296.025 261.708 296.312 261.866 296.506C262.024 296.693 262.294 296.787 262.675 296.787C262.862 296.787 263.12 296.752 263.448 296.682V298C263.021 298.117 262.604 298.176 262.2 298.176C261.474 298.176 260.926 297.956 260.557 297.517C260.188 297.077 260.003 296.453 260.003 295.645V289.747H258.271V288.49H260.003V286.188H261.629ZM272.858 298.176C271.569 298.176 270.52 297.754 269.711 296.91C268.903 296.061 268.498 294.927 268.498 293.509V293.21C268.498 292.267 268.677 291.426 269.035 290.688C269.398 289.943 269.902 289.363 270.546 288.947C271.197 288.525 271.9 288.314 272.656 288.314C273.892 288.314 274.853 288.722 275.538 289.536C276.224 290.351 276.567 291.517 276.567 293.034V293.711H270.124C270.148 294.648 270.42 295.407 270.942 295.987C271.469 296.562 272.137 296.849 272.946 296.849C273.52 296.849 274.006 296.731 274.405 296.497C274.803 296.263 275.152 295.952 275.451 295.565L276.444 296.339C275.647 297.563 274.452 298.176 272.858 298.176ZM272.656 289.65C271.999 289.65 271.449 289.891 271.003 290.371C270.558 290.846 270.283 291.514 270.177 292.375H274.941V292.252C274.894 291.426 274.671 290.787 274.273 290.336C273.874 289.879 273.335 289.65 272.656 289.65ZM286.653 289.949C286.407 289.908 286.14 289.888 285.853 289.888C284.787 289.888 284.063 290.342 283.682 291.25V298H282.056V288.49H283.638L283.665 289.589C284.198 288.739 284.954 288.314 285.932 288.314C286.249 288.314 286.489 288.355 286.653 288.438V289.949ZM295.527 298.176C294.237 298.176 293.189 297.754 292.38 296.91C291.571 296.061 291.167 294.927 291.167 293.509V293.21C291.167 292.267 291.346 291.426 291.703 290.688C292.067 289.943 292.57 289.363 293.215 288.947C293.865 288.525 294.569 288.314 295.324 288.314C296.561 288.314 297.522 288.722 298.207 289.536C298.893 290.351 299.236 291.517 299.236 293.034V293.711H292.793C292.817 294.648 293.089 295.407 293.611 295.987C294.138 296.562 294.806 296.849 295.614 296.849C296.189 296.849 296.675 296.731 297.073 296.497C297.472 296.263 297.82 295.952 298.119 295.565L299.112 296.339C298.316 297.563 297.12 298.176 295.527 298.176ZM295.324 289.65C294.668 289.65 294.117 289.891 293.672 290.371C293.227 290.846 292.951 291.514 292.846 292.375H297.61V292.252C297.563 291.426 297.34 290.787 296.942 290.336C296.543 289.879 296.004 289.65 295.324 289.65ZM304.33 293.166C304.33 291.707 304.675 290.535 305.367 289.65C306.058 288.76 306.963 288.314 308.083 288.314C309.196 288.314 310.078 288.695 310.728 289.457V284.5H312.354V298H310.86L310.781 296.98C310.13 297.777 309.225 298.176 308.065 298.176C306.963 298.176 306.064 297.725 305.367 296.822C304.675 295.92 304.33 294.742 304.33 293.289V293.166ZM305.956 293.351C305.956 294.429 306.178 295.272 306.624 295.882C307.069 296.491 307.684 296.796 308.469 296.796C309.501 296.796 310.254 296.333 310.728 295.407V291.039C310.242 290.143 309.495 289.694 308.487 289.694C307.69 289.694 307.069 290.002 306.624 290.617C306.178 291.232 305.956 292.144 305.956 293.351Z" fill="white"/>
</svg>
