<svg width="555" height="464" viewBox="0 0 555 464" fill="none" xmlns="http://www.w3.org/2000/svg">
<path opacity="0.1" d="M555 360.201C549.551 363.91 543.841 367.114 538.208 370.308C517.398 381.911 496.275 393.615 473.919 397.598C431.932 404.976 388.606 384.762 347.353 397.375C312.798 407.907 284.22 440.179 250.46 454.552C234.763 461.233 218.43 463.85 201.952 463.85H199.825C197.784 463.817 195.758 463.749 193.748 463.648C177.04 462.82 160.264 459.555 143.885 455.381C92.1709 442.241 39.5379 418.156 0 373.815C106.848 303.832 412.199 304.844 555 360.201Z" fill="#B9B9B9"/>
<path d="M394.739 85.7116H309.606V67.3014C309.606 66.7228 309.493 66.1498 309.272 65.6151C309.05 65.0804 308.726 64.5946 308.317 64.1855C307.908 63.7763 307.422 63.4519 306.887 63.2307C306.353 63.0096 305.78 62.896 305.201 62.8966H280.205V43.2831C280.205 42.5479 279.913 41.8428 279.393 41.3229C278.873 40.8031 278.168 40.511 277.433 40.511H245.217C244.482 40.5121 243.778 40.8045 243.258 41.3242C242.738 41.8438 242.446 42.5483 242.445 43.2831V62.8966H213.069C212.49 62.8949 211.916 63.0076 211.38 63.2282C210.844 63.4488 210.357 63.773 209.946 64.1822C209.536 64.5914 209.21 65.0775 208.988 65.6128C208.766 66.1481 208.652 66.7219 208.652 67.3014V85.6988H127.49C127.252 85.7 127.025 85.795 126.858 85.9631C126.691 86.1312 126.597 86.3588 126.597 86.596V331.035C126.597 331.272 126.691 331.499 126.858 331.668C127.025 331.836 127.252 331.931 127.49 331.932H181.44C181.678 331.931 181.905 331.836 182.073 331.668C182.241 331.5 182.336 331.272 182.337 331.035V298.134C182.339 297.897 182.433 297.669 182.601 297.501C182.769 297.333 182.997 297.238 183.235 297.237H206.024C206.261 297.238 206.488 297.333 206.656 297.502C206.823 297.67 206.917 297.897 206.917 298.134V331.018C206.917 331.254 207.01 331.481 207.177 331.649C207.343 331.817 207.569 331.913 207.806 331.915H314.423C314.66 331.913 314.886 331.817 315.053 331.649C315.221 331.481 315.315 331.255 315.316 331.018V298.134C315.316 297.898 315.409 297.671 315.576 297.503C315.742 297.335 315.968 297.24 316.205 297.237H338.994C339.232 297.237 339.46 297.332 339.628 297.5C339.797 297.668 339.891 297.897 339.891 298.134V331.018C339.892 331.255 339.987 331.483 340.155 331.651C340.323 331.819 340.551 331.914 340.788 331.915H394.739C394.976 331.913 395.202 331.817 395.369 331.649C395.537 331.481 395.631 331.255 395.632 331.018V86.6087C395.632 86.3715 395.538 86.144 395.371 85.9759C395.203 85.8077 394.976 85.7127 394.739 85.7116ZM172.677 285.834C172.676 286.069 172.582 286.295 172.416 286.461C172.249 286.628 172.024 286.722 171.789 286.723H138.463C138.346 286.723 138.23 286.701 138.122 286.656C138.014 286.612 137.915 286.546 137.832 286.464C137.749 286.381 137.683 286.283 137.639 286.175C137.594 286.067 137.571 285.951 137.571 285.834V274.452C137.57 274.334 137.593 274.218 137.637 274.109C137.682 274 137.748 273.901 137.831 273.818C137.913 273.735 138.012 273.668 138.121 273.623C138.229 273.578 138.346 273.555 138.463 273.555H171.789C172.025 273.557 172.251 273.653 172.418 273.821C172.584 273.989 172.677 274.216 172.677 274.452V285.834ZM172.677 256.425C172.677 256.661 172.584 256.887 172.417 257.054C172.251 257.222 172.025 257.316 171.789 257.317H138.463C138.346 257.317 138.229 257.294 138.121 257.249C138.012 257.204 137.913 257.138 137.831 257.054C137.748 256.971 137.682 256.872 137.637 256.763C137.593 256.654 137.57 256.538 137.571 256.42V245.051C137.57 244.933 137.593 244.817 137.637 244.708C137.682 244.599 137.748 244.5 137.831 244.417C137.913 244.334 138.012 244.267 138.121 244.222C138.229 244.177 138.346 244.154 138.463 244.154H171.789C171.906 244.154 172.022 244.178 172.13 244.224C172.238 244.269 172.336 244.335 172.419 244.418C172.501 244.502 172.567 244.6 172.611 244.709C172.655 244.818 172.678 244.934 172.677 245.051V256.425ZM172.677 227.024C172.677 227.26 172.584 227.486 172.417 227.653C172.251 227.821 172.025 227.915 171.789 227.916H138.463C138.227 227.916 137.999 227.822 137.832 227.655C137.665 227.487 137.571 227.26 137.571 227.024V215.65C137.57 215.532 137.593 215.416 137.637 215.307C137.682 215.198 137.748 215.099 137.831 215.016C137.913 214.933 138.012 214.866 138.121 214.821C138.229 214.776 138.346 214.753 138.463 214.753H171.789C172.025 214.755 172.251 214.851 172.418 215.019C172.584 215.187 172.677 215.414 172.677 215.65V227.024ZM172.677 197.614C172.678 197.731 172.655 197.847 172.611 197.955C172.567 198.064 172.501 198.162 172.419 198.245C172.336 198.328 172.238 198.394 172.13 198.439C172.022 198.484 171.906 198.507 171.789 198.507H138.463C138.346 198.507 138.23 198.485 138.121 198.44C138.012 198.395 137.914 198.33 137.831 198.247C137.748 198.164 137.682 198.065 137.637 197.956C137.593 197.848 137.57 197.731 137.571 197.614V186.236C137.57 186.119 137.593 186.003 137.637 185.894C137.682 185.785 137.748 185.687 137.831 185.604C137.914 185.521 138.012 185.455 138.121 185.41C138.23 185.366 138.346 185.343 138.463 185.343H171.789C171.906 185.343 172.022 185.367 172.13 185.411C172.238 185.456 172.336 185.522 172.419 185.605C172.501 185.688 172.567 185.787 172.611 185.895C172.655 186.003 172.678 186.119 172.677 186.236V197.614ZM172.677 168.209C172.677 168.445 172.584 168.672 172.418 168.84C172.251 169.008 172.025 169.104 171.789 169.106H138.463C138.346 169.106 138.229 169.083 138.121 169.038C138.012 168.992 137.913 168.926 137.831 168.843C137.748 168.76 137.682 168.661 137.637 168.552C137.593 168.443 137.57 168.326 137.571 168.209V156.827C137.571 156.71 137.594 156.594 137.639 156.486C137.683 156.378 137.749 156.279 137.832 156.197C137.915 156.114 138.014 156.049 138.122 156.005C138.23 155.96 138.346 155.938 138.463 155.938H171.789C172.024 155.939 172.249 156.033 172.416 156.2C172.582 156.366 172.676 156.591 172.677 156.827V168.209ZM172.677 138.808C172.676 139.043 172.582 139.268 172.416 139.435C172.249 139.601 172.024 139.695 171.789 139.696H138.463C138.346 139.697 138.23 139.674 138.122 139.63C138.014 139.586 137.915 139.52 137.832 139.438C137.749 139.355 137.683 139.257 137.639 139.149C137.594 139.041 137.571 138.925 137.571 138.808V127.426C137.571 127.189 137.664 126.961 137.832 126.793C137.999 126.625 138.226 126.53 138.463 126.529H171.789C172.025 126.531 172.251 126.626 172.418 126.794C172.584 126.962 172.677 127.189 172.677 127.426V138.808ZM172.677 109.398C172.678 109.515 172.655 109.632 172.611 109.74C172.567 109.849 172.501 109.948 172.419 110.031C172.336 110.114 172.238 110.18 172.13 110.226C172.022 110.271 171.906 110.295 171.789 110.295H138.463C138.346 110.295 138.229 110.272 138.121 110.227C138.012 110.182 137.913 110.116 137.831 110.032C137.748 109.949 137.682 109.85 137.637 109.741C137.593 109.632 137.57 109.516 137.571 109.398V98.0247C137.57 97.9071 137.593 97.7906 137.637 97.6817C137.682 97.5729 137.748 97.474 137.831 97.3906C137.913 97.3073 138.012 97.2411 138.121 97.196C138.229 97.1508 138.346 97.1276 138.463 97.1276H171.789C171.906 97.1282 172.022 97.1518 172.13 97.1972C172.238 97.2426 172.336 97.3088 172.419 97.3921C172.501 97.4754 172.567 97.5742 172.611 97.6827C172.655 97.7913 172.678 97.9075 172.677 98.0247V109.398ZM251.675 285.847C251.675 285.964 251.652 286.08 251.607 286.188C251.562 286.296 251.497 286.394 251.414 286.477C251.331 286.559 251.232 286.625 251.124 286.669C251.016 286.713 250.9 286.736 250.783 286.735H217.461C217.225 286.735 216.998 286.642 216.83 286.476C216.662 286.309 216.566 286.083 216.564 285.847V274.452C216.565 274.214 216.66 273.987 216.828 273.819C216.996 273.651 217.224 273.556 217.461 273.555H250.783C250.9 273.555 251.017 273.578 251.125 273.623C251.234 273.668 251.332 273.735 251.415 273.818C251.498 273.901 251.564 274 251.609 274.109C251.653 274.218 251.676 274.334 251.675 274.452V285.847ZM251.675 256.437C251.676 256.555 251.653 256.671 251.609 256.78C251.564 256.889 251.498 256.988 251.415 257.071C251.332 257.155 251.234 257.221 251.125 257.266C251.017 257.311 250.9 257.334 250.783 257.334H217.461C217.223 257.334 216.995 257.24 216.827 257.072C216.659 256.903 216.564 256.675 216.564 256.437V245.051C216.564 244.813 216.659 244.585 216.827 244.417C216.995 244.248 217.223 244.154 217.461 244.154H250.783C250.9 244.154 251.017 244.177 251.125 244.222C251.234 244.267 251.332 244.334 251.415 244.417C251.498 244.5 251.564 244.599 251.609 244.708C251.653 244.817 251.676 244.933 251.675 245.051V256.437ZM251.675 227.036C251.675 227.273 251.581 227.5 251.414 227.668C251.246 227.835 251.019 227.929 250.783 227.929H217.461C217.224 227.929 216.997 227.835 216.828 227.668C216.66 227.501 216.565 227.273 216.564 227.036V215.65C216.565 215.412 216.66 215.185 216.828 215.017C216.996 214.849 217.224 214.754 217.461 214.753H250.783C250.9 214.753 251.017 214.776 251.125 214.821C251.234 214.866 251.332 214.933 251.415 215.016C251.498 215.099 251.564 215.198 251.609 215.307C251.653 215.416 251.676 215.532 251.675 215.65V227.036ZM251.675 197.627C251.676 197.744 251.653 197.861 251.609 197.969C251.564 198.078 251.498 198.176 251.415 198.259C251.332 198.342 251.233 198.408 251.125 198.453C251.016 198.497 250.9 198.52 250.783 198.52H217.461C217.344 198.52 217.227 198.498 217.118 198.453C217.01 198.408 216.911 198.343 216.827 198.26C216.744 198.177 216.678 198.078 216.633 197.969C216.587 197.861 216.564 197.744 216.564 197.627V186.236C216.564 186.119 216.587 186.002 216.633 185.894C216.678 185.785 216.744 185.686 216.827 185.603C216.911 185.52 217.01 185.455 217.118 185.41C217.227 185.366 217.344 185.343 217.461 185.343H250.783C250.9 185.343 251.016 185.366 251.125 185.41C251.233 185.455 251.332 185.521 251.415 185.604C251.498 185.687 251.564 185.785 251.609 185.894C251.653 186.003 251.676 186.119 251.675 186.236V197.627ZM251.675 168.222C251.676 168.339 251.653 168.456 251.609 168.564C251.564 168.673 251.498 168.772 251.415 168.856C251.332 168.939 251.234 169.005 251.125 169.05C251.017 169.095 250.9 169.119 250.783 169.119H217.461C217.224 169.118 216.996 169.023 216.828 168.855C216.66 168.687 216.565 168.459 216.564 168.222V156.827C216.566 156.59 216.662 156.364 216.83 156.198C216.998 156.031 217.225 155.938 217.461 155.938H250.783C250.9 155.938 251.016 155.96 251.124 156.005C251.232 156.049 251.331 156.114 251.414 156.197C251.497 156.279 251.562 156.378 251.607 156.486C251.652 156.594 251.675 156.71 251.675 156.827V168.222ZM251.675 138.82C251.675 138.938 251.652 139.053 251.607 139.162C251.562 139.27 251.497 139.368 251.414 139.45C251.331 139.533 251.232 139.598 251.124 139.643C251.016 139.687 250.9 139.71 250.783 139.709H217.461C217.225 139.709 216.998 139.616 216.83 139.449C216.662 139.283 216.566 139.057 216.564 138.82V127.426C216.565 127.188 216.66 126.961 216.828 126.793C216.996 126.625 217.224 126.53 217.461 126.529H250.783C251.02 126.53 251.247 126.625 251.414 126.793C251.581 126.961 251.675 127.189 251.675 127.426V138.82ZM251.675 109.411C251.676 109.529 251.653 109.645 251.609 109.754C251.564 109.863 251.498 109.962 251.415 110.045C251.332 110.128 251.234 110.195 251.125 110.24C251.017 110.285 250.9 110.308 250.783 110.308H217.461C217.223 110.308 216.995 110.214 216.827 110.045C216.659 109.877 216.564 109.649 216.564 109.411V98.0247C216.564 97.7868 216.659 97.5586 216.827 97.3904C216.995 97.2221 217.223 97.1276 217.461 97.1276H250.783C250.9 97.1276 251.017 97.1508 251.125 97.196C251.234 97.2411 251.332 97.3073 251.415 97.3906C251.498 97.474 251.564 97.5729 251.609 97.6817C251.653 97.7906 251.676 97.9071 251.675 98.0247V109.411ZM305.673 285.86C305.672 285.977 305.649 286.093 305.603 286.201C305.558 286.309 305.492 286.407 305.408 286.49C305.325 286.572 305.226 286.637 305.118 286.682C305.009 286.726 304.893 286.749 304.776 286.748H271.442C271.206 286.748 270.979 286.655 270.812 286.488C270.645 286.322 270.55 286.096 270.549 285.86V274.452C270.549 274.215 270.643 273.987 270.81 273.819C270.978 273.651 271.205 273.556 271.442 273.555H304.763C305.001 273.555 305.229 273.649 305.397 273.818C305.566 273.986 305.66 274.214 305.66 274.452L305.673 285.86ZM305.673 256.45C305.673 256.568 305.651 256.685 305.606 256.794C305.561 256.903 305.495 257.002 305.411 257.086C305.328 257.169 305.229 257.235 305.12 257.28C305.011 257.325 304.894 257.348 304.776 257.347H271.442C271.205 257.346 270.978 257.251 270.81 257.083C270.643 256.915 270.549 256.687 270.549 256.45V245.051C270.549 244.814 270.643 244.586 270.81 244.418C270.978 244.25 271.205 244.155 271.442 244.154H304.763C304.881 244.153 304.998 244.176 305.107 244.221C305.216 244.266 305.315 244.332 305.399 244.415C305.482 244.499 305.548 244.598 305.593 244.707C305.638 244.816 305.661 244.933 305.66 245.051L305.673 256.45ZM305.673 227.049C305.672 227.286 305.577 227.513 305.409 227.681C305.241 227.848 305.013 227.942 304.776 227.942H271.442C271.205 227.941 270.979 227.846 270.812 227.679C270.645 227.512 270.55 227.286 270.549 227.049V215.65C270.549 215.413 270.643 215.185 270.81 215.017C270.978 214.849 271.205 214.754 271.442 214.753H304.763C305.001 214.753 305.229 214.847 305.397 215.016C305.566 215.184 305.66 215.412 305.66 215.65L305.673 227.049ZM305.673 197.64C305.673 197.757 305.65 197.874 305.605 197.982C305.559 198.091 305.493 198.189 305.41 198.272C305.327 198.355 305.228 198.421 305.119 198.466C305.01 198.51 304.893 198.533 304.776 198.532H271.442C271.325 198.532 271.208 198.509 271.1 198.464C270.992 198.42 270.893 198.354 270.811 198.271C270.728 198.188 270.662 198.09 270.617 197.981C270.572 197.873 270.549 197.757 270.549 197.64V186.236C270.549 186.119 270.572 186.003 270.617 185.895C270.662 185.786 270.728 185.688 270.811 185.605C270.893 185.522 270.992 185.456 271.1 185.411C271.208 185.367 271.325 185.343 271.442 185.343H304.763C304.881 185.343 304.997 185.366 305.106 185.41C305.215 185.455 305.314 185.52 305.397 185.603C305.48 185.686 305.547 185.785 305.592 185.894C305.637 186.002 305.66 186.119 305.66 186.236L305.673 197.64ZM305.673 168.234C305.673 168.472 305.578 168.7 305.41 168.869C305.242 169.037 305.014 169.131 304.776 169.131H271.442C271.205 169.13 270.978 169.035 270.81 168.867C270.643 168.699 270.549 168.471 270.549 168.234V156.827C270.55 156.591 270.645 156.365 270.812 156.198C270.979 156.032 271.206 155.938 271.442 155.938H304.763C304.88 155.938 304.996 155.96 305.105 156.004C305.214 156.049 305.312 156.114 305.396 156.197C305.479 156.279 305.545 156.377 305.591 156.485C305.636 156.594 305.66 156.71 305.66 156.827L305.673 168.234ZM305.673 138.833C305.672 138.951 305.649 139.066 305.603 139.175C305.558 139.283 305.492 139.381 305.408 139.463C305.325 139.546 305.226 139.611 305.118 139.656C305.009 139.7 304.893 139.722 304.776 139.722H271.442C271.206 139.722 270.979 139.628 270.812 139.462C270.645 139.295 270.55 139.069 270.549 138.833V127.426C270.55 127.189 270.644 126.962 270.811 126.794C270.979 126.626 271.205 126.531 271.442 126.529H304.763C305.001 126.53 305.228 126.625 305.396 126.793C305.564 126.961 305.659 127.188 305.66 127.426L305.673 138.833ZM305.673 109.424C305.673 109.542 305.651 109.659 305.606 109.768C305.561 109.877 305.495 109.976 305.411 110.059C305.328 110.143 305.229 110.209 305.12 110.254C305.011 110.299 304.894 110.321 304.776 110.321H271.442C271.205 110.32 270.978 110.225 270.81 110.057C270.643 109.888 270.549 109.661 270.549 109.424V98.0247C270.549 97.7875 270.643 97.56 270.81 97.3919C270.978 97.2237 271.205 97.1287 271.442 97.1276H304.763C304.881 97.127 304.998 97.1499 305.107 97.1947C305.216 97.2396 305.315 97.3057 305.399 97.3891C305.482 97.4725 305.548 97.5717 305.593 97.6808C305.638 97.7899 305.661 97.9068 305.66 98.0247L305.673 109.424ZM384.675 285.834C384.673 286.071 384.577 286.297 384.409 286.463C384.241 286.629 384.014 286.723 383.778 286.723H350.444C350.327 286.723 350.211 286.701 350.102 286.656C349.994 286.612 349.895 286.547 349.811 286.464C349.728 286.382 349.662 286.284 349.617 286.175C349.571 286.067 349.548 285.951 349.547 285.834V274.452C349.547 274.214 349.641 273.986 349.81 273.818C349.978 273.649 350.206 273.555 350.444 273.555H383.765C383.884 273.554 384.002 273.576 384.112 273.621C384.222 273.665 384.322 273.731 384.407 273.814C384.491 273.898 384.558 273.997 384.604 274.106C384.651 274.216 384.675 274.333 384.675 274.452V285.834ZM384.675 256.425C384.675 256.662 384.581 256.891 384.412 257.059C384.244 257.227 384.016 257.322 383.778 257.322H350.444C350.326 257.322 350.209 257.299 350.1 257.255C349.991 257.21 349.892 257.144 349.808 257.06C349.725 256.977 349.659 256.878 349.614 256.769C349.569 256.659 349.546 256.543 349.547 256.425V245.051C349.546 244.933 349.569 244.816 349.614 244.707C349.659 244.598 349.725 244.499 349.808 244.415C349.892 244.332 349.991 244.266 350.1 244.221C350.209 244.176 350.326 244.153 350.444 244.154H383.765C384.003 244.154 384.231 244.248 384.4 244.417C384.568 244.585 384.662 244.813 384.662 245.051L384.675 256.425ZM384.675 227.024C384.674 227.261 384.579 227.488 384.411 227.655C384.243 227.822 384.015 227.916 383.778 227.916H350.444C350.207 227.916 349.979 227.822 349.811 227.655C349.643 227.488 349.548 227.261 349.547 227.024V215.65C349.547 215.412 349.641 215.184 349.81 215.016C349.978 214.847 350.206 214.753 350.444 214.753H383.765C383.884 214.752 384.002 214.774 384.112 214.819C384.222 214.863 384.322 214.929 384.407 215.012C384.491 215.096 384.558 215.195 384.604 215.304C384.651 215.414 384.675 215.531 384.675 215.65V227.024ZM384.675 197.614C384.675 197.732 384.652 197.848 384.607 197.957C384.562 198.065 384.495 198.164 384.412 198.247C384.329 198.33 384.23 198.396 384.121 198.44C384.012 198.485 383.896 198.507 383.778 198.507H350.444C350.326 198.507 350.21 198.485 350.101 198.44C349.992 198.396 349.893 198.33 349.81 198.247C349.727 198.164 349.66 198.065 349.615 197.957C349.57 197.848 349.547 197.732 349.547 197.614V186.236C349.547 186.119 349.57 186.002 349.615 185.894C349.66 185.785 349.727 185.686 349.81 185.603C349.893 185.52 349.992 185.455 350.101 185.41C350.21 185.366 350.326 185.343 350.444 185.343H383.765C383.883 185.343 383.999 185.366 384.108 185.41C384.217 185.455 384.316 185.52 384.399 185.603C384.483 185.686 384.549 185.785 384.594 185.894C384.639 186.002 384.662 186.119 384.662 186.236L384.675 197.614ZM384.675 168.209C384.674 168.446 384.579 168.674 384.411 168.842C384.243 169.01 384.016 169.105 383.778 169.106H350.444C350.206 169.106 349.978 169.011 349.81 168.843C349.641 168.675 349.547 168.447 349.547 168.209V156.827C349.548 156.71 349.571 156.594 349.617 156.485C349.662 156.377 349.728 156.279 349.811 156.197C349.895 156.114 349.994 156.049 350.102 156.004C350.211 155.96 350.327 155.938 350.444 155.938H383.765C384.002 155.938 384.229 156.031 384.397 156.198C384.565 156.364 384.66 156.59 384.662 156.827L384.675 168.209ZM384.675 138.808C384.673 139.044 384.577 139.27 384.409 139.437C384.241 139.603 384.014 139.696 383.778 139.696H350.444C350.327 139.697 350.211 139.674 350.102 139.63C349.994 139.586 349.895 139.52 349.811 139.438C349.728 139.355 349.662 139.257 349.617 139.149C349.571 139.041 349.548 138.925 349.547 138.808V127.426C349.548 127.188 349.643 126.961 349.811 126.793C349.979 126.625 350.206 126.53 350.444 126.529H383.765C383.884 126.528 384.002 126.55 384.112 126.594C384.222 126.639 384.322 126.705 384.407 126.788C384.491 126.871 384.558 126.971 384.604 127.08C384.651 127.19 384.675 127.307 384.675 127.426V138.808ZM384.675 109.398C384.675 109.636 384.581 109.864 384.412 110.033C384.244 110.201 384.016 110.295 383.778 110.295H350.444C350.326 110.296 350.209 110.273 350.1 110.228C349.991 110.183 349.892 110.117 349.808 110.034C349.725 109.95 349.659 109.851 349.614 109.742C349.569 109.633 349.546 109.516 349.547 109.398V98.0247C349.546 97.9068 349.569 97.7899 349.614 97.6808C349.659 97.5717 349.725 97.4725 349.808 97.3891C349.892 97.3057 349.991 97.2396 350.1 97.1947C350.209 97.1499 350.326 97.127 350.444 97.1276H383.765C384.003 97.1276 384.231 97.2221 384.4 97.3904C384.568 97.5586 384.662 97.7868 384.662 98.0247L384.675 109.398Z" fill="#C1F5F5"/>
<path d="M176.904 16.0079L169.617 20.6424L174.039 12.6065C172.787 11.6053 171.237 11.0515 169.634 11.0334H169.519C169.012 11.0403 168.506 11.0019 168.005 10.9186L165.535 12.4832L166.594 10.5614C164.845 9.94931 163.334 8.80241 162.274 7.28329L157.856 10.0852L160.65 5.00859C158.065 1.90479 154.587 0 150.76 0C146.164 0 142.07 2.73389 139.429 6.98992C138.648 8.26473 137.544 9.31001 136.228 10.0195C134.912 10.729 133.432 11.0773 131.938 11.0291H131.691C126.619 11.0291 122.503 16.7818 122.503 23.878C122.503 30.9742 126.619 36.7268 131.691 36.7268C132.806 36.7224 133.904 36.4466 134.888 35.9232C138.2 34.2225 142.542 34.1715 146.007 35.7064C147.493 36.3754 149.103 36.7232 150.732 36.7268C152.362 36.7305 153.974 36.39 155.463 35.7277C158.898 34.2225 163.197 34.2565 166.483 35.9402C167.459 36.4538 168.544 36.7237 169.647 36.7268C174.719 36.7268 178.835 30.9742 178.835 23.878C178.862 21.1342 178.198 18.4276 176.904 16.0079Z" fill="#A9D5FC"/>
<path opacity="0.03" d="M163.171 34.8223C160.522 34.3179 157.782 34.614 155.301 35.6726C153.814 36.3356 152.204 36.6783 150.575 36.6783C148.947 36.6783 147.337 36.3356 145.85 35.6726C142.384 34.1335 138.039 34.1675 134.731 35.8895C133.745 36.4116 132.646 36.6859 131.53 36.6888C127.023 36.6888 123.277 32.1479 122.495 26.1614C123.395 25.5046 124.16 24.6803 124.748 23.7337C127.388 19.4819 131.483 16.7395 136.079 16.7395C140.675 16.7395 144.719 19.4096 147.359 23.6359C148.146 24.9089 149.25 25.9568 150.562 26.6779C151.873 27.3991 153.349 27.7689 154.846 27.7516H154.961C158.554 27.7473 161.662 30.6258 163.171 34.8223Z" fill="black"/>
<path d="M427.049 47.8071L421.913 51.064L425.029 45.3964C424.147 44.6915 423.055 44.301 421.925 44.2866H421.844C421.487 44.2899 421.13 44.2628 420.777 44.2059L419.038 45.3113L419.782 43.955C418.55 43.5227 417.485 42.7135 416.738 41.642L413.626 43.6446L415.59 40.0646C413.77 37.8792 411.338 36.5399 408.613 36.5399C405.373 36.5399 402.49 38.466 400.628 41.4677C400.078 42.3669 399.3 43.1039 398.372 43.6037C397.444 44.1034 396.401 44.3479 395.347 44.3122H395.173C391.597 44.3122 388.702 48.3684 388.702 53.3684C388.702 58.3685 391.597 62.4247 395.173 62.4247C395.96 62.4215 396.735 62.2275 397.431 61.8592C398.648 61.2685 399.979 60.9488 401.332 60.9224C402.685 60.896 404.027 61.1634 405.267 61.7062C406.314 62.1743 407.449 62.4163 408.596 62.4163C409.743 62.4163 410.878 62.1743 411.925 61.7062C413.155 61.1729 414.485 60.9102 415.825 60.9359C417.165 60.9616 418.485 61.275 419.693 61.855C420.382 62.2148 421.148 62.4044 421.925 62.4077C425.501 62.4077 428.401 58.3515 428.401 53.3514C428.422 51.4192 427.957 49.5125 427.049 47.8071Z" fill="#A9D5FC"/>
<path opacity="0.03" d="M417.372 61.0772C415.51 60.7252 413.587 60.9338 411.844 61.6767C410.796 62.1462 409.661 62.389 408.513 62.389C407.365 62.389 406.23 62.1462 405.182 61.6767C403.942 61.1339 402.6 60.8665 401.247 60.893C399.894 60.9194 398.563 61.239 397.346 61.8298C396.651 62.198 395.878 62.3921 395.092 62.3953C391.916 62.3953 389.272 59.1937 388.715 54.9717C389.347 54.5117 389.886 53.9343 390.301 53.2709C392.163 50.2692 395.05 48.3431 398.29 48.3431C401.529 48.3431 404.378 50.2437 406.24 53.2157C406.796 54.112 407.574 54.8498 408.498 55.3578C409.423 55.8658 410.462 56.1267 411.517 56.1154H411.598C414.115 56.0729 416.304 58.101 417.372 61.0772Z" fill="black"/>
<path d="M362.826 17.284L359.233 19.5629L361.414 15.5833C360.796 15.0913 360.031 14.8191 359.241 14.8095H359.182C358.933 14.8147 358.684 14.7961 358.438 14.7542L357.218 15.528L357.741 14.5756C356.879 14.2759 356.134 13.7101 355.615 12.9599L353.434 14.3418L354.811 11.8375C354.231 11.0889 353.492 10.4788 352.647 10.0515C351.802 9.62422 350.872 9.39046 349.926 9.36719C347.655 9.36719 345.636 10.7193 344.335 12.8196C343.948 13.4481 343.403 13.9635 342.753 14.3136C342.104 14.6638 341.373 14.8363 340.636 14.8137H340.517C338.012 14.8137 335.984 17.6539 335.984 21.1531C335.984 24.6523 338.008 27.4882 340.512 27.4882C341.062 27.4859 341.604 27.3502 342.09 27.0928C342.941 26.6778 343.873 26.4534 344.82 26.435C345.768 26.4166 346.708 26.6049 347.575 26.9865C348.313 27.3156 349.113 27.4865 349.922 27.4882C350.72 27.4868 351.509 27.3188 352.239 26.995C353.1 26.6229 354.031 26.4398 354.969 26.4581C355.907 26.4764 356.831 26.6958 357.677 27.1013C358.16 27.3538 358.696 27.4865 359.241 27.4882C361.742 27.4882 363.774 24.6481 363.774 21.1489C363.785 19.8017 363.459 18.4731 362.826 17.284Z" fill="#A9D5FC"/>
<path opacity="0.03" d="M356.053 26.5396C354.744 26.2927 353.391 26.4407 352.167 26.9648C351.431 27.2931 350.634 27.4628 349.828 27.4628C349.022 27.4628 348.226 27.2931 347.49 26.9648C346.622 26.5853 345.682 26.3984 344.736 26.4167C343.789 26.4351 342.857 26.6583 342.005 27.0711C341.519 27.33 340.978 27.4657 340.427 27.4665C338.199 27.4665 336.35 25.2258 335.967 22.2708C336.412 21.9473 336.789 21.54 337.077 21.0718C338.382 18.9715 340.402 17.6237 342.668 17.6237C344.934 17.6237 346.92 18.9545 348.238 21.0251C348.626 21.6539 349.17 22.1715 349.818 22.5277C350.465 22.8838 351.194 23.0663 351.933 23.0574H351.988C353.774 23.0532 355.304 24.4733 356.053 26.5396Z" fill="black"/>
<path d="M115.653 329.39C116.529 327.774 115.538 325.793 114.378 324.347C113.217 322.902 111.848 321.405 111.878 319.564C111.92 316.924 114.722 315.363 116.98 313.964C118.643 312.924 120.177 311.691 121.55 310.291C122.125 309.751 122.6 309.115 122.954 308.411C123.417 307.378 123.404 306.205 123.379 305.074C123.28 301.304 123.092 297.537 122.817 293.773" stroke="#3F3D56" stroke-width="4" stroke-miterlimit="10"/>
<path d="M127.078 293.568C127.045 292.878 126.84 292.207 126.48 291.617C126.121 291.027 125.619 290.537 125.02 290.192L124.097 292.016L124.127 289.809C123.289 289.562 122.395 289.588 121.572 289.883C120.75 290.178 120.043 290.726 119.553 291.449C119.062 292.172 118.814 293.032 118.845 293.905C118.875 294.778 119.182 295.618 119.722 296.305C120.261 296.992 121.005 297.49 121.846 297.727C122.686 297.964 123.581 297.927 124.399 297.623C125.218 297.318 125.919 296.761 126.4 296.032C126.881 295.303 127.119 294.44 127.078 293.568Z" fill="#57B894"/>
<path d="M119.722 321.455C119.307 322.263 118.636 322.912 117.814 323.299C116.992 323.687 116.065 323.792 115.178 323.598C114.29 323.404 113.491 322.921 112.906 322.226C112.321 321.531 111.982 320.662 111.941 319.754C111.916 319.185 112.007 318.616 112.209 318.083C112.51 317.302 113.042 316.631 113.733 316.16C114.425 315.688 115.243 315.438 116.08 315.442C116.917 315.447 117.733 315.706 118.419 316.186C119.106 316.665 119.63 317.342 119.922 318.126L117.35 320.222L120.177 319.567C120.18 320.224 120.024 320.872 119.722 321.455Z" fill="#57B894"/>
<path d="M117.694 313.453C117.154 313.478 116.613 313.397 116.104 313.213C115.595 313.03 115.128 312.748 114.728 312.383C114.328 312.019 114.003 311.579 113.773 311.089C113.543 310.6 113.412 310.069 113.387 309.529C113.356 308.884 113.478 308.242 113.744 307.654C113.991 307.103 114.356 306.613 114.813 306.218C115.27 305.824 115.808 305.535 116.389 305.371V307.071L117.32 305.226C117.86 305.201 118.4 305.283 118.909 305.466C119.418 305.65 119.886 305.932 120.286 306.296C120.686 306.661 121.01 307.1 121.24 307.59C121.47 308.08 121.602 308.61 121.627 309.151C121.652 309.625 121.593 310.1 121.453 310.554C121.201 311.365 120.705 312.079 120.032 312.598C119.36 313.117 118.543 313.416 117.694 313.453Z" fill="#57B894"/>
<path d="M127.698 306.799C127.059 306.833 126.421 306.718 125.834 306.463C125.247 306.208 124.728 305.82 124.317 305.329C123.906 304.838 123.615 304.259 123.467 303.636C123.319 303.014 123.317 302.365 123.463 301.742C123.609 301.119 123.897 300.538 124.306 300.046C124.715 299.554 125.233 299.163 125.818 298.906C126.404 298.648 127.042 298.53 127.681 298.562C128.32 298.593 128.943 298.773 129.501 299.087L128.774 301.085L130.271 299.643C130.668 300.007 130.991 300.445 131.219 300.933C131.447 301.421 131.577 301.95 131.602 302.488C131.622 302.869 131.587 303.252 131.5 303.623C131.296 304.493 130.815 305.273 130.13 305.846C129.444 306.419 128.591 306.754 127.698 306.799Z" fill="#57B894"/>
<path opacity="0.1" d="M126.525 294.665C125.573 294.772 124.65 295.065 123.693 295.125C122.737 295.184 121.691 294.954 121.087 294.215C120.806 293.783 120.552 293.334 120.326 292.871C120.066 292.466 119.709 292.132 119.289 291.897C119.023 292.42 118.871 292.993 118.845 293.578C118.818 294.163 118.916 294.748 119.134 295.292C119.351 295.836 119.681 296.328 120.103 296.734C120.526 297.141 121.03 297.452 121.582 297.648C122.134 297.845 122.722 297.921 123.306 297.871C123.89 297.822 124.456 297.649 124.968 297.364C125.48 297.078 125.925 296.687 126.273 296.215C126.622 295.744 126.865 295.204 126.988 294.631C126.835 294.64 126.678 294.648 126.525 294.665Z" fill="black"/>
<path opacity="0.1" d="M127.699 306.8C126.988 306.832 126.281 306.681 125.646 306.36C125.012 306.039 124.471 305.559 124.076 304.968C123.682 304.376 123.447 303.692 123.395 302.983C123.343 302.273 123.475 301.563 123.778 300.919C124.107 301.147 124.389 301.435 124.607 301.77C124.853 302.239 125.126 302.693 125.424 303.13C126.066 303.883 127.163 304.13 128.158 304.087C129.153 304.044 130.109 303.755 131.1 303.662C131.236 303.662 131.376 303.662 131.525 303.636C131.318 304.508 130.832 305.288 130.142 305.859C129.451 306.43 128.594 306.76 127.699 306.8Z" fill="black"/>
<path opacity="0.1" d="M117.694 313.453C117.154 313.478 116.613 313.397 116.104 313.213C115.595 313.03 115.128 312.748 114.728 312.383C114.328 312.019 114.003 311.579 113.773 311.089C113.543 310.6 113.412 310.069 113.387 309.529C113.356 308.884 113.478 308.242 113.744 307.654C114.083 307.883 114.379 308.171 114.616 308.504C114.886 308.983 115.184 309.446 115.509 309.89C116.202 310.668 117.371 310.94 118.425 310.915C119.48 310.889 120.428 310.643 121.444 310.562C121.192 311.371 120.696 312.082 120.025 312.599C119.354 313.117 118.54 313.415 117.694 313.453Z" fill="black"/>
<path opacity="0.1" d="M119.722 321.456C119.307 322.264 118.636 322.912 117.814 323.3C116.992 323.687 116.065 323.792 115.178 323.598C114.29 323.404 113.491 322.922 112.906 322.227C112.321 321.532 111.982 320.663 111.941 319.755C111.916 319.186 112.007 318.617 112.209 318.084C112.55 318.306 112.855 318.579 113.115 318.892C113.456 319.399 113.823 319.887 114.216 320.355C115.066 321.179 116.419 321.524 117.618 321.554C118.32 321.562 119.023 321.53 119.722 321.456Z" fill="black"/>
<path d="M109.441 328.701C109.441 328.701 112.694 327.425 113.693 326.732C114.692 326.039 118.698 325.197 118.94 326.307C119.182 327.417 123.804 331.885 120.147 331.915C116.491 331.945 111.614 332.519 110.636 331.915C109.658 331.311 109.441 328.701 109.441 328.701Z" fill="#656380"/>
<path opacity="0.2" d="M120.198 331.524C116.529 331.553 111.669 332.127 110.691 331.524C109.947 331.069 109.65 329.44 109.548 328.688H109.441C109.441 328.688 109.645 331.311 110.623 331.906C111.601 332.501 116.461 331.932 120.135 331.906C121.193 331.906 121.559 331.519 121.542 330.962C121.393 331.307 120.998 331.519 120.198 331.524Z" fill="black"/>
<path d="M342.591 329.619C342.005 328.534 342.672 327.204 343.442 326.217C344.211 325.231 345.142 324.24 345.117 323.003C345.091 321.23 343.208 320.184 341.715 319.244C340.601 318.545 339.572 317.718 338.65 316.778C338.263 316.412 337.943 315.98 337.706 315.503C337.447 314.785 337.35 314.018 337.421 313.258C337.489 310.727 337.615 308.198 337.8 305.673" stroke="#3F3D56" stroke-width="4" stroke-miterlimit="10"/>
<path d="M334.921 305.553C334.943 305.09 335.081 304.64 335.323 304.244C335.564 303.848 335.901 303.519 336.303 303.287L336.924 304.511L336.903 303.028C337.199 302.94 337.508 302.904 337.817 302.921C338.364 302.947 338.891 303.135 339.331 303.46C339.771 303.785 340.105 304.234 340.291 304.749C340.476 305.265 340.504 305.823 340.372 306.355C340.24 306.886 339.953 307.366 339.548 307.734C339.143 308.103 338.637 308.342 338.096 308.424C337.554 308.505 337.001 308.423 336.506 308.19C336.01 307.956 335.596 307.581 335.313 307.112C335.031 306.642 334.895 306.1 334.921 305.553Z" fill="#57B894"/>
<path d="M339.858 324.291C340.148 324.854 340.624 325.3 341.205 325.554C341.786 325.809 342.436 325.855 343.047 325.687C343.658 325.519 344.193 325.145 344.562 324.63C344.93 324.114 345.11 323.487 345.072 322.854C345.033 322.222 344.778 321.621 344.349 321.154C343.921 320.687 343.345 320.382 342.718 320.289C342.09 320.196 341.451 320.322 340.905 320.645C340.36 320.968 339.942 321.468 339.722 322.063L341.452 323.466L339.547 323.041C339.551 323.476 339.657 323.904 339.858 324.291Z" fill="#57B894"/>
<path d="M341.239 318.917C341.602 318.934 341.965 318.879 342.307 318.756C342.649 318.633 342.963 318.443 343.232 318.198C343.5 317.953 343.718 317.658 343.872 317.329C344.026 317 344.114 316.644 344.13 316.28C344.155 315.842 344.074 315.405 343.892 315.005C343.727 314.635 343.482 314.306 343.175 314.041C342.868 313.776 342.506 313.583 342.115 313.474V314.614L341.486 313.372C340.753 313.339 340.036 313.598 339.493 314.092C338.95 314.586 338.626 315.275 338.59 316.008C338.578 316.327 338.618 316.646 338.709 316.952C338.875 317.502 339.208 317.986 339.661 318.338C340.115 318.689 340.666 318.892 341.239 318.917Z" fill="#57B894"/>
<path d="M334.505 314.449C334.933 314.469 335.36 314.389 335.752 314.216C336.144 314.043 336.491 313.781 336.764 313.452C337.038 313.122 337.232 312.733 337.329 312.316C337.427 311.898 337.427 311.464 337.328 311.047C337.23 310.63 337.035 310.241 336.761 309.912C336.487 309.583 336.14 309.321 335.747 309.149C335.355 308.977 334.927 308.898 334.499 308.919C334.071 308.94 333.654 309.06 333.28 309.27L333.769 310.609L332.766 309.644C332.227 310.137 331.906 310.824 331.873 311.553C331.859 311.81 331.882 312.068 331.941 312.318C332.079 312.904 332.403 313.428 332.866 313.813C333.329 314.197 333.904 314.42 334.505 314.449Z" fill="#57B894"/>
<path opacity="0.1" d="M335.287 306.302C335.925 306.37 336.563 306.57 337.188 306.608C337.509 306.649 337.836 306.613 338.141 306.504C338.446 306.394 338.721 306.215 338.944 305.979C339.132 305.688 339.303 305.387 339.458 305.077C339.632 304.806 339.87 304.581 340.151 304.423C340.371 304.849 340.474 305.326 340.449 305.804C340.415 306.474 340.139 307.108 339.673 307.59C339.207 308.072 338.582 308.368 337.914 308.424C337.246 308.479 336.58 308.29 336.041 307.892C335.501 307.494 335.125 306.914 334.981 306.259C335.087 306.281 335.189 306.289 335.287 306.302Z" fill="black"/>
<path opacity="0.1" d="M334.505 314.449C334.982 314.472 335.457 314.371 335.884 314.156C336.31 313.941 336.674 313.62 336.939 313.222C337.204 312.825 337.362 312.365 337.396 311.889C337.431 311.412 337.341 310.935 337.136 310.503C336.908 310.655 336.713 310.852 336.563 311.081C336.4 311.398 336.216 311.703 336.014 311.996C335.776 312.232 335.487 312.413 335.17 312.524C334.853 312.635 334.515 312.674 334.182 312.638C333.514 312.608 332.868 312.416 332.204 312.357C332.111 312.357 332.017 312.357 331.924 312.357C332.07 312.938 332.4 313.456 332.866 313.833C333.331 314.21 333.906 314.426 334.505 314.449Z" fill="black"/>
<path opacity="0.1" d="M341.239 318.917C341.602 318.934 341.965 318.879 342.307 318.756C342.649 318.633 342.963 318.443 343.232 318.199C343.5 317.954 343.718 317.658 343.872 317.329C344.026 317 344.114 316.644 344.131 316.281C344.155 315.843 344.074 315.405 343.893 315.005C343.666 315.155 343.468 315.345 343.31 315.566C343.128 315.89 342.927 316.203 342.706 316.502C342.446 316.746 342.138 316.934 341.801 317.052C341.464 317.17 341.106 317.215 340.75 317.186C340.062 317.186 339.403 317.004 338.722 316.953C338.888 317.5 339.218 317.983 339.669 318.334C340.12 318.686 340.668 318.889 341.239 318.917Z" fill="black"/>
<path opacity="0.1" d="M339.858 324.291C340.185 324.914 340.738 325.389 341.403 325.62C342.068 325.85 342.797 325.818 343.439 325.53C344.082 325.243 344.591 324.721 344.862 324.071C345.134 323.421 345.147 322.693 344.9 322.033C344.672 322.182 344.467 322.364 344.292 322.573C344.064 322.914 343.817 323.242 343.552 323.555C342.911 324.093 342.097 324.38 341.261 324.363C340.792 324.365 340.324 324.341 339.858 324.291Z" fill="black"/>
<path d="M346.767 328.862C346.767 328.862 344.581 328.301 343.922 327.833C343.263 327.366 340.563 326.804 340.402 327.557C340.24 328.31 337.119 331.294 339.585 331.316C342.051 331.337 345.313 331.426 345.963 331.026C346.614 330.627 346.767 328.862 346.767 328.862Z" fill="#656380"/>
<path opacity="0.2" d="M339.539 331.064C342.005 331.064 345.27 331.175 345.916 330.775C346.418 330.473 346.618 329.376 346.682 328.875H346.767C346.767 328.875 346.626 330.639 345.972 331.039C345.317 331.438 342.051 331.345 339.594 331.328C338.88 331.328 338.637 331.068 338.65 330.694C338.739 330.907 339.011 331.064 339.539 331.064Z" fill="black"/>
<path d="M47.3844 327.441C62.3673 327.441 74.5134 302.659 74.5134 272.087C74.5134 241.516 62.3673 216.733 47.3844 216.733C32.4015 216.733 20.2555 241.516 20.2555 272.087C20.2555 302.659 32.4015 327.441 47.3844 327.441Z" fill="#0388FF"/>
<path d="M50.4061 362.607C39.5552 297.503 50.2967 232.635 50.4064 231.988L51.487 232.171C51.3775 232.817 40.6676 297.51 51.4872 362.427L50.4061 362.607Z" fill="#3F3D56"/>
<path d="M71.5163 260.646L46.9838 273.768L47.5008 274.735L72.0333 261.613L71.5163 260.646Z" fill="#3F3D56"/>
<path d="M21.6103 267.22L21.093 268.186L45.6219 281.315L46.1392 280.349L21.6103 267.22Z" fill="#3F3D56"/>
<rect x="191.414" y="126.597" width="139.763" height="42.5365" fill="#F8F8F8"/>
<path d="M205.475 136.317C204.398 136.317 203.7 136.611 203.382 137.2C203.088 137.788 202.941 138.499 202.941 139.333V148.858C202.941 150.77 203.15 152.462 203.566 153.933C204.006 155.404 204.729 156.569 205.732 157.427C206.761 158.26 208.168 158.69 209.956 158.714C212.404 158.739 214.216 157.929 215.391 156.287C216.566 154.62 217.166 152.376 217.19 149.557L217.264 139.443C217.264 138.904 217.264 138.389 217.264 137.898C217.288 137.384 217.325 136.942 217.374 136.574C216.933 136.599 216.468 136.624 215.978 136.648C215.513 136.673 215.085 136.697 214.693 136.722V134.699H222.111V136.317C221.303 136.342 220.716 136.513 220.348 136.832C219.981 137.126 219.749 137.567 219.651 138.156C219.553 138.744 219.504 139.492 219.504 140.399L219.467 149.152C219.467 151.506 219.1 153.578 218.365 155.367C217.655 157.157 216.566 158.555 215.097 159.56C213.628 160.541 211.743 161.031 209.442 161.031C206.797 161.031 204.716 160.553 203.198 159.597C201.681 158.64 200.603 157.231 199.967 155.367C199.33 153.479 199.012 151.187 199.012 148.49V140.546C199.012 139.884 199.024 139.173 199.049 138.413C199.098 137.629 199.134 137.016 199.159 136.574C198.743 136.599 198.29 136.624 197.8 136.648C197.31 136.673 196.87 136.685 196.478 136.685V134.699H205.475V136.317ZM223.87 160.443V158.824C224.873 158.604 225.718 158.15 226.404 157.464C227.114 156.753 227.885 155.784 228.717 154.558L233.344 148.122C231.875 146.112 230.651 144.457 229.672 143.157C228.717 141.858 227.897 140.742 227.212 139.811C226.771 139.173 226.416 138.609 226.147 138.119C225.902 137.629 225.681 137.138 225.486 136.648C225.118 136.648 224.776 136.66 224.457 136.685C224.139 136.685 223.833 136.697 223.539 136.722V134.699H233.601V136.317L232.39 136.354C231.533 136.378 230.994 136.538 230.774 136.832C230.553 137.102 230.529 137.445 230.7 137.862C230.872 138.278 231.116 138.72 231.435 139.186C231.9 139.921 232.488 140.792 233.197 141.797C233.932 142.777 234.715 143.832 235.548 144.96L238.816 140.252C239.404 139.443 239.942 138.72 240.432 138.082C240.922 137.42 241.35 136.918 241.717 136.574C241.252 136.599 240.75 136.624 240.212 136.648C239.673 136.673 239.183 136.697 238.743 136.722V134.699H246.345V136.317C245.292 136.464 244.313 137.004 243.407 137.935C242.501 138.867 241.632 139.921 240.799 141.098L236.833 146.651C238.106 148.318 239.33 149.924 240.506 151.469C241.705 153.014 242.684 154.289 243.443 155.294C243.884 155.833 244.3 156.373 244.692 156.912C245.084 157.451 245.451 157.979 245.794 158.493C246.161 158.469 246.491 158.457 246.785 158.457C247.079 158.432 247.385 158.42 247.704 158.42V160.443H238.045V158.824C238.975 158.849 239.587 158.739 239.881 158.493C240.175 158.224 240.261 157.88 240.138 157.464C240.016 157.047 239.796 156.63 239.477 156.213C238.89 155.429 238.167 154.509 237.311 153.455C236.478 152.376 235.585 151.175 234.63 149.851C234.042 150.684 233.455 151.53 232.867 152.388C232.279 153.247 231.704 154.105 231.141 154.963C230.676 155.625 230.235 156.25 229.819 156.838C229.403 157.427 228.95 158.003 228.46 158.567C228.925 158.542 229.415 158.518 229.929 158.493C230.443 158.469 230.921 158.444 231.361 158.42V160.443H223.87ZM268.71 142.643C268.686 140.534 268.331 138.965 267.645 137.935C266.96 136.905 265.748 136.391 264.009 136.391H261.365L261.329 155.514C261.329 156.176 261.316 156.777 261.292 157.317C261.267 157.831 261.243 158.248 261.218 158.567C261.684 158.542 262.185 158.518 262.724 158.493C263.287 158.444 263.789 158.42 264.23 158.42V160.443H254.902V158.824C255.685 158.8 256.248 158.64 256.591 158.346C256.958 158.028 257.191 157.574 257.289 156.986C257.387 156.373 257.436 155.625 257.436 154.742V136.427L254.351 136.464C252.858 136.464 251.768 136.967 251.083 137.972C250.397 138.977 250.054 140.534 250.054 142.643H248.328L248.549 134.699H270.216L270.436 142.643H268.71ZM282.356 151.671C282.233 150.519 281.829 149.624 281.144 148.987C280.47 148.349 279.601 148.03 278.536 148.03C277.667 148.03 276.878 148.276 276.168 148.766C275.458 149.244 274.888 149.924 274.46 150.807C274.044 151.69 273.836 152.732 273.836 153.933C273.836 155.085 274.056 156.103 274.497 156.986C274.937 157.868 275.531 158.555 276.278 159.045C277.024 159.535 277.851 159.781 278.757 159.781C279.552 159.781 280.336 159.603 281.107 159.247C281.878 158.88 282.509 158.352 282.998 157.666L283.476 158.052C282.949 158.775 282.38 159.333 281.768 159.725C281.156 160.118 280.544 160.381 279.932 160.516C279.332 160.663 278.781 160.737 278.279 160.737C277.361 160.737 276.516 160.571 275.745 160.24C274.986 159.909 274.325 159.45 273.762 158.861C273.211 158.26 272.783 157.568 272.477 156.783C272.183 155.986 272.036 155.128 272.036 154.209C272.036 153.339 272.165 152.493 272.422 151.671C272.691 150.85 273.089 150.108 273.615 149.446C274.142 148.784 274.803 148.257 275.598 147.865C276.406 147.473 277.343 147.276 278.408 147.276C279.754 147.276 280.991 147.65 282.117 148.398L282.025 147.405H283.017V151.671H282.356ZM287.244 160.443V159.836C287.709 159.811 288.027 159.707 288.199 159.523C288.37 159.327 288.462 159.063 288.474 158.732C288.499 158.389 288.511 158.003 288.511 157.574V149.63C288.511 149.115 288.529 148.674 288.566 148.306C288.346 148.318 288.125 148.331 287.905 148.343C287.685 148.355 287.464 148.368 287.244 148.38V147.571H291.375V148.178C290.922 148.19 290.604 148.294 290.42 148.49C290.249 148.686 290.151 148.95 290.127 149.281C290.114 149.612 290.108 149.998 290.108 150.439V158.328C290.108 158.965 290.09 159.443 290.053 159.762L293.487 159.707C294.258 159.695 294.84 159.45 295.231 158.971C295.635 158.493 295.837 157.715 295.837 156.636H296.462L296.351 160.443H287.244ZM299.247 160.443V159.836C299.615 159.836 299.896 159.738 300.092 159.542C300.288 159.345 300.447 159.076 300.569 158.732C300.704 158.389 300.857 157.991 301.029 157.537L304.811 147.221H305.252L309.346 157.684C309.444 157.942 309.555 158.273 309.677 158.677C309.799 159.082 309.848 159.425 309.824 159.707C310.032 159.695 310.24 159.682 310.448 159.67C310.656 159.658 310.864 159.646 311.072 159.633V160.443H306.868V159.836C307.333 159.823 307.639 159.719 307.786 159.523C307.933 159.327 307.988 159.094 307.951 158.824C307.914 158.555 307.853 158.309 307.767 158.089L307.125 156.36L302.351 156.471L301.708 158.438C301.622 158.732 301.543 158.965 301.469 159.137C301.408 159.309 301.335 159.499 301.249 159.707C301.494 159.695 301.732 159.682 301.965 159.67C302.21 159.658 302.449 159.646 302.681 159.633V160.443H299.247ZM302.626 155.68H306.868L305.564 152.168C305.429 151.788 305.288 151.414 305.142 151.046C305.007 150.666 304.872 150.286 304.738 149.906H304.701C304.578 150.249 304.45 150.593 304.315 150.936C304.193 151.279 304.064 151.628 303.93 151.984L302.626 155.68ZM324.109 160.737L316.783 150.881C316.673 150.733 316.563 150.593 316.452 150.458C316.355 150.311 316.251 150.163 316.14 150.016H316.122L316.177 157.887C316.177 158.193 316.177 158.5 316.177 158.806C316.177 159.112 316.165 159.413 316.14 159.707C316.361 159.695 316.581 159.682 316.801 159.67C317.022 159.658 317.242 159.646 317.462 159.633V160.443H314.102V159.836C314.482 159.836 314.751 159.756 314.91 159.597C315.081 159.425 315.192 159.229 315.241 159.008C315.29 158.775 315.314 158.567 315.314 158.383L315.332 149.538V148.306C315.137 148.318 314.935 148.331 314.726 148.343C314.518 148.355 314.31 148.368 314.102 148.38V147.571H316.287L323.173 156.802C323.332 157.01 323.485 157.218 323.632 157.427C323.791 157.635 323.95 157.844 324.109 158.052H324.128L324.146 149.63C324.146 149.115 324.164 148.674 324.201 148.306C323.981 148.318 323.761 148.331 323.54 148.343C323.32 148.355 323.099 148.368 322.879 148.38V147.571H326.258V148.178C325.805 148.19 325.493 148.294 325.321 148.49C325.15 148.686 325.058 148.95 325.046 149.281C325.034 149.612 325.027 149.998 325.027 150.439L324.991 160.737H324.109Z" fill="black"/>
<path d="M457.9 346.714C457.9 346.714 450.117 320.291 459.36 300.842C463.241 292.681 464.528 283.516 462.736 274.658C461.879 270.452 460.638 266.334 459.029 262.354" stroke="#535461" stroke-width="2" stroke-miterlimit="10"/>
<path d="M464.78 250.08C464.78 253.32 458.916 262.698 458.916 262.698C458.916 262.698 453.051 253.307 453.051 250.08C453.033 249.298 453.171 248.521 453.458 247.794C453.744 247.067 454.173 246.404 454.719 245.845C455.266 245.286 455.918 244.842 456.638 244.539C457.359 244.235 458.132 244.079 458.914 244.079C459.696 244.079 460.469 244.235 461.19 244.539C461.91 244.842 462.562 245.286 463.109 245.845C463.655 246.404 464.084 247.067 464.37 247.794C464.657 248.521 464.795 249.298 464.777 250.08H464.78Z" fill="#0388FF"/>
<path d="M474.471 268.018C472.711 270.737 462.685 275.432 462.685 275.432C462.685 275.432 462.868 264.362 464.629 261.642C465.037 260.975 465.575 260.396 466.211 259.94C466.847 259.484 467.568 259.16 468.331 258.986C469.094 258.813 469.884 258.794 470.655 258.931C471.425 259.067 472.16 259.357 472.817 259.782C473.474 260.207 474.039 260.76 474.479 261.407C474.92 262.054 475.226 262.783 475.38 263.55C475.534 264.317 475.533 265.107 475.377 265.874C475.221 266.641 474.913 267.369 474.471 268.015V268.018Z" fill="#0388FF"/>
<path d="M474.049 298.672C471.156 300.129 460.133 299.123 460.133 299.123C460.133 299.123 465.878 289.659 468.771 288.201C470.155 287.537 471.744 287.443 473.197 287.937C474.651 288.432 475.852 289.477 476.543 290.848C477.234 292.219 477.361 293.806 476.895 295.269C476.429 296.731 475.408 297.953 474.052 298.672H474.049Z" fill="#0388FF"/>
<path d="M468.506 321.792C465.903 323.716 454.865 324.587 454.865 324.587C454.865 324.587 458.928 314.29 461.531 312.363C462.782 311.452 464.342 311.074 465.872 311.309C467.401 311.544 468.775 312.374 469.695 313.618C470.616 314.862 471.007 316.419 470.784 317.95C470.561 319.481 469.742 320.862 468.506 321.792Z" fill="#0388FF"/>
<path d="M450.373 276.049C452.694 278.305 463.518 280.643 463.518 280.643C463.518 280.643 460.868 269.895 458.546 267.636C457.431 266.552 455.93 265.956 454.375 265.978C452.819 266.001 451.337 266.64 450.253 267.756C449.169 268.871 448.572 270.372 448.595 271.927C448.617 273.483 449.257 274.965 450.373 276.049Z" fill="#0388FF"/>
<path d="M444.246 303.179C447.139 304.637 458.162 303.63 458.162 303.63C458.162 303.63 452.417 294.166 449.524 292.709C448.141 292.055 446.557 291.968 445.111 292.465C443.664 292.962 442.469 294.005 441.781 295.371C441.092 296.737 440.964 298.318 441.425 299.777C441.886 301.235 442.898 302.456 444.246 303.179Z" fill="#0388FF"/>
<path d="M441.883 330.36C444.486 332.285 455.524 333.155 455.524 333.155C455.524 333.155 451.461 322.858 448.858 320.931C447.607 320.021 446.047 319.642 444.518 319.877C442.988 320.112 441.614 320.942 440.694 322.186C439.774 323.43 439.382 324.987 439.605 326.518C439.828 328.049 440.647 329.43 441.883 330.36Z" fill="#0388FF"/>
<path d="M425.849 346.229C425.849 346.229 420.015 326.429 426.944 311.848C429.889 305.753 430.777 298.867 429.474 292.224C428.832 289.076 427.903 285.994 426.698 283.016" stroke="#535461" stroke-width="2" stroke-miterlimit="10"/>
<path d="M431.005 273.798C431.005 276.227 426.606 283.262 426.606 283.262C426.606 283.262 422.206 276.223 422.206 273.798C422.206 272.631 422.669 271.512 423.494 270.687C424.32 269.862 425.439 269.398 426.606 269.398C427.772 269.398 428.892 269.862 429.717 270.687C430.542 271.512 431.005 272.631 431.005 273.798Z" fill="#0388FF"/>
<path d="M438.27 287.245C436.95 289.282 429.435 292.802 429.435 292.802C429.435 292.802 429.571 284.504 430.891 282.466C431.191 281.953 431.592 281.506 432.07 281.152C432.548 280.798 433.093 280.545 433.671 280.407C434.25 280.27 434.85 280.251 435.436 280.352C436.022 280.453 436.581 280.671 437.081 280.994C437.58 281.318 438.008 281.739 438.34 282.232C438.672 282.726 438.9 283.281 439.011 283.865C439.123 284.45 439.114 285.05 438.987 285.631C438.859 286.212 438.615 286.761 438.27 287.245Z" fill="#0388FF"/>
<path d="M437.953 310.217C435.784 311.308 427.521 310.555 427.521 310.555C427.521 310.555 431.828 303.463 433.993 302.372C435.027 301.905 436.201 301.855 437.27 302.233C438.34 302.61 439.222 303.387 439.733 304.399C440.244 305.412 440.344 306.583 440.012 307.668C439.681 308.752 438.943 309.667 437.953 310.221V310.217Z" fill="#0388FF"/>
<path d="M433.795 327.547C431.841 328.991 423.57 329.642 423.57 329.642C423.57 329.642 426.614 321.924 428.568 320.481C429.508 319.854 430.653 319.613 431.766 319.807C432.879 320.001 433.875 320.616 434.547 321.525C435.219 322.433 435.516 323.565 435.376 324.687C435.236 325.808 434.67 326.832 433.795 327.547Z" fill="#0388FF"/>
<path d="M420.208 293.272C421.968 294.962 430.059 296.717 430.059 296.717C430.059 296.717 428.075 288.661 426.333 286.972C425.926 286.537 425.435 286.19 424.89 285.951C424.345 285.712 423.757 285.586 423.162 285.58C422.566 285.575 421.976 285.69 421.427 285.92C420.878 286.149 420.381 286.487 419.966 286.914C419.551 287.341 419.227 287.848 419.014 288.404C418.801 288.959 418.703 289.552 418.725 290.147C418.748 290.742 418.891 291.326 419.146 291.864C419.401 292.402 419.762 292.882 420.208 293.277V293.272Z" fill="#0388FF"/>
<path d="M415.606 313.599C417.775 314.69 426.038 313.938 426.038 313.938C426.038 313.938 421.73 306.845 419.566 305.754C418.532 305.287 417.358 305.237 416.288 305.615C415.219 305.993 414.336 306.769 413.826 307.782C413.315 308.795 413.215 309.965 413.546 311.05C413.878 312.135 414.616 313.05 415.606 313.603V313.599Z" fill="#0388FF"/>
<path d="M413.846 333.976C415.799 335.419 424.071 336.07 424.071 336.07C424.071 336.07 421.009 328.348 419.073 326.905C418.133 326.266 416.982 326.015 415.861 326.206C414.74 326.396 413.737 327.014 413.061 327.928C412.385 328.842 412.089 329.982 412.235 331.11C412.382 332.237 412.959 333.264 413.846 333.976Z" fill="#0388FF"/>
<path d="M384.654 268.746C383.027 263.916 377.792 261.319 372.963 262.945C368.134 264.572 365.538 269.807 367.165 274.637L370.863 285.618C372.491 290.448 377.725 293.045 382.554 291.419C387.383 289.792 389.979 284.557 388.352 279.727L384.654 268.746Z" fill="#4D3A3C"/>
<path d="M373.228 274.706C373.228 274.706 376.655 279.626 373.228 280.911C369.8 282.195 368.5 285.835 368.5 285.835C368.5 285.835 367.429 290.117 369.785 290.956C372.14 291.795 381.13 286.891 382.415 285.606C383.699 284.322 382.415 280.879 382.415 280.879C382.415 280.879 378.991 276.152 379.204 273.173C379.417 270.195 373.228 274.706 373.228 274.706Z" fill="#FFCEBE"/>
<path opacity="0.1" d="M373.228 274.706C373.228 274.706 376.655 279.626 373.228 280.911C369.8 282.195 368.5 285.835 368.5 285.835C368.5 285.835 367.429 290.117 369.785 290.956C372.14 291.795 381.13 286.891 382.415 285.606C383.699 284.322 382.415 280.879 382.415 280.879C382.415 280.879 378.991 276.152 379.204 273.173C379.417 270.195 373.228 274.706 373.228 274.706Z" fill="#FEFEFE"/>
<path d="M382.434 312.807C382.434 312.807 390.14 328.865 392.713 329.936C395.285 331.008 402.132 330.362 399.989 336.358C397.846 342.354 395.707 339.568 397.625 343.843C399.544 348.117 407.261 354.334 401.052 351.761C394.844 349.189 387.564 343.201 383.498 344.055C379.432 344.91 369.229 341.467 366.952 341.904C364.675 342.342 365.522 332.497 365.522 332.497L371.943 323.078L382.434 312.807Z" fill="#1E2037"/>
<path d="M374.941 329.296C374.941 329.296 371.719 341.056 373.444 342.781C373.657 342.994 379.436 344.495 383.293 348.777C385.643 351.372 388.479 353.481 391.641 354.986L388.213 358.622C388.213 358.622 380.728 352.63 376.001 351.558C371.273 350.487 366.369 346.831 366.369 345.566C366.369 344.302 369.579 328.232 369.579 328.232L374.941 329.296Z" fill="#FFCEBE"/>
<path opacity="0.1" d="M374.941 329.296C374.941 329.296 371.719 341.056 373.444 342.781C373.657 342.994 379.436 344.495 383.293 348.777C385.643 351.372 388.479 353.481 391.641 354.986L388.213 358.622C388.213 358.622 380.728 352.63 376.001 351.558C371.273 350.487 366.369 346.831 366.369 345.566C366.369 344.302 369.579 328.232 369.579 328.232L374.941 329.296Z" fill="#E3B799"/>
<path d="M388.859 352.629C388.859 352.629 390.786 351.345 392.074 353.058C393.362 354.772 398.921 357.337 398.921 357.337C398.921 357.337 401.493 357.337 400.205 360.122L398.921 362.903L398.066 362.478C398.066 362.478 397.211 371.038 392.5 371.897C392.5 371.897 391.003 371.897 392.287 368.04C392.287 368.04 394.213 366.33 390.786 362.919C390.786 362.919 387.575 362.493 387.575 361.422C387.575 361.422 385.007 360.78 385.865 359.058C386.724 357.337 390.356 354.985 388.859 352.629Z" fill="#011214"/>
<path d="M363.808 333.79C363.808 333.79 362.953 338.073 362.311 338.715C361.669 339.357 361.669 341.496 362.311 343.836C362.953 346.176 363.383 359.677 361.24 366.315C359.097 372.953 364.238 369.955 364.238 369.955C364.238 369.955 370.876 353.468 370.017 345.53C369.158 337.592 377.502 329.043 377.502 329.043L367.236 327.152L363.808 333.79Z" fill="#FFCEBE"/>
<path d="M361.815 364.121C361.815 364.121 360.172 365.259 359.955 366.114C359.827 366.628 359.525 367.082 359.101 367.398C359.101 367.398 357.387 370.396 357.387 372.965C357.387 375.533 352.037 379.39 352.037 379.39C352.037 379.39 346.254 382.384 354.176 381.959C362.099 381.533 364.025 381.1 364.025 381.1V381.959C364.025 381.959 367.448 382.171 367.236 379.595C367.023 377.019 366.798 371.038 366.798 371.038C366.798 371.038 369.367 368.47 368.512 366.543C367.657 364.617 366.148 364.692 366.148 364.692C366.148 364.692 364.856 368.899 363.785 368.683C362.713 368.466 361.961 365.551 361.815 364.121Z" fill="#011214"/>
<path d="M364.88 296.324L359.1 317.089C359.1 317.089 356.102 324.369 358.458 324.153C360.814 323.936 361.882 316.447 361.882 316.447L366.381 306.173L367.023 298.038L364.88 296.324Z" fill="#FFCEBE"/>
<path d="M375.264 276.308C378.456 276.308 381.043 273.721 381.043 270.529C381.043 267.337 378.456 264.75 375.264 264.75C372.072 264.75 369.485 267.337 369.485 270.529C369.485 273.721 372.072 276.308 375.264 276.308Z" fill="#FFCEBE"/>
<path d="M370.447 287.979C370.447 287.979 369.572 283.448 372.148 281.431C372.148 281.431 368.95 281.128 368.307 281.983C368.307 281.983 364.451 282.195 364.451 284.768C364.451 287.34 364.025 290.547 363.808 290.973C363.592 291.398 362.741 293.336 364.025 297.823C365.309 302.31 367.571 304.355 366.271 306.711C365.865 307.54 365.532 308.404 365.278 309.291C364.084 313.157 363.597 317.206 363.84 321.244C364.068 325.065 363.938 330.529 361.87 333.996C358.447 339.775 382.852 330.573 383.281 328.646C383.711 326.72 384.349 321.579 383.494 318.797C382.978 316.99 382.832 315.096 383.065 313.231C383.065 313.231 384.778 305.525 380.283 301.243L386.275 283.476C386.275 283.476 383.707 280.69 381.781 280.903C379.854 281.116 370.447 287.979 370.447 287.979Z" fill="#1E2037"/>
<path d="M383.506 288.62L383.404 288.915C382.718 290.988 378.783 303.236 380.937 306.174C380.937 306.174 383.506 306.817 384.361 303.389C385.216 299.962 388.001 286.694 386.929 285.622C385.858 284.55 383.506 288.62 383.506 288.62Z" fill="#FFCEBE"/>
<path opacity="0.1" d="M383.506 288.62L383.404 288.915C382.718 290.988 378.783 303.236 380.937 306.174C380.937 306.174 383.506 306.817 384.361 303.389C385.216 299.962 388.001 286.694 386.929 285.622C385.858 284.55 383.506 288.62 383.506 288.62Z" fill="#FEFEFE"/>
<path d="M386.287 283.265C386.287 283.265 388.001 283.908 387.571 285.629C387.142 287.351 382.45 290.553 382.45 290.553L382.021 286.913L386.287 283.265Z" fill="#1E2037"/>
<path d="M378.791 275.693C378.78 275.703 378.78 275.703 378.78 275.703C377.426 277.358 375.792 277.874 373.783 277.874C371.494 277.874 370.505 275.693 370.139 274.242C369.967 273.586 369.66 272.31 369.66 271.943C370.691 272.491 371.483 271.351 371.483 271.351C371.537 270.921 371.676 270.556 371.676 270.556C372.697 270.599 373.987 271.63 374.739 272.006C375.491 272.372 377.304 271.573 377.928 271.208C377.928 271.208 377.587 273.436 377.92 274.457C378.253 275.478 378.791 275.693 378.791 275.693Z" fill="white"/>
<path d="M378.663 275.801L379.398 274.515" stroke="white" stroke-width="0.2"/>
<path d="M378.695 263.616C378.244 263.594 377.792 263.65 377.36 263.782C377.032 263.178 376.55 262.672 375.963 262.315C375.377 261.958 374.706 261.763 374.019 261.75C373.332 261.736 372.654 261.905 372.054 262.239C371.453 262.573 370.952 263.06 370.601 263.65C370.25 264.24 370.061 264.913 370.055 265.6C370.048 266.287 370.224 266.963 370.564 267.56C370.903 268.157 371.395 268.654 371.989 268.999C372.583 269.344 373.258 269.526 373.944 269.526H374.141C374.42 269.509 374.698 269.554 374.957 269.657C375.216 269.761 375.449 269.92 375.638 270.124C376.069 270.597 376.61 270.955 377.212 271.169C377.815 271.383 378.46 271.444 379.092 271.349C379.724 271.253 380.323 271.003 380.836 270.621C381.348 270.239 381.758 269.737 382.03 269.158C382.302 268.58 382.427 267.943 382.394 267.305C382.362 266.666 382.172 266.046 381.842 265.498C381.513 264.951 381.053 264.493 380.504 264.165C379.955 263.838 379.334 263.651 378.695 263.62V263.616Z" fill="#4D3A3C"/>
<path d="M380.937 301.68C380.937 301.68 386.504 294.399 387.146 291.614C387.788 288.829 383.077 281.553 386.504 281.982C389.931 282.411 390.782 288.403 390.782 288.403C390.782 288.403 391.424 289.475 389.927 293.545C388.43 297.614 386.075 303.393 384.806 304.674C383.538 305.954 379.866 309.598 380.937 301.68Z" fill="#FFCEBE"/>
<path d="M197.345 344.52C197.345 344.739 197.148 345.241 196.362 345.504" stroke="#0A0A0A"/>
<path d="M200.79 342.859C199.142 337.966 193.841 335.336 188.949 336.983C184.058 338.631 181.428 343.933 183.076 348.825L186.823 359.947C188.471 364.84 193.772 367.47 198.663 365.822C203.555 364.175 206.184 358.873 204.536 353.98L200.79 342.859Z" fill="#4D3A3C"/>
<path d="M211.939 373.225C212.16 373.485 212.324 373.789 212.421 374.117C212.517 374.444 212.544 374.789 212.499 375.127C212.454 375.466 212.338 375.791 212.16 376.082C211.981 376.373 211.743 376.624 211.462 376.817L199.56 384.988L194.319 388.482C194.021 388.681 193.66 388.761 193.307 388.708C192.953 388.655 192.631 388.473 192.405 388.196C192.273 388.034 192.177 387.846 192.125 387.644C192.073 387.442 192.065 387.231 192.102 387.026C192.139 386.821 192.221 386.626 192.341 386.455C192.46 386.285 192.616 386.142 192.796 386.037L197.872 383.09L206.731 374.653L201.036 368.536L205.255 365.372L211.939 373.225Z" fill="#F5C0B0"/>
<path d="M183.951 450.165H181.04L179.311 426.119L186.693 425.908L183.951 450.165Z" fill="#F5C0B0"/>
<path d="M184.162 457.969C183.386 458.324 182.736 455.453 182.081 456.097C180.249 457.897 177.445 458.288 175 457.503L175.856 457.493C175.708 457.446 175.572 457.369 175.455 457.267C175.338 457.165 175.243 457.041 175.175 456.902C175.108 456.762 175.069 456.61 175.062 456.456C175.055 456.301 175.08 456.146 175.134 456.001C175.199 455.827 175.305 455.672 175.444 455.549C175.582 455.425 175.748 455.337 175.928 455.292L177.876 454.805L180.935 449.427L184.057 449.216C184.753 450.103 185.239 451.137 185.478 452.239C185.717 453.341 185.703 454.483 185.437 455.579C185.153 456.736 184.716 457.717 184.162 457.969Z" fill="#731339"/>
<path d="M203.336 450.165H200.425L198.695 426.119L206.289 424.642L203.336 450.165Z" fill="#F5C0B0"/>
<path d="M203.547 457.968C202.771 458.323 202.12 455.452 201.466 456.096C199.634 457.896 196.829 458.287 194.385 457.502L195.24 457.492C195.093 457.445 194.956 457.368 194.839 457.266C194.722 457.164 194.627 457.04 194.56 456.901C194.492 456.761 194.454 456.609 194.447 456.455C194.44 456.3 194.464 456.145 194.518 456C194.584 455.826 194.69 455.671 194.828 455.548C194.967 455.424 195.133 455.336 195.313 455.291L197.261 454.804L200.319 449.426L203.652 449.004L203.737 449.141C204.381 450.18 204.796 451.344 204.955 452.556C205.114 453.768 205.013 454.999 204.658 456.169C204.38 457.057 204.003 457.76 203.547 457.968Z" fill="#731339"/>
<path d="M206.637 365.916C203.96 366.288 202.106 367.755 201.351 370.68L196.43 361.593C196.138 361.016 196.064 360.353 196.222 359.725C196.379 359.097 196.758 358.548 197.287 358.176C197.85 357.782 198.542 357.618 199.221 357.718C199.9 357.817 200.516 358.173 200.942 358.711L206.637 365.916Z" fill="#73173B"/>
<path d="M211.794 423.588C199.828 428.882 187.583 429.533 175.092 426.119C179.653 408.429 185.039 392.433 185.006 379.293L197.24 378.238L199.123 381.224C203.592 388.31 206.677 396.178 208.214 404.413L211.794 423.588Z" fill="#27282A"/>
<path d="M191.756 352.082C195.251 352.082 198.084 349.249 198.084 345.754C198.084 342.26 195.251 339.427 191.756 339.427C188.261 339.427 185.428 342.26 185.428 345.754C185.428 349.249 188.261 352.082 191.756 352.082Z" fill="#F5C0B0"/>
<path d="M198.716 356.934L190.912 357.356L189.646 350.395L195.974 349.341L198.716 356.934Z" fill="#F5C0B0"/>
<path d="M197.872 379.293L189.322 379.534L185.006 380.137C182.887 373.137 181.103 366.154 185.428 360.309L190.49 355.247L198.083 355.036L198.184 355.093C199.39 355.784 200.325 356.865 200.834 358.159C201.343 359.452 201.397 360.88 200.986 362.207C199.101 368.331 197.891 374.113 197.872 379.293Z" fill="#73173B"/>
<path d="M184.795 398.909L184.264 406.157C184.236 406.545 184.068 406.91 183.792 407.184C183.516 407.459 183.15 407.624 182.762 407.65C182.538 407.665 182.313 407.633 182.103 407.557C181.892 407.48 181.699 407.36 181.537 407.205C181.375 407.05 181.247 406.863 181.162 406.655C181.076 406.448 181.035 406.225 181.04 406.001L181.209 398.909L186.482 378.87L186.693 366.637L192.599 366.426L192.177 380.558L184.795 398.909Z" fill="#F5C0B0"/>
<path d="M193.232 367.481C190.728 366.463 188.39 366.804 186.272 368.957L186.562 358.628C186.598 357.982 186.866 357.371 187.317 356.907C187.768 356.442 188.37 356.156 189.015 356.1C189.699 356.04 190.38 356.245 190.918 356.671C191.457 357.097 191.812 357.713 191.91 358.393L193.232 367.481Z" fill="#73173B"/>
<path d="M187.841 352.056C187.317 351.794 185.718 348.311 185.5 347L188.169 349.762L188.497 351.401C188.278 351.728 188.365 352.318 187.841 352.056Z" fill="white"/>
<path d="M186.202 347.995C186.235 348.855 186.322 349.584 186.475 350.172C187.302 353.405 189.174 353.884 190.219 353.884C191.166 353.884 191.982 353.764 192.712 353.524C193.746 353.176 194.595 352.567 195.324 351.674L195.335 351.663C195.433 351.511 195.955 350.771 196.63 349.562L196.652 349.519C196.815 349.225 196.979 348.898 197.153 348.561C197.153 348.55 197.164 348.55 197.164 348.539C197.175 348.539 197.175 348.528 197.175 348.517C197.175 348.496 197.164 348.474 197.142 348.463C197.131 348.463 197.12 348.463 197.12 348.463C197.098 348.463 197.077 348.474 197.066 348.496L197.044 348.539C196.881 348.866 196.707 349.181 196.554 349.464L196.532 349.508C195.868 350.716 195.346 351.456 195.248 351.587V351.598V351.609C194.627 352.36 193.931 352.904 193.114 353.263C193.016 353.307 192.908 353.35 192.799 353.383C192.777 353.394 192.744 353.405 192.723 353.416C191.993 353.666 191.166 353.786 190.219 353.786C189.207 353.786 187.389 353.318 186.573 350.15C186.431 349.595 186.344 348.898 186.311 348.093C186.573 348.213 186.823 348.223 187.062 348.147C187.628 347.951 187.922 347.298 187.933 347.266V347.255C187.977 346.906 188.075 346.602 188.118 346.493C188.837 346.536 189.697 347.07 190.393 347.494C190.676 347.668 190.948 347.832 191.166 347.94C191.961 348.332 193.757 347.657 194.355 347.309C194.366 347.298 194.377 347.298 194.388 347.287C194.421 347.266 194.442 347.255 194.475 347.233C194.573 347.168 194.671 347.102 194.769 347.026C195.27 346.645 196.437 346.079 197.133 345.263C197.155 345.241 197.155 345.208 197.133 345.187C197.101 345.165 197.068 345.176 197.057 345.197C196.415 345.959 195.27 346.493 194.802 346.874C194.704 346.961 194.595 347.026 194.497 347.091C194.442 347.124 194.399 347.157 194.344 347.189C193.746 347.549 191.961 348.202 191.22 347.832C191.003 347.723 190.742 347.559 190.459 347.385C189.74 346.939 188.848 346.395 188.096 346.362C188.075 346.362 188.053 346.373 188.042 346.395C188.031 346.406 187.901 346.776 187.846 347.211C187.813 347.276 187.52 347.853 187.041 348.028C186.801 348.115 186.551 348.082 186.29 347.94C186.279 347.94 186.268 347.93 186.257 347.93C186.246 347.93 186.235 347.93 186.235 347.94C186.202 347.962 186.202 347.973 186.202 347.995Z" fill="white"/>
<path d="M195.292 351.619C195.281 351.63 195.281 351.63 195.281 351.63C193.909 353.306 192.255 353.829 190.219 353.829C187.901 353.829 186.899 351.619 186.529 350.149C186.355 349.485 186.279 348.713 186.257 347.983C187.302 348.538 187.89 347.221 187.89 347.221C187.944 346.786 188.086 346.416 188.086 346.416C189.12 346.459 190.426 347.504 191.188 347.885C191.95 348.255 193.735 347.613 194.366 347.243C194.366 347.243 194.072 349.333 194.41 350.367C194.747 351.401 195.292 351.619 195.292 351.619Z" fill="white"/>
<path opacity="0.29" d="M189.555 348.083C188.913 348.421 187.977 348.192 187.901 347.985C187.857 347.855 187.835 347.702 187.835 347.561C188.249 347.387 189.131 347.561 189.708 347.833C189.719 347.931 189.653 348.029 189.555 348.083Z" fill="#0A0A0A"/>
<path d="M195.126 338.586C195.43 339.003 195.669 339.464 195.832 339.949C196.549 339.922 197.281 340.096 197.953 340.454C198.626 340.812 199.215 341.34 199.662 341.986C200.108 342.632 200.395 343.371 200.494 344.13C200.593 344.888 200.5 345.638 200.225 346.304C199.95 346.969 199.502 347.526 198.927 347.918C198.352 348.31 197.671 348.523 196.952 348.535C196.234 348.547 195.504 348.358 194.837 347.987C194.17 347.616 193.589 347.076 193.154 346.423L193.029 346.235C192.867 345.961 192.653 345.722 192.402 345.534C192.151 345.345 191.869 345.214 191.576 345.148C190.905 345.003 190.26 344.691 189.699 344.238C189.137 343.785 188.676 343.205 188.356 342.55C188.036 341.896 187.868 341.186 187.865 340.484C187.863 339.782 188.026 339.11 188.342 338.526C188.657 337.943 189.115 337.467 189.673 337.139C190.232 336.812 190.875 336.644 191.546 336.65C192.216 336.656 192.894 336.837 193.517 337.175C194.141 337.513 194.693 337.998 195.123 338.589L195.126 338.586Z" fill="#4D3A3C"/>
<path d="M117.724 448.404H125.326L130.186 405.854L139.12 448.404H144.25V397.664L119.86 390.365L117.724 448.404Z" fill="#4F5467"/>
<path d="M141.942 454.699L149.07 456.005C149.546 456.068 150.028 455.944 150.415 455.66C150.802 455.376 151.064 454.954 151.147 454.482C151.213 454.108 151.164 453.723 151.005 453.379C150.847 453.034 150.587 452.746 150.26 452.553L147.455 450.896L144.25 446.267L138.731 447.335V451.04C138.731 451.936 139.057 452.801 139.648 453.474C140.239 454.147 141.054 454.583 141.942 454.699Z" fill="#292B33"/>
<path d="M122.487 458.999C123.012 458.987 123.53 458.866 124.006 458.644C124.482 458.421 124.907 458.102 125.254 457.706C125.6 457.311 125.86 456.847 126.017 456.346C126.175 455.844 126.226 455.315 126.168 454.792L125.379 447.691H118.614V455.211C118.614 455.716 118.715 456.215 118.91 456.68C119.106 457.145 119.393 457.567 119.753 457.92C120.114 458.272 120.542 458.55 121.011 458.735C121.481 458.92 121.982 459.01 122.487 458.999Z" fill="#292B33"/>
<path d="M130.687 351.62C134.349 351.62 137.317 348.652 137.317 344.99C137.317 341.328 134.349 338.36 130.687 338.36C127.025 338.36 124.057 341.328 124.057 344.99C124.057 348.652 127.025 351.62 130.687 351.62Z" fill="#FFC7B6"/>
<path d="M124.667 358.675H136.773C135.105 355.656 134.049 352.632 134.637 349.596H126.625C126.783 351.867 125.816 355.186 124.667 358.675Z" fill="#FFC7B6"/>
<path d="M120.394 391.434C127.508 396.997 135.361 399.802 144.25 398.733C140.496 385.551 139.382 372.469 143.004 359.566L135.527 356.183L125.379 355.649L119.27 357.446C118.411 357.699 117.658 358.227 117.129 358.95C116.599 359.673 116.322 360.549 116.34 361.445C116.556 372.449 117.567 382.747 120.394 391.434Z" fill="#989EC3"/>
<path d="M145.119 409.225C145.542 409.248 145.965 409.173 146.355 409.006C146.745 408.84 147.091 408.586 147.368 408.265C147.645 407.944 147.844 407.564 147.951 407.153C148.058 406.743 148.07 406.314 147.985 405.898L146.743 399.8H143.716L142.538 405.928C142.463 406.318 142.472 406.719 142.566 407.105C142.659 407.49 142.833 407.852 143.078 408.164C143.323 408.476 143.631 408.733 143.983 408.916C144.335 409.099 144.722 409.205 145.119 409.225Z" fill="#FFC7B6"/>
<path d="M124.634 400.218C124.988 399.984 125.283 399.672 125.497 399.306C125.712 398.94 125.839 398.53 125.871 398.107C125.902 397.685 125.836 397.26 125.678 396.867C125.52 396.474 125.274 396.122 124.958 395.838L120.331 391.677L117.899 393.478L120.598 399.104C120.77 399.462 121.016 399.778 121.321 400.033C121.625 400.287 121.981 400.474 122.363 400.579C122.745 400.685 123.146 400.707 123.538 400.645C123.93 400.582 124.304 400.437 124.634 400.218Z" fill="#FFC7B6"/>
<path d="M118.258 394.816L121.106 392.145L117.902 377.725L119.593 357.34C115.919 358.495 111.974 361.596 111.324 365.392L109 378.971L118.258 394.816Z" fill="#989EC3"/>
<path d="M142.826 399.801L147.455 400.335L146.371 365.962C146.323 364.427 145.833 362.937 144.961 361.672C144.088 360.407 142.87 359.42 141.452 358.829L139.8 358.141L140.245 374.253L142.826 399.801Z" fill="#989EC3"/>
<path opacity="0.2" d="M118.169 369.98L115.854 379.238L121.106 392.374L117.101 379.95L118.169 369.98Z" fill="black"/>
<path opacity="0.2" d="M141.093 374.78L142.88 394.617L139.855 374.918L141.093 374.78Z" fill="black"/>
<path d="M125 345.362C127.645 347.94 128.168 347.322 131.186 347.322C134.204 347.322 135.839 346.674 137 345C134.632 348.371 135.869 348.952 135.869 348.952C134.988 351.33 131.816 352 130.853 352C129.891 352 126.745 351.622 125.5 349C126.594 348.347 125 345.362 125 345.362Z" fill="white"/>
<path d="M124.341 341.655C124.979 340.452 125.79 338.053 127.077 337.608C127.792 337.371 128.531 337.214 129.281 337.139L131.469 337.981L130.278 337.054C130.51 337.041 130.741 337.029 130.973 337.021L132.45 337.588L131.694 337.001C133.071 336.987 134.492 337.13 135.558 337.968C136.467 338.682 137.368 341.388 137.514 342.535C137.67 343.633 137.615 344.75 137.353 345.827L136.979 346.182C136.849 345.882 136.75 345.569 136.686 345.249C136.552 344.649 136.295 344.084 135.93 343.59C135.566 343.095 135.102 342.682 134.569 342.377L134.549 342.365C133.922 342.012 133.161 342.028 132.442 342.054L129.026 342.177C128.204 342.207 127.319 342.259 126.679 342.774C126.246 343.122 125.987 343.636 125.74 344.134C125.422 344.776 124.8 347.2 124.8 347.2C124.8 347.2 124.448 346.742 124.279 347.083C124.009 346.195 123.844 345.277 123.789 344.35C123.735 343.419 123.926 342.49 124.341 341.655Z" fill="#2F2E41"/>
</svg>
