<svg width="32" height="32" viewBox="0 0 32 32" fill="none" xmlns="http://www.w3.org/2000/svg">
<rect width="32" height="32" fill="#FEFEFE"/>
<path d="M7.32892 21.6625C7.2657 21.0674 7.0571 20.6053 6.7031 20.2761C6.35543 19.9469 5.90661 19.7823 5.35665 19.7823C4.90783 19.7823 4.5001 19.9089 4.13346 20.1621C3.76682 20.409 3.47288 20.7604 3.25163 21.2162C3.0367 21.672 2.92924 22.2101 2.92924 22.8304C2.92924 23.4255 3.04303 23.9509 3.2706 24.4067C3.49817 24.8625 3.80475 25.217 4.19036 25.4703C4.57596 25.7235 5.00265 25.8501 5.47043 25.8501C5.88132 25.8501 6.28589 25.7583 6.68414 25.5747C7.08238 25.3848 7.40794 25.1126 7.66079 24.7581L7.90733 24.9575C7.63551 25.331 7.34156 25.619 7.02549 25.8216C6.70942 26.0242 6.39335 26.1603 6.07728 26.2299C5.76754 26.3059 5.48308 26.3439 5.2239 26.3439C4.7498 26.3439 4.31362 26.2584 3.91537 26.0875C3.52345 25.9166 3.1821 25.6792 2.89131 25.3753C2.60685 25.0651 2.3856 24.7074 2.22757 24.3023C2.07585 23.8908 2 23.4477 2 22.9729C2 22.5234 2.06637 22.0866 2.19912 21.6625C2.33819 21.2383 2.54364 20.8553 2.81546 20.5135C3.08728 20.1716 3.42863 19.8994 3.83952 19.6969C4.25673 19.4943 4.74031 19.393 5.29027 19.393C5.98562 19.393 6.62409 19.5861 7.20565 19.9722L7.15824 19.4595H7.67027V21.6625H7.32892ZM9.85325 26.1919V25.8786C10.0935 25.8659 10.2578 25.8121 10.3463 25.7171C10.4348 25.6159 10.4822 25.4798 10.4885 25.3088C10.5012 25.1316 10.5075 24.9322 10.5075 24.7106V20.6084C10.5075 20.3426 10.517 20.1147 10.536 19.9248C10.4222 19.9311 10.3084 19.9374 10.1946 19.9437C10.0808 19.9501 9.96704 19.9564 9.85325 19.9627V19.5449H11.9867V19.8583C11.7528 19.8646 11.5885 19.9184 11.4936 20.0197C11.4051 20.121 11.3546 20.2571 11.3419 20.428C11.3356 20.5989 11.3325 20.7984 11.3325 21.0263V25.0999C11.3325 25.4291 11.323 25.676 11.304 25.8406L13.0772 25.8121C13.4754 25.8058 13.7757 25.6792 13.978 25.4323C14.1866 25.1854 14.2909 24.7834 14.2909 24.2263H14.6132L14.5564 26.1919H9.85325ZM16.0519 26.1919V25.8786C16.2415 25.8786 16.3869 25.8279 16.4881 25.7266C16.5892 25.6254 16.6714 25.4861 16.7346 25.3088C16.8041 25.1316 16.8831 24.9258 16.9716 24.6916L18.9249 19.3645H19.1525L21.267 24.7676C21.3176 24.9005 21.3745 25.0714 21.4377 25.2803C21.5009 25.4892 21.5262 25.6665 21.5136 25.8121C21.621 25.8058 21.7285 25.7994 21.8359 25.7931C21.9434 25.7868 22.0509 25.7804 22.1583 25.7741V26.1919H19.9869V25.8786C20.2272 25.8722 20.3852 25.8184 20.461 25.7171C20.5369 25.6159 20.5653 25.4956 20.5464 25.3563C20.5274 25.217 20.4958 25.0904 20.4516 24.9765L20.1197 24.0839L17.6544 24.1409L17.3225 25.1569C17.2782 25.3088 17.2371 25.4291 17.1992 25.5177C17.1676 25.6064 17.1297 25.7045 17.0854 25.8121C17.2119 25.8058 17.3351 25.7994 17.4552 25.7931C17.5817 25.7868 17.7049 25.7804 17.825 25.7741V26.1919H16.0519ZM17.7966 23.7325H19.9869L19.3137 21.9189C19.2442 21.7226 19.1715 21.5295 19.0956 21.3396C19.0261 21.1434 18.9566 20.9471 18.887 20.7509H18.8681C18.8048 20.9281 18.7385 21.1054 18.6689 21.2826C18.6057 21.4599 18.5393 21.6403 18.4698 21.8239L17.7966 23.7325ZM28.8906 26.3439L25.1073 21.2542C25.0504 21.1782 24.9935 21.1054 24.9366 21.0358C24.886 20.9598 24.8323 20.8838 24.7754 20.8079H24.7659L24.7943 24.872C24.7943 25.0303 24.7943 25.1885 24.7943 25.3468C24.7943 25.5051 24.788 25.6602 24.7754 25.8121C24.8892 25.8058 25.003 25.7994 25.1167 25.7931C25.2305 25.7868 25.3443 25.7804 25.4581 25.7741V26.1919H23.7229V25.8786C23.9188 25.8786 24.0579 25.8374 24.1401 25.7551C24.2286 25.6665 24.2855 25.5652 24.3108 25.4513C24.3361 25.331 24.3487 25.2234 24.3487 25.1284L24.3582 20.561V19.9248C24.257 19.9311 24.1527 19.9374 24.0453 19.9437C23.9378 19.9501 23.8303 19.9564 23.7229 19.9627V19.5449H24.8512L28.407 24.3118C28.4892 24.4194 28.5682 24.527 28.6441 24.6346C28.7262 24.7423 28.8084 24.8499 28.8906 24.9575H28.9001L28.9096 20.6084C28.9096 20.3426 28.919 20.1147 28.938 19.9248C28.8242 19.9311 28.7104 19.9374 28.5967 19.9437C28.4829 19.9501 28.3691 19.9564 28.2553 19.9627V19.5449H30V19.8583C29.7661 19.8646 29.6049 19.9184 29.5164 20.0197C29.4279 20.121 29.3805 20.2571 29.3742 20.428C29.3679 20.5989 29.3647 20.7984 29.3647 21.0263L29.3457 26.3439H28.8906Z" fill="#0A0A0A"/>
<path d="M5.40632 5.61263C4.99849 5.61263 4.73433 5.72402 4.61383 5.94679C4.5026 6.16957 4.44699 6.43875 4.44699 6.75435V10.3605C4.44699 11.0845 4.52578 11.725 4.68335 12.2819C4.85019 12.8389 5.12362 13.2798 5.50364 13.6047C5.89294 13.9203 6.4259 14.0827 7.10253 14.092C8.02942 14.1013 8.71532 13.7949 9.16023 13.173C9.60513 12.5418 9.83222 11.6925 9.84149 10.6251L9.8693 6.79612C9.8693 6.59191 9.8693 6.39698 9.8693 6.21134C9.87856 6.01641 9.89247 5.84933 9.91101 5.71009C9.74417 5.71938 9.56806 5.72866 9.38268 5.73794C9.20657 5.74722 9.04436 5.75651 8.89606 5.76579V5H11.7045V5.61263C11.3987 5.62191 11.1762 5.68689 11.0372 5.80756C10.8981 5.91894 10.8101 6.08603 10.773 6.3088C10.7359 6.53157 10.7174 6.81468 10.7174 7.15813L10.7035 10.4719C10.7035 11.363 10.5645 12.1473 10.2864 12.8249C10.0176 13.5026 9.60513 14.0316 9.049 14.4122C8.49286 14.7835 7.77916 14.9692 6.90788 14.9692C5.90684 14.9692 5.11898 14.7881 4.54431 14.4261C3.96964 14.0641 3.56181 13.5304 3.32082 12.8249C3.07983 12.1102 2.95933 11.2423 2.95933 10.2213V7.21382C2.95933 6.9632 2.96397 6.69401 2.97323 6.40626C2.99177 6.10923 3.00568 5.87717 3.01494 5.71009C2.85737 5.71938 2.6859 5.72866 2.50052 5.73794C2.31514 5.74722 2.1483 5.75186 2 5.75186V5H5.40632V5.61263ZM12.3703 14.7464V14.1337C12.7503 14.0502 13.0701 13.8785 13.3296 13.6186C13.5984 13.3494 13.8904 12.9827 14.2055 12.5186L15.9573 10.082C15.4012 9.32089 14.9378 8.69434 14.567 8.20238C14.2055 7.71042 13.895 7.28808 13.6355 6.93535C13.4686 6.69401 13.3342 6.48052 13.2323 6.29488C13.1396 6.10923 13.0562 5.92359 12.982 5.73794C12.843 5.73794 12.7132 5.74258 12.5927 5.75186C12.4722 5.75186 12.3564 5.75651 12.2451 5.76579V5H16.0547V5.61263L15.5959 5.62655C15.2714 5.63584 15.0675 5.69617 14.9841 5.80756C14.9007 5.90966 14.8914 6.03961 14.9563 6.19741C15.0212 6.35521 15.1139 6.52229 15.2344 6.69865C15.4105 6.97712 15.6329 7.30664 15.9017 7.68722C16.1798 8.05851 16.4764 8.45764 16.7915 8.88463L18.0289 7.10243C18.2514 6.79612 18.4553 6.52229 18.6407 6.28095C18.8261 6.03033 18.9883 5.84005 19.1273 5.71009C18.9512 5.71938 18.7612 5.72866 18.5573 5.73794C18.3534 5.74722 18.168 5.75651 18.0011 5.76579V5H20.8791V5.61263C20.4806 5.66832 20.1098 5.87253 19.7669 6.22526C19.4239 6.57799 19.0949 6.97712 18.7797 7.42267L17.2782 9.5251C17.7601 10.1563 18.2236 10.7643 18.6685 11.3491C19.1227 11.9339 19.4934 12.4165 19.7808 12.7971C19.9476 13.0013 20.1052 13.2055 20.2535 13.4097C20.4018 13.6139 20.5408 13.8135 20.6706 14.0084C20.8096 13.9992 20.9347 13.9945 21.046 13.9945C21.1572 13.9852 21.2731 13.9806 21.3936 13.9806V14.7464H17.737V14.1337C18.0892 14.143 18.3209 14.1013 18.4321 14.0084C18.5434 13.9063 18.5758 13.7764 18.5295 13.6186C18.4831 13.4608 18.3997 13.303 18.2792 13.1452C18.0567 12.8482 17.7833 12.5001 17.4589 12.1009C17.1438 11.6925 16.8054 11.2377 16.444 10.7364C16.2215 11.052 15.9991 11.3723 15.7766 11.6972C15.5541 12.022 15.3363 12.3469 15.1231 12.6718C14.947 12.9224 14.7802 13.1591 14.6226 13.3819C14.465 13.6047 14.2936 13.8228 14.1082 14.0363C14.2843 14.027 14.4697 14.0177 14.6643 14.0084C14.859 13.9992 15.0397 13.9899 15.2066 13.9806V14.7464H12.3703ZM29.3465 8.00745C29.3373 7.20918 29.2029 6.61511 28.9433 6.22526C28.6838 5.8354 28.225 5.64048 27.5669 5.64048H26.5659L26.552 12.8806C26.552 13.1313 26.5473 13.3587 26.5381 13.5629C26.5288 13.7578 26.5195 13.9156 26.5103 14.0363C26.6864 14.027 26.8764 14.0177 27.0803 14.0084C27.2935 13.9899 27.4835 13.9806 27.6503 13.9806V14.7464H24.1189V14.1337C24.4155 14.1245 24.6287 14.0641 24.7584 13.9527C24.8975 13.8321 24.9855 13.6604 25.0226 13.4376C25.0597 13.2055 25.0782 12.9224 25.0782 12.5883V5.6544L23.9103 5.66832C23.3449 5.66832 22.9325 5.85861 22.6729 6.23918C22.4134 6.61976 22.2836 7.20918 22.2836 8.00745H21.6302L21.7136 5H29.9166L30 8.00745H29.3465Z" fill="#0A0A0A"/>
</svg>
