<svg width="175" height="36" viewBox="0 0 175 36" fill="none" xmlns="http://www.w3.org/2000/svg">
<path d="M12.1323 2.21229C10.6798 2.21229 9.73888 2.61453 9.30971 3.419C8.91355 4.22347 8.71547 5.19553 8.71547 6.3352V19.3575C8.71547 21.9721 8.99609 24.2849 9.55731 26.2961C10.1515 28.3073 11.1254 29.8994 12.479 31.0726C13.8655 32.2123 15.7638 32.7989 18.1737 32.8324C21.4751 32.8659 23.918 31.7598 25.5027 29.514C27.0873 27.2346 27.8961 24.1676 27.9291 20.3129L28.0282 6.48604C28.0282 5.74861 28.0282 5.04469 28.0282 4.3743C28.0612 3.67039 28.1107 3.06704 28.1767 2.56425C27.5825 2.59777 26.9552 2.63129 26.295 2.66481C25.6677 2.69833 25.09 2.73185 24.5618 2.76537V0H34.5648V2.21229C33.4753 2.24581 32.683 2.48045 32.1878 2.9162C31.6926 3.31844 31.379 3.92179 31.247 4.72626C31.1149 5.53073 31.0489 6.55308 31.0489 7.7933L30.9994 19.7598C30.9994 22.9777 30.5042 25.8101 29.5138 28.257C28.5564 30.7039 27.0873 32.6145 25.1065 33.9888C23.1257 35.3296 20.5837 36 17.4805 36C13.915 36 11.1089 35.3464 9.06211 34.0391C7.0153 32.7318 5.56272 30.8045 4.70437 28.257C3.84603 25.676 3.41686 22.5419 3.41686 18.8548V7.99442C3.41686 7.08939 3.43337 6.11732 3.46638 5.07821C3.53241 4.00559 3.58193 3.1676 3.61494 2.56425C3.05372 2.59777 2.44297 2.63129 1.78271 2.66481C1.12245 2.69833 0.52821 2.71509 0 2.71509V0H12.1323V2.21229ZM36.9359 35.1955V32.9832C38.2895 32.6816 39.4284 32.0615 40.3528 31.1229C41.3102 30.1508 42.3501 28.8268 43.4725 27.1508L49.712 18.352C47.7313 15.6034 46.0806 13.3408 44.7601 11.5642C43.4726 9.78771 42.3666 8.26257 41.4422 6.98883C40.848 6.11732 40.3693 5.34637 40.0062 4.67598C39.676 4.00559 39.3789 3.3352 39.1148 2.66481C38.6196 2.66481 38.1574 2.68157 37.7283 2.71509C37.2991 2.71509 36.8864 2.73185 36.4903 2.76537V0H50.0587V2.21229L48.4245 2.26257C47.2691 2.29609 46.5428 2.51397 46.2457 2.9162C45.9485 3.28492 45.9155 3.75419 46.1466 4.32402C46.3777 4.89386 46.7078 5.49721 47.137 6.13408C47.7643 7.13967 48.5566 8.32961 49.514 9.70391C50.5044 11.0447 51.5608 12.486 52.6832 14.0279L57.0905 7.59218C57.8828 6.48604 58.6091 5.49721 59.2694 4.6257C59.9296 3.72067 60.5073 3.03352 61.0025 2.56425C60.3753 2.59777 59.6985 2.63129 58.9722 2.66481C58.2459 2.69833 57.5857 2.73185 56.9914 2.76537V0H67.242V2.21229C65.8225 2.41341 64.5019 3.15084 63.2804 4.42458C62.059 5.69833 60.887 7.13967 59.7645 8.74861L54.4164 16.3408C56.1331 18.6201 57.7838 20.8156 59.3684 22.9274C60.986 25.0391 62.3066 26.7821 63.33 28.1564C63.9242 28.8939 64.4854 29.6313 65.0136 30.3687C65.5418 31.1061 66.037 31.8268 66.4992 32.5307C66.9944 32.4972 67.4401 32.4804 67.8363 32.4804C68.2324 32.4469 68.6451 32.4302 69.0745 32.4302V35.1955H56.0506V32.9832C57.3051 33.0168 58.1304 32.8659 58.5266 32.5307C58.9227 32.162 59.0383 31.6927 58.8732 31.1229C58.7081 30.5531 58.411 29.9832 57.9818 29.4134C57.1895 28.3408 56.2156 27.0838 55.0602 25.6425C53.9377 24.1676 52.7327 22.5251 51.4452 20.7151C50.6529 21.8548 49.8606 23.0112 49.0683 24.1844C48.276 25.3575 47.5002 26.5307 46.7409 27.7039C46.1136 28.6089 45.5194 29.4637 44.9581 30.2682C44.3969 31.0726 43.7862 31.8603 43.1259 32.6313C43.7532 32.5978 44.4134 32.5642 45.1067 32.5307C45.8 32.4972 46.4437 32.4637 47.038 32.4302V35.1955H36.9359ZM97.4005 10.8603C97.3675 7.97766 96.8888 5.8324 95.9644 4.42458C95.0401 3.01676 93.4059 2.31285 91.062 2.31285H87.4966L87.447 28.4581C87.447 29.3631 87.4305 30.1844 87.3975 30.9218C87.3645 31.6257 87.3315 32.1955 87.2985 32.6313C87.9257 32.5978 88.6025 32.5642 89.3288 32.5307C90.0881 32.4637 90.7649 32.4302 91.3591 32.4302V35.1955H78.7811V32.9832C79.8375 32.9497 80.5968 32.7318 81.059 32.3296C81.5542 31.8939 81.8678 31.2737 81.9999 30.4693C82.1319 29.6313 82.198 28.6089 82.198 27.4022V2.36313L78.0383 2.41341C76.0245 2.41341 74.5554 3.10056 73.631 4.47486C72.7067 5.84916 72.2445 7.97766 72.2445 10.8603H69.9171L70.2142 0H99.4308L99.7279 10.8603H97.4005ZM115.801 23.2039C115.635 21.6285 115.091 20.405 114.166 19.5335C113.259 18.662 112.087 18.2263 110.65 18.2263C109.479 18.2263 108.414 18.5615 107.456 19.2318C106.499 19.8855 105.732 20.8156 105.154 22.0224C104.593 23.2291 104.312 24.6536 104.312 26.2961C104.312 27.8715 104.609 29.2626 105.203 30.4693C105.798 31.676 106.598 32.6145 107.605 33.2849C108.612 33.9553 109.726 34.2905 110.948 34.2905C112.021 34.2905 113.077 34.0475 114.117 33.5615C115.157 33.0587 116.007 32.338 116.667 31.3994L117.311 31.9274C116.601 32.9162 115.834 33.6788 115.008 34.2151C114.183 34.7514 113.358 35.1117 112.532 35.2961C111.723 35.4972 110.981 35.5978 110.304 35.5978C109.066 35.5978 107.927 35.3715 106.887 34.919C105.864 34.4665 104.972 33.838 104.213 33.0335C103.47 32.2123 102.892 31.2654 102.48 30.1927C102.084 29.1034 101.885 27.9302 101.885 26.6732C101.885 25.4832 102.059 24.3268 102.405 23.2039C102.769 22.081 103.305 21.067 104.015 20.162C104.725 19.257 105.616 18.5363 106.689 18C107.778 17.4637 109.041 17.1955 110.477 17.1955C112.293 17.1955 113.96 17.7067 115.479 18.7291L115.355 17.3715H116.692V23.2039H115.801ZM122.392 35.1955V34.3659C123.019 34.3324 123.449 34.1899 123.68 33.9385C123.911 33.6704 124.035 33.3101 124.051 32.8575C124.084 32.3883 124.101 31.8603 124.101 31.2737V20.4134C124.101 19.7095 124.125 19.1061 124.175 18.6034C123.878 18.6201 123.581 18.6369 123.284 18.6536C122.986 18.6704 122.689 18.6872 122.392 18.7039V17.5978H127.963V18.4274C127.352 18.4441 126.923 18.5866 126.676 18.8548C126.445 19.1229 126.312 19.4832 126.279 19.9358C126.263 20.3883 126.255 20.9162 126.255 21.5196V32.3045C126.255 33.176 126.23 33.8296 126.18 34.2654L130.811 34.1899C131.85 34.1732 132.634 33.838 133.163 33.1844C133.707 32.5307 133.98 31.4665 133.98 29.9916H134.822L134.673 35.1955H122.392ZM138.578 35.1955V34.3659C139.073 34.3659 139.453 34.2318 139.717 33.9637C139.981 33.6955 140.196 33.3268 140.361 32.8575C140.543 32.3883 140.749 31.8436 140.98 31.2235L146.08 17.1201H146.675L152.196 31.4246C152.328 31.7765 152.477 32.229 152.642 32.7821C152.807 33.3352 152.873 33.8045 152.84 34.1899C153.121 34.1732 153.401 34.1564 153.682 34.1397C153.962 34.1229 154.243 34.1061 154.524 34.0894V35.1955H148.854V34.3659C149.481 34.3492 149.893 34.2067 150.092 33.9385C150.29 33.6704 150.364 33.352 150.314 32.9832C150.265 32.6145 150.182 32.2793 150.067 31.9777L149.2 29.6145L142.763 29.7654L141.896 32.4553C141.781 32.8575 141.673 33.176 141.574 33.4106C141.492 33.6453 141.393 33.905 141.277 34.1899C141.607 34.1732 141.929 34.1564 142.243 34.1397C142.573 34.1229 142.895 34.1061 143.208 34.0894V35.1955H138.578ZM143.134 28.6844H148.854L147.096 23.8827C146.914 23.3631 146.724 22.852 146.526 22.3492C146.345 21.8296 146.163 21.3101 145.981 20.7905H145.932C145.767 21.2598 145.594 21.7291 145.412 22.1983C145.247 22.6676 145.074 23.1453 144.892 23.6313L143.134 28.6844ZM172.103 35.5978L162.224 22.1229C162.075 21.9218 161.927 21.7291 161.778 21.5447C161.646 21.3436 161.506 21.1425 161.357 20.9413H161.333L161.407 31.7011C161.407 32.1201 161.407 32.5391 161.407 32.9581C161.407 33.3771 161.39 33.7877 161.357 34.1899C161.654 34.1732 161.952 34.1564 162.249 34.1397C162.546 34.1229 162.843 34.1061 163.14 34.0894V35.1955H158.609V34.3659C159.121 34.3659 159.484 34.257 159.698 34.0391C159.929 33.8045 160.078 33.5363 160.144 33.2346C160.21 32.9162 160.243 32.6313 160.243 32.3799L160.268 20.2877V18.6034C160.004 18.6201 159.731 18.6369 159.451 18.6536C159.17 18.6704 158.89 18.6872 158.609 18.7039V17.5978H161.555L170.84 30.2179C171.055 30.5028 171.261 30.7877 171.459 31.0726C171.674 31.3575 171.889 31.6425 172.103 31.9274H172.128L172.153 20.4134C172.153 19.7095 172.177 19.1061 172.227 18.6034C171.93 18.6201 171.633 18.6369 171.336 18.6536C171.038 18.6704 170.741 18.6872 170.444 18.7039V17.5978H175V18.4274C174.389 18.4441 173.968 18.5866 173.737 18.8548C173.506 19.1229 173.382 19.4832 173.366 19.9358C173.349 20.3883 173.341 20.9162 173.341 21.5196L173.292 35.5978H172.103Z" fill="white"/>
</svg>
