<svg width="129" height="26" viewBox="0 0 129 26" fill="none" xmlns="http://www.w3.org/2000/svg">
<path d="M8.88384 1.59777C7.8202 1.59777 7.13125 1.88827 6.81699 2.46927C6.5269 3.05028 6.38186 3.75233 6.38186 4.57542V13.9804C6.38186 15.8687 6.58734 17.5391 6.99829 18.9916C7.43342 20.4441 8.14654 21.594 9.13766 22.4413C10.153 23.2644 11.5429 23.6881 13.3076 23.7123C15.725 23.7365 17.5139 22.9376 18.6742 21.3156C19.8345 19.6695 20.4268 17.4544 20.451 14.6704L20.5235 4.68436C20.5235 4.15177 20.5235 3.64339 20.5235 3.15922C20.5477 2.65084 20.5839 2.21509 20.6323 1.85196C20.1971 1.87617 19.7378 1.90037 19.2544 1.92458C18.7951 1.94879 18.372 1.973 17.9852 1.99721V0H25.3099V1.59777C24.5121 1.62198 23.932 1.79144 23.5694 2.10615C23.2068 2.39665 22.9771 2.8324 22.8804 3.41341C22.7837 3.99441 22.7354 4.73278 22.7354 5.62849L22.6991 14.271C22.6991 16.595 22.3365 18.6406 21.6113 20.4078C20.9103 22.175 19.8345 23.5549 18.3841 24.5475C16.9337 25.5158 15.0723 26 12.8 26C10.1892 26 8.13445 25.5279 6.63568 24.5838C5.13691 23.6397 4.07327 22.2477 3.44475 20.4078C2.81624 18.5438 2.50198 16.2803 2.50198 13.6173V5.77375C2.50198 5.12011 2.51407 4.41807 2.53824 3.6676C2.58659 2.89293 2.62285 2.28771 2.64702 1.85196C2.23607 1.87617 1.78885 1.90037 1.30538 1.92458C0.821906 1.94879 0.386779 1.9609 0 1.9609V0H8.88384V1.59777ZM27.0462 25.419V23.8212C28.0373 23.6034 28.8713 23.1555 29.5481 22.4777C30.2492 21.7756 31.0106 20.8194 31.8326 19.6089L36.4014 13.2542C34.951 11.2691 33.7423 9.63501 32.7753 8.35196C31.8326 7.0689 31.0227 5.96741 30.3459 5.04749C29.9107 4.41807 29.5602 3.86127 29.2943 3.3771C29.0526 2.89293 28.835 2.40875 28.6416 1.92458C28.279 1.92458 27.9406 1.93669 27.6263 1.9609C27.3121 1.9609 27.0099 1.973 26.7198 1.99721V0H36.6552V1.59777L35.4586 1.63408C34.6125 1.65829 34.0807 1.81564 33.8631 2.10615C33.6456 2.37244 33.6214 2.71136 33.7906 3.12291C33.9598 3.53445 34.2016 3.97021 34.5158 4.43017C34.9751 5.15643 35.5553 6.01583 36.2563 7.00838C36.9816 7.97672 37.7551 9.01769 38.577 10.1313L41.8042 5.48324C42.3844 4.68436 42.9162 3.97021 43.3997 3.34078C43.8832 2.68715 44.3062 2.19088 44.6688 1.85196C44.2095 1.87617 43.7139 1.90037 43.1821 1.92458C42.6503 1.94879 42.1668 1.973 41.7317 1.99721V0H49.2376V1.59777C48.1982 1.74302 47.2312 2.27561 46.3368 3.19553C45.4424 4.11546 44.5842 5.15643 43.7623 6.31844L39.8461 11.8017C41.1032 13.4479 42.3119 15.0335 43.4722 16.5587C44.6567 18.0838 45.6237 19.3426 46.373 20.3352C46.8082 20.8678 47.2191 21.4004 47.6059 21.933C47.9927 22.4655 48.3553 22.986 48.6937 23.4944C49.0563 23.4702 49.3827 23.4581 49.6728 23.4581C49.9628 23.4339 50.265 23.4218 50.5795 23.4218V25.419H41.0427V23.8212C41.9613 23.8454 42.5657 23.7365 42.8558 23.4944C43.1459 23.2281 43.2305 22.8892 43.1096 22.4777C42.9887 22.0661 42.7712 21.6546 42.4569 21.243C41.8767 20.4683 41.1636 19.5605 40.3175 18.5196C39.4956 17.4544 38.6133 16.2682 37.6705 14.9609C37.0903 15.784 36.5102 16.6192 35.93 17.4665C35.3498 18.3138 34.7817 19.1611 34.2258 20.0084C33.7665 20.662 33.3313 21.2793 32.9204 21.8603C32.5094 22.4413 32.0622 23.0102 31.5787 23.567C32.038 23.5428 32.5215 23.5186 33.0292 23.4944C33.5368 23.4702 34.0082 23.446 34.4433 23.4218V25.419H27.0462ZM71.321 7.84358C71.2969 5.76164 70.9463 4.21229 70.2695 3.19553C69.5926 2.17877 68.396 1.67039 66.6797 1.67039H64.0689L64.0326 20.5531C64.0326 21.2067 64.0206 21.7998 63.9964 22.3324C63.9722 22.8408 63.948 23.2523 63.9239 23.567C64.3832 23.5428 64.8787 23.5186 65.4105 23.4944C65.9665 23.446 66.4621 23.4218 66.8972 23.4218V25.419H57.687V23.8212C58.4606 23.797 59.0166 23.6397 59.355 23.3492C59.7176 23.0345 59.9473 22.5866 60.044 22.0056C60.1407 21.4004 60.189 20.662 60.189 19.7905V1.70671L57.1431 1.74302C55.6685 1.74302 54.5928 2.23929 53.9159 3.23184C53.2391 4.2244 52.9007 5.76164 52.9007 7.84358H51.1964L51.414 0H72.8077L73.0253 7.84358H71.321ZM84.7943 16.7584C84.6735 15.6206 84.2746 14.737 83.5977 14.1075C82.933 13.4781 82.0748 13.1634 81.0232 13.1634C80.1651 13.1634 79.3855 13.4055 78.6844 13.8897C77.9834 14.3617 77.4214 15.0335 76.9983 15.905C76.5874 16.7765 76.3819 17.8054 76.3819 18.9916C76.3819 20.1294 76.5995 21.1341 77.0346 22.0056C77.4697 22.8771 78.0559 23.5549 78.7932 24.0391C79.5305 24.5233 80.3464 24.7654 81.2408 24.7654C82.0265 24.7654 82.8 24.5899 83.5615 24.2388C84.323 23.8757 84.9454 23.3552 85.4289 22.6774L85.9003 23.0587C85.3806 23.7728 84.8185 24.3236 84.2142 24.7109C83.6098 25.0982 83.0055 25.3585 82.4011 25.4916C81.8089 25.6369 81.265 25.7095 80.7694 25.7095C79.8629 25.7095 79.0289 25.5461 78.2674 25.2193C77.5181 24.8925 76.8654 24.4385 76.3094 23.8575C75.7655 23.2644 75.3424 22.5805 75.0402 21.8059C74.7502 21.0191 74.6051 20.1718 74.6051 19.264C74.6051 18.4046 74.732 17.5694 74.9859 16.7584C75.2518 15.9474 75.6446 15.2151 76.1643 14.5615C76.6841 13.9078 77.3368 13.3873 78.1224 13C78.9201 12.6127 79.8448 12.419 80.8963 12.419C82.2259 12.419 83.4467 12.7882 84.5587 13.5265L84.468 12.5461H85.447V16.7584H84.7943ZM89.621 25.419V24.8198C90.0803 24.7956 90.3946 24.6927 90.5638 24.5112C90.733 24.3175 90.8237 24.0573 90.8358 23.7304C90.8599 23.3915 90.872 23.0102 90.872 22.5866V14.743C90.872 14.2346 90.8902 13.7989 90.9264 13.4358C90.7088 13.4479 90.4913 13.46 90.2737 13.4721C90.0562 13.4842 89.8386 13.4963 89.621 13.5084V12.7095H93.7003V13.3087C93.2531 13.3208 92.9389 13.4237 92.7576 13.6173C92.5884 13.811 92.4917 14.0712 92.4675 14.398C92.4554 14.7249 92.4494 15.1061 92.4494 15.5419V23.331C92.4494 23.9604 92.4312 24.4325 92.395 24.7472L95.7853 24.6927C96.5468 24.6806 97.1209 24.4385 97.5077 23.9665C97.9066 23.4944 98.106 22.7258 98.106 21.6606H98.7224L98.6136 25.419H89.621ZM101.473 25.419V24.8198C101.836 24.8198 102.114 24.723 102.307 24.5293C102.501 24.3357 102.658 24.0694 102.779 23.7304C102.912 23.3915 103.063 22.9981 103.232 22.5503L106.967 12.3645H107.402L111.445 22.6955C111.542 22.9497 111.65 23.2765 111.771 23.676C111.892 24.0754 111.94 24.4143 111.916 24.6927C112.122 24.6806 112.327 24.6685 112.533 24.6564C112.738 24.6443 112.944 24.6322 113.149 24.6201V25.419H108.997V24.8198C109.457 24.8077 109.759 24.7048 109.904 24.5112C110.049 24.3175 110.103 24.0875 110.067 23.8212C110.031 23.5549 109.97 23.3128 109.886 23.095L109.251 21.3883L104.537 21.4972L103.903 23.4399C103.818 23.7304 103.739 23.9604 103.667 24.1299C103.607 24.2993 103.534 24.487 103.449 24.6927C103.691 24.6806 103.927 24.6685 104.156 24.6564C104.398 24.6443 104.634 24.6322 104.864 24.6201V25.419H101.473ZM104.809 20.7165H108.997L107.71 17.2486C107.577 16.8734 107.438 16.5042 107.293 16.1411C107.16 15.7658 107.027 15.3906 106.894 15.0154H106.858C106.737 15.3543 106.61 15.6932 106.477 16.0321C106.356 16.371 106.229 16.716 106.096 17.067L104.809 20.7165ZM126.022 25.7095L118.788 15.9777C118.679 15.8324 118.57 15.6932 118.461 15.5601C118.365 15.4148 118.262 15.2696 118.153 15.1243H118.135L118.189 22.8953C118.189 23.1979 118.189 23.5005 118.189 23.8031C118.189 24.1057 118.177 24.4022 118.153 24.6927C118.371 24.6806 118.588 24.6685 118.806 24.6564C119.023 24.6443 119.241 24.6322 119.458 24.6201V25.419H116.141V24.8198C116.515 24.8198 116.781 24.7412 116.938 24.5838C117.108 24.4143 117.216 24.2207 117.265 24.0028C117.313 23.7728 117.337 23.567 117.337 23.3855L117.355 14.6522V13.4358C117.162 13.4479 116.963 13.46 116.757 13.4721C116.552 13.4842 116.346 13.4963 116.141 13.5084V12.7095H118.298L125.097 21.824C125.254 22.0298 125.405 22.2356 125.55 22.4413C125.707 22.6471 125.864 22.8529 126.022 23.0587H126.04L126.058 14.743C126.058 14.2346 126.076 13.7989 126.112 13.4358C125.895 13.4479 125.677 13.46 125.46 13.4721C125.242 13.4842 125.024 13.4963 124.807 13.5084V12.7095H128.143V13.3087C127.696 13.3208 127.387 13.4237 127.218 13.6173C127.049 13.811 126.958 14.0712 126.946 14.398C126.934 14.7249 126.928 15.1061 126.928 15.5419L126.892 25.7095H126.022Z" fill="#0A0A0A"/>
</svg>
