<svg width="124" height="124" viewBox="0 0 124 124" fill="none" xmlns="http://www.w3.org/2000/svg">
<circle cx="62" cy="62" r="62" fill="#F0F0F0"/>
<path d="M54.7717 67.4486C59.8654 67.4486 63.9946 63.3193 63.9946 58.2257C63.9946 53.132 59.8654 49.0028 54.7717 49.0028C49.678 49.0028 45.5488 53.132 45.5488 58.2257C45.5488 63.3193 49.678 67.4486 54.7717 67.4486Z" stroke="#FD5800" stroke-width="2" stroke-miterlimit="10"/>
<path d="M66.7266 49.3457C67.9951 48.9883 69.3255 48.9068 70.6281 49.1069C71.9308 49.3069 73.1755 49.7838 74.2783 50.5054C75.3811 51.227 76.3165 52.1765 77.0215 53.2901C77.7264 54.4036 78.1846 55.6553 78.365 56.9608C78.5455 58.2663 78.4441 59.5953 78.0677 60.8583C77.6913 62.1214 77.0486 63.2891 76.1829 64.2828C75.3172 65.2765 74.2486 66.0732 73.0491 66.6192C71.8496 67.1651 70.547 67.4477 69.2291 67.4479" stroke="#FD5800" stroke-width="2" stroke-linecap="round" stroke-linejoin="round"/>
<path d="M42 74.0813C43.4404 72.0324 45.3527 70.3601 47.5753 69.2057C49.798 68.0513 52.2657 67.4486 54.7703 67.4485C57.2748 67.4484 59.7427 68.0509 61.9654 69.2052C64.1881 70.3594 66.1005 72.0315 67.5411 74.0803" stroke="#FD5800" stroke-width="2" stroke-linecap="round" stroke-linejoin="round"/>
<path d="M69.2295 67.4485C71.7343 67.4467 74.2026 68.0484 76.4255 69.2028C78.6484 70.3572 80.5604 72.0303 81.9997 74.0803" stroke="#FD5800" stroke-width="2" stroke-linecap="round" stroke-linejoin="round"/>
</svg>
