<svg width="124" height="124" viewBox="0 0 124 124" fill="none" xmlns="http://www.w3.org/2000/svg">
<circle cx="62" cy="62" r="62" fill="#F0F0F0"/>
<path d="M75.6 58.7998V76.5776C75.6 76.9548 75.4502 77.3165 75.1834 77.5832C74.9167 77.8499 74.555 77.9998 74.1778 77.9998H43.6C43.1757 77.9998 42.7687 77.8312 42.4686 77.5312C42.1686 77.2311 42 76.8241 42 76.3998V53.9998C42 53.5754 42.1686 53.1685 42.4686 52.8684C42.7687 52.5684 43.1757 52.3998 43.6 52.3998H52.6667C53.0129 52.3998 53.3497 52.5121 53.6267 52.7198L59.1733 56.8798C59.4503 57.0875 59.7871 57.1998 60.1333 57.1998H74C74.4243 57.1998 74.8313 57.3684 75.1314 57.6684C75.4314 57.9685 75.6 58.3754 75.6 58.7998Z" stroke="#FD5800" stroke-width="2" stroke-linecap="round" stroke-linejoin="round"/>
<path d="M48.4004 52.4V47.6C48.4004 47.1757 48.569 46.7687 48.869 46.4686C49.1691 46.1686 49.576 46 50.0004 46H59.0671C59.4132 46 59.7501 46.1123 60.0271 46.32L65.5737 50.48C65.8507 50.6877 66.1875 50.8 66.5337 50.8H80.4004C80.8247 50.8 81.2317 50.9686 81.5318 51.2686C81.8318 51.5687 82.0004 51.9757 82.0004 52.4V70.1778C82.0004 70.3645 81.9636 70.5495 81.8921 70.722C81.8207 70.8946 81.7159 71.0514 81.5838 71.1834C81.4518 71.3155 81.295 71.4203 81.1224 71.4917C80.9499 71.5632 80.7649 71.6 80.5782 71.6H75.6004" stroke="#FD5800" stroke-width="2" stroke-linecap="round" stroke-linejoin="round"/>
</svg>
