<svg width="124" height="124" viewBox="0 0 124 124" fill="none" xmlns="http://www.w3.org/2000/svg">
<circle cx="62" cy="62" r="62" fill="#F0F0F0"/>
<path d="M61.8145 58.2963V48.6667C61.8145 47.6844 62.2047 46.7424 62.8992 46.0478C63.5938 45.3532 64.5359 44.963 65.5182 44.963C66.5004 44.963 67.4425 45.3532 68.1371 46.0478C68.8316 46.7424 69.2219 47.6844 69.2219 48.6667V63.4815" stroke="#FD5800" stroke-width="2" stroke-linecap="round" stroke-linejoin="round"/>
<path d="M54.4072 59.7778V45.7037C54.4072 44.7214 54.7974 43.7794 55.492 43.0848C56.1866 42.3902 57.1286 42 58.1109 42C59.0932 42 60.0353 42.3902 60.7298 43.0848C61.4244 43.7794 61.8146 44.7214 61.8146 45.7037V58.2963" stroke="#FD5800" stroke-width="2" stroke-linecap="round" stroke-linejoin="round"/>
<path d="M61.8148 70.8888C61.8148 68.9243 62.5952 67.0402 63.9844 65.651C65.3736 64.2618 67.2577 63.4814 69.2222 63.4814V59.7777C69.2222 58.7954 69.6124 57.8534 70.307 57.1588C71.0016 56.4642 71.9436 56.074 72.9259 56.074C73.9082 56.074 74.8503 56.4642 75.5448 57.1588C76.2394 57.8534 76.6296 58.7954 76.6296 59.7777V67.1851C76.6296 71.1143 75.0688 74.8825 72.2905 77.6608C69.5122 80.4391 65.7439 81.9999 61.8148 81.9999C57.8857 81.9999 54.1175 80.4391 51.3392 77.6608C48.5608 74.8825 47 71.1143 47 67.1851V53.1111C47 52.1288 47.3902 51.1867 48.0848 50.4921C48.7794 49.7976 49.7214 49.4073 50.7037 49.4073C51.686 49.4073 52.628 49.7976 53.3226 50.4921C54.0172 51.1867 54.4074 52.1288 54.4074 53.1111V59.7777" stroke="#FD5800" stroke-width="2" stroke-linecap="round" stroke-linejoin="round"/>
</svg>
