<svg width="124" height="124" viewBox="0 0 124 124" fill="none" xmlns="http://www.w3.org/2000/svg">
<circle cx="62" cy="62" r="62" fill="#F0F0F0"/>
<path d="M85.0437 59.3597L79.9848 61.8891L73.4355 49.3468L78.5459 46.7916C78.9298 46.5997 79.3738 46.5661 79.7822 46.6983C80.1906 46.8305 80.5308 47.1177 80.7295 47.4982L85.7628 57.1373C85.8634 57.3301 85.9247 57.5409 85.943 57.7576C85.9612 57.9743 85.9362 58.1924 85.8692 58.3993C85.8023 58.6062 85.6948 58.7976 85.5531 58.9625C85.4113 59.1274 85.2381 59.2624 85.0437 59.3597V59.3597Z" stroke="#FD5800" stroke-width="2" stroke-linecap="round" stroke-linejoin="round"/>
<path d="M43.9639 61.6701L38.9051 59.1407C38.7106 59.0434 38.5374 58.9084 38.3957 58.7435C38.254 58.5787 38.1465 58.3872 38.0795 58.1803C38.0126 57.9734 37.9875 57.7553 38.0058 57.5386C38.0241 57.322 38.0853 57.1111 38.186 56.9184L43.2193 47.2792C43.418 46.8987 43.7581 46.6115 44.1665 46.4793C44.5749 46.3472 45.0189 46.3807 45.4029 46.5726L50.5132 49.1278L43.9639 61.6701Z" stroke="#FD5800" stroke-width="2" stroke-linecap="round" stroke-linejoin="round"/>
<path d="M79.9849 61.889L76.7103 65.72L69.1792 73.251C68.9793 73.451 68.731 73.5957 68.4585 73.6712C68.186 73.7467 67.8986 73.7503 67.6243 73.6817L55.7626 70.7163C55.5401 70.6607 55.3318 70.5589 55.1511 70.4176L43.9639 61.6697" stroke="#FD5800" stroke-width="2" stroke-linecap="round" stroke-linejoin="round"/>
<path d="M76.7104 65.7198L67.7051 59.1705L65.0854 61.1353C63.9518 61.9855 62.5729 62.4451 61.1558 62.4451C59.7388 62.4451 58.3599 61.9855 57.2263 61.1353L56.1168 60.3032C55.9292 60.1624 55.7739 59.983 55.6617 59.777C55.5494 59.5711 55.4827 59.3434 55.466 59.1094C55.4494 58.8754 55.4832 58.6406 55.5653 58.4208C55.6473 58.201 55.7756 58.0014 55.9415 57.8356L63.9509 49.8261C64.103 49.6741 64.2835 49.5535 64.4821 49.4712C64.6808 49.3889 64.8937 49.3466 65.1087 49.3466H73.4357" stroke="#FD5800" stroke-width="2" stroke-linecap="round" stroke-linejoin="round"/>
<path d="M50.6309 49.1275L61.1343 46.0654C61.5095 45.9561 61.9114 45.9845 62.2675 46.1456L69.3425 49.3469" stroke="#FD5800" stroke-width="2" stroke-linecap="round" stroke-linejoin="round"/>
<path d="M58.6995 78.0001L52.531 76.458C52.2807 76.3954 52.0487 76.2745 51.854 76.1053L47.2383 72.0931" stroke="#FD5800" stroke-width="2" stroke-linecap="round" stroke-linejoin="round"/>
</svg>
