<svg width="168" height="168" viewBox="0 0 168 168" fill="none" xmlns="http://www.w3.org/2000/svg">
<g filter="url(#filter0_d)">
<circle cx="84" cy="82" r="80" fill="black"/>
<path d="M72.3038 107.869C74.6733 107.369 76.7384 106.456 78.4775 105.129C80.021 103.977 81.3036 102.543 82.3471 100.825C83.9557 98.2601 84.7818 95.3471 84.7818 92.108C84.7818 88.9776 84.0644 86.3038 82.6514 84.1082C81.2384 81.9125 79.1297 80.3039 76.3472 79.2822C78.1732 78.3474 79.5645 77.3039 80.521 76.1735C82.1949 74.1518 83.0427 71.4779 83.0427 68.1302C83.0427 64.8911 82.1949 62.1086 80.5428 59.8043C77.7602 56.0217 73.0429 54.087 66.3908 54H40V108.586H64.6083C67.3473 108.608 69.9342 108.369 72.3038 107.869ZM50.8694 63.4998H62.7387C65.3474 63.4998 67.4995 63.7824 69.1951 64.3477C71.1516 65.152 72.1298 66.8476 72.1298 69.391C72.1298 71.6953 71.3907 73.2823 69.9125 74.1953C68.4343 75.0866 66.5213 75.5431 64.13 75.5431H50.8694V63.4998ZM50.8694 99.1296V84.5864H64.3039C66.6517 84.6081 68.456 84.9125 69.7603 85.5212C72.0864 86.5864 73.2385 88.5211 73.2385 91.3689C73.2385 94.7166 72.0429 96.9992 69.6516 98.1948C68.3256 98.847 66.4995 99.1513 64.13 99.1513H50.8694V99.1296Z" fill="white"/>
<path d="M93.999 105.021C98.1076 108.326 102.847 110 108.216 110C114.738 110 119.781 108.043 123.412 104.108C125.738 101.63 127.042 99.1954 127.324 96.8042H116.542C115.912 97.9781 115.194 98.9128 114.368 99.5867C112.868 100.826 110.912 101.435 108.499 101.435C106.238 101.435 104.303 100.935 102.673 99.9128C100.021 98.2824 98.6076 95.4347 98.4554 91.3913H127.846C127.89 87.9131 127.781 85.2392 127.498 83.3914C126.998 80.2175 125.933 77.435 124.281 75.0437C122.455 72.3264 120.129 70.3264 117.303 69.0656C114.499 67.8047 111.325 67.1743 107.803 67.1743C101.89 67.1743 97.0859 69.0438 93.3686 72.7612C89.6513 76.4785 87.8035 81.848 87.8035 88.8478C87.8469 96.3042 89.8904 101.695 93.999 105.021ZM101.542 78.1741C103.042 76.6307 105.129 75.8698 107.847 75.8698C110.347 75.8698 112.433 76.5872 114.107 78.0437C115.781 79.5002 116.738 81.6306 116.912 84.4131H98.7163C99.1076 81.8045 100.042 79.7176 101.542 78.1741Z" fill="white"/>
<path d="M118.998 57.1523H95.2815V62.6522H118.998V57.1523Z" fill="white"/>
</g>
<defs>
<filter id="filter0_d" x="0" y="0" width="168" height="168" filterUnits="userSpaceOnUse" color-interpolation-filters="sRGB">
<feFlood flood-opacity="0" result="BackgroundImageFix"/>
<feColorMatrix in="SourceAlpha" type="matrix" values="0 0 0 0 0 0 0 0 0 0 0 0 0 0 0 0 0 0 127 0"/>
<feOffset dy="2"/>
<feGaussianBlur stdDeviation="2"/>
<feColorMatrix type="matrix" values="0 0 0 0 0 0 0 0 0 0 0 0 0 0 0 0 0 0 0.1 0"/>
<feBlend mode="normal" in2="BackgroundImageFix" result="effect1_dropShadow"/>
<feBlend mode="normal" in="SourceGraphic" in2="effect1_dropShadow" result="shape"/>
</filter>
</defs>
</svg>
