<svg width="20" height="20" viewBox="0 0 20 20" fill="none" xmlns="http://www.w3.org/2000/svg">
<path d="M6.14258 10.0641C6.95581 11.7266 8.30348 13.0682 9.96974 13.8738C10.0917 13.9316 10.2265 13.9566 10.361 13.9464C10.4956 13.9363 10.6251 13.8912 10.7369 13.8158L13.1904 12.1798C13.2989 12.1074 13.4237 12.0633 13.5536 12.0513C13.6835 12.0394 13.8143 12.0601 13.9342 12.1114L18.5241 14.0786C18.68 14.1448 18.8102 14.2599 18.895 14.4066C18.9798 14.5532 19.0147 14.7234 18.9943 14.8916C18.8493 16.0268 18.2954 17.0702 17.4364 17.8265C16.5774 18.5827 15.4722 18.9999 14.3278 19C10.793 19 7.40305 17.5958 4.90361 15.0964C2.40417 12.5969 1 9.20698 1 5.67224C1.00006 4.52779 1.41727 3.4226 2.17351 2.56361C2.92975 1.70462 3.97316 1.15074 5.10838 1.00566C5.27656 0.985308 5.4468 1.02016 5.59345 1.10497C5.74009 1.18978 5.85521 1.31996 5.92144 1.47588L7.89028 6.06983C7.9412 6.18865 7.96195 6.31823 7.95068 6.44702C7.93941 6.5758 7.89646 6.6998 7.82566 6.80798L6.19533 9.29906C6.12112 9.41113 6.07726 9.54052 6.06801 9.6746C6.05877 9.80869 6.08446 9.94287 6.14258 10.0641V10.0641Z" stroke="black" stroke-width="1.5" stroke-linecap="round" stroke-linejoin="round"/>
</svg>
