<svg width="557" height="356" viewBox="0 0 557 356" fill="none" xmlns="http://www.w3.org/2000/svg">
<path d="M549.181 150.619C529.071 71.5007 459.585 14.3886 378.023 12.0979C334.904 10.8868 289.53 25.195 256.495 75.2645C197.441 164.769 260.124 226.62 303.825 256.01C324.938 270.237 343.962 287.345 360.345 306.837C389.864 341.883 446.651 385.434 514.282 317.197C563.301 267.739 562.576 203.319 549.181 150.619Z" fill="#FAFAFA"/>
<path d="M84.428 210.602C83.8862 209.799 83.3535 208.975 82.8447 208.152L83.6666 207.644C84.1685 208.456 84.6941 209.269 85.2286 210.061L84.428 210.602Z" fill="#3F3D56"/>
<path d="M79.9311 202.971C79.035 201.211 78.202 199.393 77.4557 197.568L78.3497 197.201C79.0864 199.002 79.908 200.796 80.7921 202.532L79.9311 202.971ZM75.4365 191.978C74.8437 190.096 74.3226 188.165 73.8874 186.24L74.83 186.027C75.2591 187.926 75.7731 189.831 76.3579 191.687L75.4365 191.978ZM72.8191 180.394C72.5452 178.443 72.3489 176.454 72.2352 174.481L73.2 174.425C73.3118 176.372 73.5057 178.335 73.7758 180.26L72.8191 180.394ZM73.1005 168.561L72.1348 168.539C72.1812 166.563 72.3096 164.568 72.516 162.61L73.477 162.712C73.2732 164.644 73.1465 166.612 73.1005 168.561ZM74.3311 156.913L73.3819 156.732C73.7499 154.794 74.2035 152.847 74.7302 150.946L75.6615 151.204C75.1416 153.079 74.6941 155 74.3311 156.913ZM77.4604 145.625L76.5541 145.29C77.2372 143.439 78.007 141.592 78.8418 139.802L79.7174 140.211C78.8937 141.977 78.1343 143.798 77.4604 145.625ZM209.784 142.637C209.028 140.845 208.188 139.061 207.285 137.334L208.142 136.886C209.056 138.637 209.908 140.445 210.674 142.261L209.784 142.637ZM82.4138 135.003L81.575 134.523C82.5535 132.811 83.6162 131.117 84.7336 129.488L85.5299 130.035C84.4276 131.642 83.3791 133.313 82.4138 135.003ZM204.358 132.255C203.317 130.611 202.195 128.989 201.023 127.435L201.794 126.853C202.983 128.428 204.12 130.072 205.174 131.738L204.358 132.255ZM89.0435 125.341L88.2943 124.73C89.5408 123.2 90.8655 121.704 92.2325 120.281L92.9288 120.951C91.5803 122.355 90.2729 123.832 89.0435 125.341ZM197.304 122.904C196.008 121.451 194.636 120.034 193.226 118.692L193.892 117.992C195.321 119.352 196.711 120.788 198.025 122.26L197.304 122.904ZM97.16 116.894L96.5207 116.169C97.999 114.864 99.55 113.603 101.13 112.423L101.708 113.198C100.149 114.362 98.6187 115.606 97.16 116.894ZM188.817 114.829C187.302 113.607 185.717 112.432 184.107 111.339L184.649 110.539C186.281 111.647 187.887 112.837 189.424 114.076L188.817 114.829ZM106.543 109.887L106.031 109.068C107.704 108.021 109.439 107.032 111.19 106.128L111.633 106.987C109.906 107.879 108.194 108.855 106.543 109.887ZM179.126 108.249C177.428 107.29 175.672 106.392 173.907 105.58L174.311 104.701C176.1 105.525 177.88 106.435 179.601 107.407L179.126 108.249ZM116.944 104.517L116.573 103.625C118.394 102.868 120.268 102.179 122.143 101.576L122.439 102.496C120.589 103.091 118.74 103.771 116.944 104.517ZM168.485 103.351C166.656 102.687 164.776 102.091 162.897 101.581L163.151 100.648C165.055 101.165 166.961 101.769 168.815 102.442L168.485 103.351ZM128.086 100.937L127.868 99.9953C129.787 99.5502 131.751 99.1799 133.704 98.8943L133.844 99.8508C131.917 100.133 129.98 100.498 128.086 100.937V100.937ZM157.182 100.28C155.272 99.9283 153.32 99.6512 151.38 99.4572L151.477 98.4952C153.443 98.692 155.421 98.9727 157.357 99.3297L157.182 100.28ZM139.671 99.2431L139.61 98.2783C141.575 98.1542 143.579 98.11 145.548 98.1457L145.53 99.1124C143.586 99.0767 141.61 99.1209 139.671 99.2431Z" fill="#3F3D56"/>
<path d="M212.693 150.955C212.435 150.035 212.153 149.108 211.857 148.199L212.776 147.899C213.076 148.821 213.361 149.761 213.623 150.693L212.693 150.955Z" fill="#3F3D56"/>
<path d="M206.802 96.8196H205.836C205.836 95.8522 205.853 94.8706 205.887 93.9025L206.852 93.936C206.819 94.8933 206.802 95.8633 206.802 96.8196Z" fill="#3F3D56"/>
<path d="M207.262 88.1224L206.301 88.02C206.508 86.0731 206.788 84.1105 207.133 82.1865L208.084 82.3574C207.743 84.2587 207.466 86.1984 207.262 88.1224ZM209.319 76.6664L208.383 76.4276C208.866 74.5303 209.425 72.628 210.044 70.7734L210.961 71.0793C210.349 72.9122 209.797 74.7918 209.319 76.6664ZM363.41 66.4674C362.688 64.6735 361.891 62.8836 361.041 61.148L361.91 60.7231C362.769 62.4795 363.575 64.2907 364.306 66.1063L363.41 66.4674ZM213.003 65.6201L212.11 65.2487C212.862 63.4422 213.689 61.6389 214.57 59.8886L215.433 60.3233C214.563 62.0531 213.745 63.8349 213.003 65.6201ZM358.297 56.0119C357.325 54.3414 356.281 52.6839 355.191 51.0856L355.99 50.5409C357.092 52.1583 358.149 53.8354 359.132 55.5257L358.297 56.0119ZM218.237 55.2158L217.408 54.7202C218.409 53.0417 219.486 51.3759 220.608 49.7694L221.4 50.3231C220.291 51.9107 219.227 53.5569 218.237 55.2158H218.237ZM351.742 46.3937C350.54 44.8764 349.27 43.3845 347.967 41.9595L348.679 41.3067C349.998 42.7487 351.284 44.258 352.499 45.7933L351.742 46.3937ZM224.903 45.6696L224.153 45.0607C225.385 43.5398 226.688 42.045 228.024 40.6175L228.729 41.2784C227.409 42.6893 226.121 44.1667 224.903 45.6696ZM343.885 37.8055C342.481 36.4748 341.012 35.1787 339.518 33.9526L340.13 33.2054C341.642 34.4456 343.129 35.7574 344.55 37.1036L343.885 37.8055ZM232.858 37.1716L232.201 36.4621C233.636 35.1331 235.137 33.8386 236.663 32.6149L237.267 33.3692C235.759 34.5787 234.275 35.8579 232.858 37.1715V37.1716ZM334.888 30.4209C333.309 29.3036 331.67 28.2298 330.017 27.2291L330.517 26.4021C332.19 27.4146 333.848 28.5012 335.445 29.6317L334.888 30.4209ZM241.935 29.8913L241.386 29.0959C242.994 27.9848 244.664 26.9178 246.348 25.9242L246.839 26.7568C245.174 27.7389 243.524 28.7934 241.935 29.8913V29.8913ZM324.93 24.3948C323.208 23.5145 321.432 22.6866 319.653 21.9335L320.029 21.0432C321.83 21.8051 323.627 22.6432 325.37 23.5339L324.93 24.3948ZM251.953 23.9825L251.523 23.1169C253.274 22.2474 255.078 21.4306 256.886 20.6892L257.253 21.5837C255.466 22.3163 253.683 23.1234 251.953 23.9825V23.9825ZM314.212 19.8592C312.384 19.2366 310.508 18.6725 308.635 18.1828L308.88 17.2477C310.775 17.7431 312.674 18.314 314.523 18.9439L314.212 19.8592ZM262.709 19.5731L262.408 18.6546C264.265 18.0457 266.169 17.4965 268.068 17.0223L268.302 17.9602C266.425 18.4287 264.544 18.9713 262.709 19.5731L262.709 19.5731ZM302.954 16.9142C301.054 16.5614 299.117 16.2732 297.196 16.0575L297.304 15.0969C299.248 15.3152 301.208 15.6067 303.13 15.9636L302.954 16.9142ZM273.996 16.7551L273.83 15.8026C275.755 15.4672 277.718 15.1974 279.665 15.0004L279.762 15.9624C277.838 16.1568 275.898 16.4235 273.996 16.7551L273.996 16.7551ZM291.392 15.6143C289.457 15.5357 287.49 15.5253 285.57 15.5826L285.541 14.6164C287.484 14.5584 289.474 14.5685 291.432 14.6485L291.392 15.6143Z" fill="#3F3D56"/>
<path d="M366.237 74.7627C365.978 73.8427 365.699 72.914 365.407 72.0018L366.327 71.7073C366.623 72.6301 366.905 73.5699 367.167 74.5007L366.237 74.7627Z" fill="#3F3D56"/>
<path d="M370.722 103.448C379.61 103.448 386.815 102.907 386.815 102.24C386.815 101.573 379.61 101.033 370.722 101.033C361.834 101.033 354.629 101.573 354.629 102.24C354.629 102.907 361.834 103.448 370.722 103.448Z" fill="#DBDBDB"/>
<path d="M364.348 98.275L315.956 146.692L316.639 147.376L365.031 98.9585L364.348 98.275Z" fill="#3F3D56"/>
<path d="M301.926 152.879H220.655V153.846H301.926V152.879Z" fill="#3F3D56"/>
<path d="M205.822 159.47L160.366 204.949L161.049 205.632L206.505 160.153L205.822 159.47Z" fill="#3F3D56"/>
<path d="M146.626 211.248H92.3115V212.215H146.626V211.248Z" fill="#3F3D56"/>
<path d="M77.5473 217.367L23.5742 271.368L24.2574 272.051L78.2305 218.05L77.5473 217.367Z" fill="#3F3D56"/>
<path d="M83.8631 220.668C82.0964 220.668 80.3695 220.144 78.9006 219.162C77.4316 218.18 76.2868 216.784 75.6107 215.151C74.9346 213.518 74.7576 211.721 75.1023 209.988C75.4469 208.254 76.2976 206.662 77.5468 205.412C78.7959 204.162 80.3875 203.311 82.1202 202.966C83.8528 202.621 85.6488 202.798 87.281 203.474C88.9131 204.151 90.3082 205.296 91.2896 206.766C92.2711 208.236 92.795 209.963 92.795 211.731C92.7923 214.1 91.8504 216.372 90.176 218.047C88.5015 219.723 86.2312 220.665 83.8631 220.668ZM83.8631 203.761C82.2875 203.761 80.7474 204.228 79.4374 205.104C78.1273 205.98 77.1063 207.224 76.5033 208.681C75.9004 210.137 75.7426 211.74 76.0499 213.286C76.3572 214.832 77.1159 216.252 78.23 217.367C79.344 218.481 80.7634 219.24 82.3087 219.548C83.8539 219.855 85.4556 219.698 86.9112 219.094C88.3668 218.491 89.611 217.47 90.4863 216.159C91.3616 214.848 91.8288 213.307 91.8288 211.731C91.8264 209.618 90.9864 207.592 89.493 206.098C87.9997 204.604 85.975 203.763 83.8631 203.761Z" fill="#3F3D56"/>
<path d="M155.076 220.668C153.309 220.668 151.582 220.144 150.113 219.162C148.644 218.18 147.5 216.784 146.823 215.151C146.147 213.518 145.971 211.721 146.315 209.987C146.66 208.254 147.511 206.662 148.76 205.412C150.009 204.162 151.6 203.311 153.333 202.966C155.066 202.621 156.862 202.798 158.494 203.474C160.126 204.151 161.521 205.296 162.503 206.766C163.484 208.236 164.008 209.963 164.008 211.731C164.005 214.1 163.063 216.372 161.389 218.047C159.714 219.723 157.444 220.665 155.076 220.668ZM155.076 203.761C153.5 203.761 151.96 204.228 150.65 205.104C149.34 205.98 148.319 207.225 147.716 208.681C147.113 210.137 146.955 211.74 147.263 213.286C147.57 214.832 148.329 216.252 149.443 217.367C150.557 218.481 151.976 219.24 153.522 219.548C155.067 219.855 156.669 219.698 158.124 219.094C159.58 218.491 160.824 217.47 161.699 216.159C162.574 214.848 163.042 213.307 163.042 211.731C163.039 209.618 162.199 207.592 160.706 206.098C159.212 204.604 157.188 203.763 155.076 203.761Z" fill="#3F3D56"/>
<path d="M212.206 162.299C210.44 162.299 208.713 161.775 207.244 160.793C205.775 159.811 204.63 158.415 203.954 156.782C203.278 155.149 203.101 153.352 203.446 151.619C203.791 149.885 204.641 148.293 205.891 147.043C207.14 145.793 208.731 144.942 210.464 144.597C212.197 144.253 213.992 144.43 215.625 145.106C217.257 145.782 218.652 146.928 219.633 148.397C220.615 149.867 221.139 151.595 221.139 153.362C221.136 155.732 220.194 158.003 218.519 159.679C216.845 161.354 214.574 162.296 212.206 162.299ZM212.206 145.392C210.631 145.392 209.091 145.86 207.781 146.736C206.471 147.611 205.45 148.856 204.847 150.313C204.244 151.769 204.086 153.371 204.394 154.917C204.701 156.463 205.46 157.884 206.574 158.998C207.688 160.113 209.107 160.872 210.653 161.179C212.198 161.487 213.799 161.329 215.255 160.726C216.711 160.122 217.955 159.101 218.83 157.79C219.705 156.48 220.172 154.939 220.172 153.362C220.17 151.249 219.33 149.223 217.836 147.729C216.343 146.235 214.318 145.395 212.206 145.392V145.392Z" fill="#3F3D56"/>
<path d="M310.375 162.299C308.609 162.299 306.882 161.775 305.413 160.793C303.944 159.811 302.799 158.415 302.123 156.782C301.447 155.149 301.27 153.352 301.615 151.619C301.96 149.885 302.81 148.293 304.06 147.043C305.309 145.793 306.9 144.942 308.633 144.597C310.365 144.253 312.161 144.43 313.793 145.106C315.426 145.782 316.821 146.928 317.802 148.397C318.784 149.867 319.307 151.595 319.307 153.362C319.305 155.732 318.363 158.003 316.688 159.679C315.014 161.354 312.743 162.296 310.375 162.299ZM310.375 145.392C308.8 145.392 307.26 145.86 305.95 146.736C304.64 147.611 303.619 148.856 303.016 150.313C302.413 151.769 302.255 153.371 302.563 154.917C302.87 156.463 303.629 157.884 304.743 158.998C305.857 160.113 307.276 160.872 308.821 161.179C310.367 161.487 311.968 161.329 313.424 160.726C314.879 160.122 316.124 159.101 316.999 157.79C317.874 156.48 318.341 154.939 318.341 153.362C318.339 151.249 317.499 149.223 316.005 147.729C314.512 146.235 312.487 145.395 310.375 145.392V145.392Z" fill="#3F3D56"/>
<circle cx="371" cy="93" r="9" fill="#FF9637"/>
<path d="M17.8806 286.685C16.114 286.685 14.3871 286.161 12.9181 285.179C11.4492 284.197 10.3043 282.801 9.62823 281.168C8.95214 279.535 8.77522 277.739 9.11985 276.005C9.46447 274.271 10.3152 272.679 11.5643 271.429C12.8135 270.179 14.4051 269.328 16.1378 268.983C17.8704 268.638 19.6664 268.815 21.2986 269.492C22.9307 270.168 24.3257 271.314 25.3072 272.783C26.2887 274.253 26.8126 275.981 26.8126 277.748C26.8099 280.118 25.868 282.389 24.1935 284.065C22.5191 285.74 20.2487 286.682 17.8806 286.685ZM17.8806 269.778C16.3051 269.778 14.765 270.246 13.4549 271.121C12.1449 271.997 11.1238 273.242 10.5209 274.698C9.91793 276.154 9.76014 277.757 10.0675 279.303C10.3748 280.849 11.1335 282.269 12.2475 283.384C13.3616 284.499 14.781 285.258 16.3262 285.565C17.8715 285.873 19.4732 285.715 20.9288 285.112C22.3844 284.508 23.6285 283.487 24.5039 282.176C25.3792 280.866 25.8464 279.325 25.8464 277.748C25.844 275.635 25.004 273.609 23.5106 272.115C22.0173 270.621 19.9926 269.781 17.8806 269.778Z" fill="#C4C4C4"/>
<path d="M18.0932 289.415C26.9813 289.415 34.1865 288.875 34.1865 288.208C34.1865 287.541 26.9813 287 18.0932 287C9.20519 287 2 287.541 2 288.208C2 288.875 9.20519 289.415 18.0932 289.415Z" fill="#DBDBDB"/>
<path d="M84 176C82.5555 176 81.1251 176.276 79.7905 176.812C78.4559 177.348 77.2433 178.134 76.2218 179.124C75.2004 180.115 74.3901 181.291 73.8373 182.585C73.2845 183.879 73 185.266 73 186.667C73 192.558 84 212 84 212C84 212 95 192.558 95 186.667C95 185.266 94.7155 183.879 94.1627 182.585C93.6099 181.291 92.7996 180.115 91.7782 179.124C90.7567 178.134 89.5441 177.348 88.2095 176.812C86.8749 176.276 85.4445 176 84 176ZM84 192.267C82.8578 192.267 81.7413 191.938 80.7916 191.323C79.8419 190.708 79.1017 189.833 78.6646 188.81C78.2275 187.786 78.1131 186.66 78.336 185.574C78.5588 184.488 79.1088 183.49 79.9165 182.707C80.7241 181.924 81.7531 181.39 82.8734 181.174C83.9936 180.958 85.1548 181.069 86.21 181.493C87.2652 181.917 88.1672 182.635 88.8017 183.555C89.4363 184.476 89.775 185.559 89.775 186.667C89.775 188.152 89.1666 189.576 88.0835 190.626C87.0005 191.677 85.5316 192.267 84 192.267Z" fill="#FD5800"/>
<path d="M212 117C210.555 117 209.125 117.276 207.79 117.812C206.456 118.348 205.243 119.134 204.222 120.124C203.2 121.115 202.39 122.291 201.837 123.585C201.285 124.879 201 126.266 201 127.667C201 133.558 212 153 212 153C212 153 223 133.558 223 127.667C223 126.266 222.715 124.879 222.163 123.585C221.61 122.291 220.8 121.115 219.778 120.124C218.757 119.134 217.544 118.348 216.21 117.812C214.875 117.276 213.445 117 212 117ZM212 133.267C210.858 133.267 209.741 132.938 208.792 132.323C207.842 131.708 207.102 130.833 206.665 129.81C206.228 128.786 206.113 127.66 206.336 126.574C206.559 125.488 207.109 124.49 207.916 123.707C208.724 122.924 209.753 122.39 210.873 122.174C211.994 121.958 213.155 122.069 214.21 122.493C215.265 122.917 216.167 123.635 216.802 124.555C217.436 125.476 217.775 126.559 217.775 127.667C217.775 129.152 217.167 130.576 216.084 131.626C215.001 132.677 213.532 133.267 212 133.267Z" fill="#FD5800"/>
<path d="M528.142 353.923H309.039V355.103H528.142V353.923Z" fill="#BBBBBB"/>
<path d="M240.991 340.248C245.801 340.248 249.699 336.347 249.699 331.535C249.699 326.723 245.801 322.823 240.991 322.823C236.182 322.823 232.283 326.723 232.283 331.535C232.283 336.347 236.182 340.248 240.991 340.248Z" fill="#EFEFEF"/>
<path d="M295.169 303.394C299.978 303.394 303.877 299.493 303.877 294.682C303.877 289.87 299.978 285.969 295.169 285.969C290.36 285.969 286.461 289.87 286.461 294.682C286.461 299.493 290.36 303.394 295.169 303.394Z" fill="#EFEFEF"/>
<path d="M206.999 237.035C211.808 237.035 215.707 233.134 215.707 228.323C215.707 223.511 211.808 219.61 206.999 219.61C202.19 219.61 198.291 223.511 198.291 228.323C198.291 233.134 202.19 237.035 206.999 237.035Z" fill="#EFEFEF"/>
<path d="M4.81152 307.475C4.81152 307.162 4.70085 306.921 4.47949 306.752C4.26139 306.583 3.86589 306.412 3.29297 306.239C2.72005 306.067 2.26432 305.875 1.92578 305.663C1.27799 305.256 0.954102 304.726 0.954102 304.071C0.954102 303.498 1.18685 303.026 1.65234 302.655C2.12109 302.284 2.72819 302.099 3.47363 302.099C3.96842 302.099 4.40951 302.19 4.79688 302.372C5.18424 302.554 5.48861 302.815 5.70996 303.153C5.93132 303.489 6.04199 303.861 6.04199 304.271H4.81152C4.81152 303.9 4.69434 303.611 4.45996 303.402C4.22884 303.191 3.89681 303.085 3.46387 303.085C3.06022 303.085 2.74609 303.171 2.52148 303.344C2.30013 303.516 2.18945 303.757 2.18945 304.066C2.18945 304.327 2.3099 304.545 2.55078 304.721C2.79167 304.893 3.1888 305.062 3.74219 305.229C4.29557 305.391 4.73991 305.578 5.0752 305.79C5.41048 305.998 5.65625 306.239 5.8125 306.513C5.96875 306.783 6.04688 307.1 6.04688 307.465C6.04688 308.057 5.81901 308.529 5.36328 308.881C4.91081 309.229 4.29557 309.403 3.51758 309.403C3.00326 309.403 2.52962 309.309 2.09668 309.12C1.66699 308.928 1.33171 308.664 1.09082 308.329C0.85319 307.994 0.734375 307.603 0.734375 307.157H1.96973C1.96973 307.561 2.10319 307.873 2.37012 308.095C2.63704 308.316 3.01953 308.427 3.51758 308.427C3.94727 308.427 4.26953 308.34 4.48438 308.168C4.70247 307.992 4.81152 307.761 4.81152 307.475ZM13.7676 303.192H11.5508V309.306H10.3252V303.192H8.12793V302.196H13.7676V303.192ZM19.5986 307.65H16.8447L16.2686 309.306H14.9844L17.6699 302.196H18.7783L21.4688 309.306H20.1797L19.5986 307.65ZM17.1914 306.654H19.252L18.2217 303.705L17.1914 306.654ZM26.3916 306.566H25.0146V309.306H23.7793V302.196H26.2793C27.0996 302.196 27.7327 302.38 28.1787 302.748C28.6247 303.116 28.8477 303.648 28.8477 304.345C28.8477 304.82 28.7321 305.219 28.501 305.541C28.2731 305.86 27.9541 306.106 27.5439 306.278L29.1406 309.242V309.306H27.8174L26.3916 306.566ZM25.0146 305.575H26.2842C26.7008 305.575 27.0264 305.471 27.2607 305.263C27.4951 305.051 27.6123 304.763 27.6123 304.398C27.6123 304.018 27.5033 303.723 27.2852 303.515C27.0703 303.306 26.748 303.199 26.3184 303.192H25.0146V305.575ZM36.4121 303.192H34.1953V309.306H32.9697V303.192H30.7725V302.196H36.4121V303.192Z" fill="#0A0A0A"/>
<path d="M73.8699 238.334C73.8699 238.021 73.7592 237.78 73.5379 237.611C73.3198 237.442 72.9243 237.271 72.3514 237.098C71.7784 236.926 71.3227 236.734 70.9842 236.522C70.3364 236.115 70.0125 235.585 70.0125 234.93C70.0125 234.357 70.2452 233.885 70.7107 233.514C71.1795 233.143 71.7866 232.958 72.532 232.958C73.0268 232.958 73.4679 233.049 73.8553 233.231C74.2426 233.413 74.547 233.674 74.7684 234.012C74.9897 234.348 75.1004 234.72 75.1004 235.13H73.8699C73.8699 234.759 73.7527 234.47 73.5184 234.261C73.2872 234.05 72.9552 233.944 72.5223 233.944C72.1186 233.944 71.8045 234.03 71.5799 234.203C71.3585 234.375 71.2478 234.616 71.2478 234.925C71.2478 235.186 71.3683 235.404 71.6092 235.58C71.8501 235.752 72.2472 235.922 72.8006 236.088C73.354 236.25 73.7983 236.437 74.1336 236.649C74.4689 236.857 74.7146 237.098 74.8709 237.372C75.0271 237.642 75.1053 237.959 75.1053 238.324C75.1053 238.916 74.8774 239.388 74.4217 239.74C73.9692 240.088 73.354 240.262 72.576 240.262C72.0616 240.262 71.588 240.168 71.1551 239.979C70.7254 239.787 70.3901 239.523 70.1492 239.188C69.9116 238.853 69.7928 238.462 69.7928 238.016H71.0281C71.0281 238.42 71.1616 238.732 71.4285 238.954C71.6954 239.175 72.0779 239.286 72.576 239.286C73.0057 239.286 73.3279 239.2 73.5428 239.027C73.7609 238.851 73.8699 238.62 73.8699 238.334ZM82.826 234.051H80.6092V240.165H79.3836V234.051H77.1863V233.055H82.826V234.051ZM89.4187 236.991H86.4988V239.178H89.9119V240.165H85.2635V233.055H89.8777V234.051H86.4988V236.014H89.4187V236.991ZM93.6531 237.523V240.165H92.4178V233.055H95.1375C95.9318 233.055 96.5616 233.262 97.0271 233.675C97.4959 234.089 97.7303 234.636 97.7303 235.316C97.7303 236.013 97.5008 236.555 97.0418 236.942C96.5861 237.329 95.9464 237.523 95.1228 237.523H93.6531ZM93.6531 236.532H95.1375C95.5769 236.532 95.9122 236.429 96.1434 236.224C96.3745 236.016 96.49 235.716 96.49 235.326C96.49 234.942 96.3728 234.636 96.1385 234.408C95.9041 234.177 95.5818 234.058 95.1717 234.051H93.6531V236.532ZM85.4148 256.165H84.2332V250.457L82.49 251.052V250.051L85.2635 249.031H85.4148V256.165Z" fill="#0A0A0A"/>
<path d="M144.222 237.465C144.222 237.153 144.112 236.912 143.89 236.743C143.672 236.573 143.277 236.402 142.704 236.23C142.131 236.057 141.675 235.865 141.337 235.654C140.689 235.247 140.365 234.716 140.365 234.062C140.365 233.489 140.598 233.017 141.063 232.646C141.532 232.275 142.139 232.089 142.885 232.089C143.379 232.089 143.82 232.18 144.208 232.363C144.595 232.545 144.9 232.805 145.121 233.144C145.342 233.479 145.453 233.852 145.453 234.262H144.222C144.222 233.891 144.105 233.601 143.871 233.393C143.64 233.181 143.308 233.076 142.875 233.076C142.471 233.076 142.157 233.162 141.932 233.334C141.711 233.507 141.6 233.748 141.6 234.057C141.6 234.317 141.721 234.536 141.962 234.711C142.203 234.884 142.6 235.053 143.153 235.219C143.707 235.382 144.151 235.569 144.486 235.781C144.821 235.989 145.067 236.23 145.223 236.503C145.38 236.773 145.458 237.091 145.458 237.455C145.458 238.048 145.23 238.52 144.774 238.871C144.322 239.22 143.707 239.394 142.929 239.394C142.414 239.394 141.941 239.3 141.508 239.111C141.078 238.919 140.743 238.655 140.502 238.32C140.264 237.984 140.145 237.594 140.145 237.148H141.381C141.381 237.551 141.514 237.864 141.781 238.085C142.048 238.307 142.43 238.417 142.929 238.417C143.358 238.417 143.68 238.331 143.895 238.159C144.113 237.983 144.222 237.752 144.222 237.465ZM153.179 233.183H150.962V239.296H149.736V233.183H147.539V232.187H153.179V233.183ZM159.771 236.122H156.851V238.31H160.264V239.296H155.616V232.187H160.23V233.183H156.851V235.146H159.771V236.122ZM164.006 236.655V239.296H162.77V232.187H165.49C166.284 232.187 166.914 232.394 167.38 232.807C167.848 233.22 168.083 233.767 168.083 234.448C168.083 235.144 167.853 235.686 167.394 236.074C166.939 236.461 166.299 236.655 165.475 236.655H164.006ZM164.006 235.663H165.49C165.929 235.663 166.265 235.561 166.496 235.356C166.727 235.148 166.843 234.848 166.843 234.457C166.843 234.073 166.725 233.767 166.491 233.539C166.257 233.308 165.934 233.189 165.524 233.183H164.006V235.663ZM157.335 255.296H152.554V254.481L154.923 251.898C155.264 251.517 155.507 251.2 155.65 250.946C155.797 250.689 155.87 250.431 155.87 250.174C155.87 249.836 155.774 249.562 155.582 249.354C155.393 249.146 155.137 249.041 154.815 249.041C154.431 249.041 154.133 249.159 153.922 249.393C153.71 249.627 153.604 249.948 153.604 250.355H152.418C152.418 249.922 152.515 249.533 152.711 249.188C152.909 248.84 153.191 248.569 153.555 248.377C153.923 248.185 154.346 248.089 154.825 248.089C155.515 248.089 156.059 248.263 156.456 248.612C156.856 248.957 157.056 249.435 157.056 250.047C157.056 250.402 156.956 250.775 156.754 251.165C156.555 251.553 156.228 251.994 155.772 252.489L154.034 254.349H157.335V255.296Z" fill="#0A0A0A"/>
<path d="M199.809 181.01C199.809 180.697 199.699 180.456 199.477 180.287C199.259 180.118 198.864 179.947 198.291 179.774C197.718 179.602 197.262 179.41 196.924 179.198C196.276 178.791 195.952 178.26 195.952 177.606C195.952 177.033 196.185 176.561 196.65 176.19C197.119 175.819 197.726 175.634 198.471 175.634C198.966 175.634 199.407 175.725 199.795 175.907C200.182 176.089 200.486 176.35 200.708 176.688C200.929 177.024 201.04 177.396 201.04 177.806H199.809C199.809 177.435 199.692 177.146 199.458 176.937C199.227 176.726 198.895 176.62 198.462 176.62C198.058 176.62 197.744 176.706 197.519 176.879C197.298 177.051 197.187 177.292 197.187 177.601C197.187 177.862 197.308 178.08 197.549 178.256C197.79 178.428 198.187 178.597 198.74 178.763C199.293 178.926 199.738 179.113 200.073 179.325C200.408 179.533 200.654 179.774 200.81 180.048C200.967 180.318 201.045 180.635 201.045 181C201.045 181.592 200.817 182.064 200.361 182.416C199.909 182.764 199.293 182.938 198.515 182.938C198.001 182.938 197.527 182.844 197.095 182.655C196.665 182.463 196.33 182.199 196.089 181.864C195.851 181.529 195.732 181.138 195.732 180.692H196.968C196.968 181.096 197.101 181.408 197.368 181.63C197.635 181.851 198.017 181.962 198.515 181.962C198.945 181.962 199.267 181.875 199.482 181.703C199.7 181.527 199.809 181.296 199.809 181.01ZM208.765 176.727H206.549V182.841H205.323V176.727H203.126V175.731H208.765V176.727ZM215.358 179.667H212.438V181.854H215.851V182.841H211.203V175.731H215.817V176.727H212.438V178.69H215.358V179.667ZM219.593 180.199V182.841H218.357V175.731H221.077C221.871 175.731 222.501 175.938 222.967 176.351C223.435 176.765 223.67 177.312 223.67 177.992C223.67 178.689 223.44 179.231 222.981 179.618C222.526 180.005 221.886 180.199 221.062 180.199H219.593ZM219.593 179.208H221.077C221.516 179.208 221.852 179.105 222.083 178.9C222.314 178.692 222.429 178.392 222.429 178.002C222.429 177.618 222.312 177.312 222.078 177.084C221.844 176.853 221.521 176.734 221.111 176.727H219.593V179.208ZM209.513 194.744H210.236C210.601 194.741 210.889 194.646 211.1 194.461C211.315 194.275 211.423 194.007 211.423 193.655C211.423 193.316 211.333 193.054 211.154 192.869C210.978 192.68 210.708 192.586 210.344 192.586C210.025 192.586 209.762 192.678 209.557 192.864C209.352 193.046 209.25 193.286 209.25 193.582H208.063C208.063 193.217 208.159 192.885 208.351 192.586C208.547 192.286 208.817 192.053 209.162 191.887C209.51 191.718 209.899 191.634 210.329 191.634C211.039 191.634 211.595 191.813 211.999 192.171C212.406 192.525 212.609 193.02 212.609 193.655C212.609 193.974 212.507 194.275 212.302 194.558C212.1 194.838 211.838 195.05 211.515 195.193C211.906 195.327 212.202 195.537 212.404 195.823C212.609 196.109 212.712 196.451 212.712 196.848C212.712 197.486 212.492 197.994 212.053 198.372C211.616 198.749 211.042 198.938 210.329 198.938C209.645 198.938 209.085 198.756 208.649 198.391C208.213 198.027 207.995 197.542 207.995 196.936H209.181C209.181 197.249 209.286 197.503 209.494 197.698C209.706 197.893 209.989 197.991 210.344 197.991C210.711 197.991 211.001 197.893 211.213 197.698C211.424 197.503 211.53 197.219 211.53 196.848C211.53 196.474 211.419 196.186 211.198 195.984C210.977 195.782 210.648 195.681 210.212 195.681H209.513V194.744Z" fill="#0A0A0A"/>
<path d="M299.692 179.273C299.692 178.96 299.582 178.719 299.36 178.55C299.142 178.381 298.747 178.21 298.174 178.037C297.601 177.865 297.145 177.673 296.806 177.461C296.159 177.054 295.835 176.524 295.835 175.869C295.835 175.296 296.068 174.824 296.533 174.453C297.002 174.082 297.609 173.897 298.354 173.897C298.849 173.897 299.29 173.988 299.678 174.17C300.065 174.352 300.369 174.613 300.591 174.951C300.812 175.287 300.923 175.659 300.923 176.07H299.692C299.692 175.698 299.575 175.409 299.341 175.2C299.109 174.989 298.777 174.883 298.345 174.883C297.941 174.883 297.627 174.969 297.402 175.142C297.181 175.314 297.07 175.555 297.07 175.865C297.07 176.125 297.191 176.343 297.431 176.519C297.672 176.691 298.069 176.861 298.623 177.027C299.176 177.189 299.621 177.377 299.956 177.588C300.291 177.796 300.537 178.037 300.693 178.311C300.849 178.581 300.928 178.898 300.928 179.263C300.928 179.855 300.7 180.327 300.244 180.679C299.791 181.027 299.176 181.201 298.398 181.201C297.884 181.201 297.41 181.107 296.977 180.918C296.548 180.726 296.212 180.462 295.971 180.127C295.734 179.792 295.615 179.401 295.615 178.955H296.85C296.85 179.359 296.984 179.671 297.251 179.893C297.518 180.114 297.9 180.225 298.398 180.225C298.828 180.225 299.15 180.139 299.365 179.966C299.583 179.79 299.692 179.559 299.692 179.273ZM308.648 174.99H306.431V181.104H305.206V174.99H303.009V173.994H308.648V174.99ZM315.241 177.93H312.321V180.117H315.734V181.104H311.086V173.994H315.7V174.99H312.321V176.953H315.241V177.93ZM319.475 178.462V181.104H318.24V173.994H320.96C321.754 173.994 322.384 174.201 322.849 174.615C323.318 175.028 323.553 175.575 323.553 176.255C323.553 176.952 323.323 177.494 322.864 177.881C322.408 178.268 321.769 178.462 320.945 178.462H319.475ZM319.475 177.471H320.96C321.399 177.471 321.734 177.368 321.966 177.163C322.197 176.955 322.312 176.656 322.312 176.265C322.312 175.881 322.195 175.575 321.961 175.347C321.726 175.116 321.404 174.997 320.994 174.99H319.475V177.471ZM312.038 194.57H312.922V195.522H312.038V197.104H310.851V195.522H307.78L307.746 194.799L310.812 189.994H312.038V194.57ZM308.991 194.57H310.851V191.601L310.763 191.757L308.991 194.57Z" fill="#0A0A0A"/>
<path d="M363.943 118.868H361.023V121.056H364.437V122.042H359.788V114.932H364.402V115.929H361.023V117.891H363.943V118.868ZM372.582 122.042H371.347L368.178 116.998V122.042H366.942V114.932H368.178L371.356 119.996V114.932H372.582V122.042ZM375.542 122.042V114.932H377.642C378.27 114.932 378.826 115.072 379.312 115.352C379.8 115.632 380.177 116.03 380.444 116.544C380.711 117.058 380.845 117.647 380.845 118.311V118.668C380.845 119.342 380.71 119.934 380.439 120.445C380.173 120.956 379.79 121.35 379.292 121.627C378.797 121.904 378.229 122.042 377.588 122.042H375.542ZM376.777 115.929V121.056H377.583C378.231 121.056 378.727 120.854 379.072 120.45C379.421 120.043 379.598 119.46 379.604 118.702V118.307C379.604 117.535 379.437 116.946 379.102 116.539C378.766 116.132 378.28 115.929 377.642 115.929H376.777Z" fill="#0A0A0A"/>
<path d="M401.535 8.63184C401.48 9.39681 401.197 9.99902 400.686 10.4385C400.178 10.8779 399.507 11.0977 398.674 11.0977C397.762 11.0977 397.045 10.7917 396.521 10.1797C396 9.56445 395.739 8.72135 395.739 7.65039V7.21582C395.739 6.53223 395.86 5.93001 396.101 5.40918C396.341 4.88835 396.685 4.48958 397.131 4.21289C397.58 3.93294 398.101 3.79297 398.693 3.79297C399.514 3.79297 400.174 4.0127 400.676 4.45215C401.177 4.8916 401.467 5.50846 401.545 6.30273H400.08C400.044 5.84375 399.916 5.51172 399.694 5.30664C399.476 5.09831 399.143 4.99414 398.693 4.99414C398.205 4.99414 397.839 5.16992 397.595 5.52148C397.354 5.86979 397.23 6.41178 397.224 7.14746V7.68457C397.224 8.4528 397.339 9.01432 397.57 9.36914C397.805 9.72396 398.173 9.90137 398.674 9.90137C399.126 9.90137 399.463 9.79883 399.685 9.59375C399.909 9.38542 400.038 9.06478 400.07 8.63184H401.535ZM409.378 3.89062V8.57324C409.378 9.35124 409.134 9.96647 408.646 10.4189C408.16 10.8714 407.496 11.0977 406.653 11.0977C405.823 11.0977 405.164 10.8779 404.676 10.4385C404.188 9.99902 403.938 9.39518 403.929 8.62695V3.89062H405.394V8.58301C405.394 9.0485 405.504 9.38867 405.726 9.60352C405.95 9.8151 406.259 9.9209 406.653 9.9209C407.477 9.9209 407.895 9.48796 407.908 8.62207V3.89062H409.378ZM415.766 9.13477C415.766 8.85807 415.668 8.64648 415.473 8.5C415.277 8.35026 414.926 8.19401 414.418 8.03125C413.91 7.86523 413.508 7.70247 413.212 7.54297C412.405 7.10677 412.001 6.51921 412.001 5.78027C412.001 5.39616 412.108 5.05436 412.323 4.75488C412.541 4.45215 412.852 4.21615 413.256 4.04688C413.663 3.8776 414.118 3.79297 414.623 3.79297C415.131 3.79297 415.583 3.88574 415.98 4.07129C416.378 4.25358 416.685 4.51237 416.903 4.84766C417.125 5.18294 417.235 5.5638 417.235 5.99023H415.771C415.771 5.66471 415.668 5.41243 415.463 5.2334C415.258 5.05111 414.97 4.95996 414.599 4.95996C414.241 4.95996 413.962 5.03646 413.764 5.18945C413.565 5.33919 413.466 5.53776 413.466 5.78516C413.466 6.01628 413.581 6.20996 413.812 6.36621C414.047 6.52246 414.39 6.66895 414.843 6.80566C415.676 7.05632 416.283 7.36719 416.664 7.73828C417.045 8.10938 417.235 8.57161 417.235 9.125C417.235 9.74023 417.003 10.2236 416.537 10.5752C416.072 10.9235 415.445 11.0977 414.657 11.0977C414.11 11.0977 413.612 10.9984 413.163 10.7998C412.714 10.598 412.37 10.3229 412.133 9.97461C411.898 9.6263 411.781 9.22266 411.781 8.76367H413.251C413.251 9.54818 413.72 9.94043 414.657 9.94043C415.006 9.94043 415.277 9.87044 415.473 9.73047C415.668 9.58724 415.766 9.38867 415.766 9.13477ZM425.083 5.07715H422.905V11H421.44V5.07715H419.292V3.89062H425.083V5.07715ZM433.126 7.60645C433.126 8.30632 433.002 8.91992 432.755 9.44727C432.507 9.97461 432.153 10.3815 431.69 10.668C431.231 10.9544 430.704 11.0977 430.108 11.0977C429.519 11.0977 428.993 10.9561 428.531 10.6729C428.069 10.3896 427.711 9.986 427.457 9.46191C427.203 8.93457 427.075 8.3291 427.071 7.64551V7.29395C427.071 6.59408 427.197 5.97884 427.447 5.44824C427.701 4.91439 428.058 4.50586 428.517 4.22266C428.979 3.9362 429.506 3.79297 430.099 3.79297C430.691 3.79297 431.217 3.9362 431.676 4.22266C432.138 4.50586 432.494 4.91439 432.745 5.44824C432.999 5.97884 433.126 6.59245 433.126 7.28906V7.60645ZM431.642 7.28418C431.642 6.53874 431.508 5.97233 431.241 5.58496C430.974 5.19759 430.593 5.00391 430.099 5.00391C429.607 5.00391 429.228 5.19596 428.961 5.58008C428.694 5.96094 428.559 6.52083 428.556 7.25977V7.60645C428.556 8.33236 428.689 8.89551 428.956 9.2959C429.223 9.69629 429.607 9.89648 430.108 9.89648C430.6 9.89648 430.978 9.70443 431.241 9.32031C431.505 8.93294 431.638 8.36979 431.642 7.63086V7.28418ZM437.604 3.89062L439.431 9.04688L441.247 3.89062H443.171V11H441.701V9.05664L441.848 5.70215L439.929 11H438.923L437.009 5.70703L437.155 9.05664V11H435.69V3.89062H437.604ZM450.228 7.91895H447.415V9.82324H450.716V11H445.95V3.89062H450.706V5.07715H447.415V6.77148H450.228V7.91895ZM455.707 8.39746H454.54V11H453.075V3.89062H455.717C456.557 3.89062 457.204 4.0778 457.66 4.45215C458.116 4.8265 458.344 5.35547 458.344 6.03906C458.344 6.52409 458.238 6.92936 458.026 7.25488C457.818 7.57715 457.501 7.83431 457.074 8.02637L458.612 10.9316V11H457.04L455.707 8.39746ZM454.54 7.21094H455.722C456.09 7.21094 456.374 7.11816 456.576 6.93262C456.778 6.74382 456.879 6.48503 456.879 6.15625C456.879 5.82096 456.783 5.55729 456.591 5.36523C456.402 5.17318 456.111 5.07715 455.717 5.07715H454.54V7.21094ZM461.313 11.6104H460.264L462.881 3.89062H463.931L461.313 11.6104ZM471.783 8.63184C471.728 9.39681 471.445 9.99902 470.934 10.4385C470.426 10.8779 469.755 11.0977 468.922 11.0977C468.01 11.0977 467.293 10.7917 466.769 10.1797C466.248 9.56445 465.987 8.72135 465.987 7.65039V7.21582C465.987 6.53223 466.108 5.93001 466.349 5.40918C466.59 4.88835 466.933 4.48958 467.379 4.21289C467.828 3.93294 468.349 3.79297 468.941 3.79297C469.762 3.79297 470.423 4.0127 470.924 4.45215C471.425 4.8916 471.715 5.50846 471.793 6.30273H470.328C470.292 5.84375 470.164 5.51172 469.942 5.30664C469.724 5.09831 469.391 4.99414 468.941 4.99414C468.453 4.99414 468.087 5.16992 467.843 5.52148C467.602 5.86979 467.478 6.41178 467.472 7.14746V7.68457C467.472 8.4528 467.587 9.01432 467.818 9.36914C468.053 9.72396 468.421 9.90137 468.922 9.90137C469.374 9.90137 469.711 9.79883 469.933 9.59375C470.157 9.38542 470.286 9.06478 470.318 8.63184H471.783ZM475.71 9.82324H478.82V11H474.245V3.89062H475.71V9.82324ZM482.723 11H481.258V3.89062H482.723V11ZM489.862 7.91895H487.05V9.82324H490.351V11H485.585V3.89062H490.341V5.07715H487.05V6.77148H489.862V7.91895ZM498.491 11H497.026L494.175 6.32227V11H492.71V3.89062H494.175L497.031 8.57812V3.89062H498.491V11ZM506.476 5.07715H504.298V11H502.833V5.07715H500.685V3.89062H506.476V5.07715Z" fill="#0A0A0A"/>
<path d="M240.749 253.134C239.825 253.134 239.227 253.386 238.954 253.891C238.702 254.395 238.576 255.005 238.576 255.72V263.889C238.576 265.529 238.755 266.98 239.112 268.241C239.489 269.503 240.109 270.501 240.97 271.237C241.852 271.952 243.059 272.32 244.591 272.341C246.691 272.362 248.245 271.668 249.253 270.26C250.26 268.83 250.775 266.906 250.796 264.488L250.859 255.815C250.859 255.352 250.859 254.911 250.859 254.49C250.88 254.048 250.911 253.67 250.953 253.355C250.575 253.376 250.176 253.397 249.756 253.418C249.358 253.439 248.99 253.46 248.654 253.481V251.746H255.016V253.134C254.323 253.155 253.819 253.302 253.504 253.575C253.189 253.828 252.99 254.206 252.906 254.711C252.822 255.215 252.78 255.857 252.78 256.635L252.748 264.141C252.748 266.16 252.433 267.936 251.804 269.471C251.195 271.006 250.26 272.205 249.001 273.067C247.741 273.908 246.124 274.328 244.151 274.328C241.883 274.328 240.098 273.918 238.797 273.098C237.495 272.278 236.571 271.069 236.025 269.471C235.479 267.852 235.206 265.886 235.206 263.573V256.761C235.206 256.193 235.217 255.583 235.238 254.932C235.28 254.259 235.311 253.733 235.332 253.355C234.975 253.376 234.587 253.397 234.167 253.418C233.747 253.439 233.369 253.449 233.033 253.449V251.746H240.749V253.134ZM256.524 273.824V272.436C257.385 272.247 258.109 271.858 258.697 271.269C259.306 270.659 259.967 269.829 260.681 268.777L264.649 263.258C263.39 261.534 262.34 260.115 261.5 259C260.681 257.886 259.978 256.929 259.39 256.13C259.012 255.583 258.708 255.1 258.477 254.679C258.267 254.259 258.078 253.838 257.91 253.418C257.595 253.418 257.301 253.428 257.028 253.449C256.755 253.449 256.493 253.46 256.241 253.481V251.746H264.87V253.134L263.831 253.165C263.096 253.186 262.634 253.323 262.445 253.575C262.256 253.807 262.235 254.101 262.382 254.458C262.529 254.816 262.739 255.194 263.012 255.594C263.411 256.225 263.915 256.971 264.523 257.833C265.153 258.674 265.825 259.578 266.539 260.546L269.342 256.509C269.846 255.815 270.308 255.194 270.728 254.648C271.148 254.08 271.515 253.649 271.83 253.355C271.431 253.376 271.001 253.397 270.539 253.418C270.077 253.439 269.657 253.46 269.279 253.481V251.746H275.798V253.134C274.895 253.26 274.056 253.723 273.279 254.522C272.502 255.321 271.757 256.225 271.043 257.234L267.641 261.996C268.733 263.426 269.783 264.803 270.791 266.128C271.82 267.453 272.659 268.546 273.31 269.408C273.688 269.871 274.045 270.333 274.381 270.796C274.717 271.258 275.032 271.71 275.326 272.152C275.641 272.131 275.924 272.121 276.176 272.121C276.428 272.099 276.691 272.089 276.964 272.089V273.824H268.681V272.436C269.479 272.457 270.003 272.362 270.255 272.152C270.507 271.921 270.581 271.626 270.476 271.269C270.371 270.911 270.182 270.554 269.909 270.197C269.405 269.524 268.786 268.735 268.051 267.831C267.337 266.906 266.571 265.876 265.752 264.74C265.248 265.455 264.744 266.181 264.24 266.917C263.736 267.652 263.243 268.388 262.76 269.124C262.361 269.692 261.983 270.228 261.626 270.733C261.269 271.237 260.881 271.732 260.461 272.215C260.86 272.194 261.28 272.173 261.72 272.152C262.161 272.131 262.571 272.11 262.949 272.089V273.824H256.524ZM294.979 258.559C294.958 256.75 294.653 255.405 294.065 254.522C293.477 253.638 292.438 253.197 290.947 253.197H288.68L288.648 269.597C288.648 270.165 288.638 270.68 288.617 271.143C288.596 271.584 288.575 271.942 288.554 272.215C288.953 272.194 289.383 272.173 289.845 272.152C290.328 272.11 290.759 272.089 291.136 272.089V273.824H283.137V272.436C283.809 272.415 284.292 272.278 284.586 272.026C284.901 271.753 285.1 271.364 285.184 270.859C285.268 270.333 285.31 269.692 285.31 268.935V253.228L282.665 253.26C281.384 253.26 280.449 253.691 279.862 254.553C279.274 255.415 278.98 256.75 278.98 258.559H277.5L277.689 251.746H296.27L296.459 258.559H294.979ZM306.681 266.301C306.576 265.313 306.229 264.546 305.642 263.999C305.064 263.452 304.319 263.179 303.406 263.179C302.66 263.179 301.983 263.389 301.374 263.81C300.765 264.22 300.277 264.803 299.91 265.56C299.553 266.317 299.374 267.211 299.374 268.241C299.374 269.229 299.563 270.102 299.941 270.859C300.319 271.616 300.828 272.205 301.469 272.625C302.109 273.046 302.818 273.256 303.594 273.256C304.277 273.256 304.949 273.103 305.61 272.799C306.271 272.483 306.812 272.031 307.232 271.442L307.641 271.774C307.19 272.394 306.702 272.872 306.177 273.209C305.652 273.545 305.127 273.771 304.602 273.887C304.088 274.013 303.615 274.076 303.185 274.076C302.398 274.076 301.673 273.934 301.012 273.65C300.361 273.366 299.794 272.972 299.311 272.467C298.839 271.952 298.471 271.358 298.209 270.685C297.957 270.002 297.831 269.266 297.831 268.478C297.831 267.731 297.941 267.006 298.162 266.301C298.393 265.597 298.734 264.961 299.185 264.393C299.637 263.826 300.204 263.374 300.886 263.037C301.579 262.701 302.382 262.533 303.295 262.533C304.45 262.533 305.51 262.853 306.476 263.494L306.397 262.643H307.248V266.301H306.681ZM310.873 273.824V273.303C311.272 273.282 311.545 273.193 311.692 273.035C311.839 272.867 311.918 272.641 311.928 272.357C311.949 272.063 311.96 271.732 311.96 271.364V264.551C311.96 264.11 311.975 263.731 312.007 263.416C311.818 263.426 311.629 263.437 311.44 263.447C311.251 263.458 311.062 263.468 310.873 263.479V262.785H314.416V263.305C314.028 263.316 313.755 263.405 313.597 263.573C313.45 263.742 313.366 263.968 313.345 264.251C313.335 264.535 313.33 264.866 313.33 265.245V272.01C313.33 272.557 313.314 272.967 313.282 273.24L316.227 273.193C316.888 273.182 317.387 272.972 317.723 272.562C318.069 272.152 318.243 271.484 318.243 270.559H318.778L318.684 273.824H310.873ZM321.167 273.824V273.303C321.482 273.303 321.724 273.219 321.892 273.051C322.06 272.883 322.196 272.651 322.301 272.357C322.416 272.063 322.548 271.721 322.695 271.332L325.939 262.485H326.316L329.828 271.458C329.912 271.679 330.007 271.963 330.111 272.31C330.216 272.657 330.258 272.951 330.237 273.193C330.416 273.182 330.594 273.172 330.773 273.161C330.951 273.151 331.13 273.14 331.308 273.13V273.824H327.702V273.303C328.101 273.293 328.364 273.203 328.49 273.035C328.616 272.867 328.663 272.667 328.631 272.436C328.6 272.205 328.547 271.994 328.474 271.805L327.923 270.323L323.828 270.417L323.277 272.105C323.204 272.357 323.136 272.557 323.073 272.704C323.02 272.851 322.957 273.014 322.884 273.193C323.094 273.182 323.298 273.172 323.498 273.161C323.708 273.151 323.912 273.14 324.112 273.13V273.824H321.167ZM324.065 269.739H327.702L326.584 266.727C326.469 266.401 326.348 266.081 326.222 265.765C326.107 265.439 325.991 265.114 325.876 264.788H325.844C325.739 265.082 325.629 265.376 325.513 265.671C325.408 265.965 325.298 266.265 325.183 266.57L324.065 269.739ZM342.489 274.076L336.206 265.623C336.111 265.497 336.017 265.376 335.922 265.261C335.838 265.135 335.749 265.008 335.654 264.882H335.639L335.686 271.632C335.686 271.894 335.686 272.157 335.686 272.42C335.686 272.683 335.675 272.941 335.654 273.193C335.843 273.182 336.032 273.172 336.221 273.161C336.41 273.151 336.599 273.14 336.788 273.13V273.824H333.906V273.303C334.232 273.303 334.463 273.235 334.599 273.098C334.746 272.951 334.841 272.783 334.883 272.594C334.925 272.394 334.946 272.215 334.946 272.057L334.962 264.472V263.416C334.794 263.426 334.62 263.437 334.442 263.447C334.263 263.458 334.085 263.468 333.906 263.479V262.785H335.78L341.685 270.701C341.822 270.88 341.953 271.059 342.079 271.237C342.216 271.416 342.352 271.595 342.489 271.774H342.504L342.52 264.551C342.52 264.11 342.536 263.731 342.567 263.416C342.378 263.426 342.189 263.437 342 263.447C341.811 263.458 341.623 263.468 341.434 263.479V262.785H344.331V263.305C343.943 263.316 343.675 263.405 343.528 263.573C343.381 263.742 343.302 263.968 343.292 264.251C343.281 264.535 343.276 264.866 343.276 265.245L343.244 274.076H342.489Z" fill="#0A0A0A"/>
<circle cx="18" cy="278" r="9" fill="#FF9637"/>
<path d="M472.303 45.8014C467.875 32.6562 453.632 25.5887 440.49 30.0156C427.347 34.4425 420.283 48.6875 424.711 61.8326L434.776 91.7142C439.204 104.859 453.447 111.927 466.59 107.5C479.732 103.073 486.797 88.8281 482.369 75.683L472.303 45.8014Z" fill="#4D3A3C"/>
<path d="M441.209 62.0187C441.209 62.0187 450.536 75.4088 441.209 78.9037C431.882 82.3987 428.344 92.3045 428.344 92.3045C428.344 92.3045 425.428 103.958 431.839 106.241C438.25 108.525 462.715 95.1776 466.21 91.6827C469.704 88.1878 466.21 78.8179 466.21 78.8179C466.21 78.8179 456.893 65.9532 457.472 57.8484C458.051 49.7436 441.209 62.0187 441.209 62.0187Z" fill="#FFCEBE"/>
<path opacity="0.1" d="M441.209 62.0187C441.209 62.0187 450.536 75.4088 441.209 78.9037C431.882 82.3987 428.344 92.3045 428.344 92.3045C428.344 92.3045 425.428 103.958 431.839 106.241C438.25 108.525 462.715 95.1776 466.21 91.6827C469.704 88.1878 466.21 78.8179 466.21 78.8179C466.21 78.8179 456.893 65.9532 457.472 57.8484C458.051 49.7436 441.209 62.0187 441.209 62.0187Z" fill="#FEFEFE"/>
<path d="M466.264 165.706C466.264 165.706 487.234 209.403 494.235 212.319C501.235 215.235 519.868 213.477 514.035 229.793C508.203 246.11 502.382 238.531 507.603 250.163C512.824 261.795 533.826 278.712 516.93 271.711C500.034 264.711 480.223 248.415 469.159 250.742C458.095 253.068 430.329 243.698 424.132 244.888C417.936 246.078 420.241 219.287 420.241 219.287L437.715 193.654L466.264 165.706Z" fill="#1E2037"/>
<path d="M445.872 210.576C445.872 210.576 437.103 242.577 441.798 247.272C442.377 247.851 458.104 251.936 468.6 263.589C474.995 270.652 482.713 276.392 491.317 280.485L481.99 290.38C481.99 290.38 461.621 274.074 448.756 271.158C435.891 268.242 422.544 258.293 422.544 254.852C422.544 251.411 431.281 207.681 431.281 207.681L445.872 210.576Z" fill="#FFCEBE"/>
<path opacity="0.1" d="M445.872 210.576C445.872 210.576 437.103 242.577 441.798 247.272C442.377 247.851 458.104 251.936 468.6 263.589C474.995 270.652 482.713 276.392 491.317 280.485L481.99 290.38C481.99 290.38 461.621 274.074 448.756 271.158C435.891 268.242 422.544 258.293 422.544 254.852C422.544 251.411 431.281 207.681 431.281 207.681L445.872 210.576Z" fill="#E3B799"/>
<path d="M483.749 274.072C483.749 274.072 488.991 270.577 492.497 275.24C496.002 279.904 511.129 286.883 511.129 286.883C511.129 286.883 518.13 286.883 514.624 294.463L511.129 302.031L508.803 300.873C508.803 300.873 506.477 324.169 493.655 326.507C493.655 326.507 489.581 326.506 493.076 316.011C493.076 316.011 498.318 311.358 488.991 302.074C488.991 302.074 480.254 300.916 480.254 298C480.254 298 473.264 296.253 475.601 291.568C477.938 286.883 487.823 280.483 483.749 274.072Z" fill="#011214"/>
<path d="M415.577 222.807C415.577 222.807 413.251 234.46 411.503 236.208C409.756 237.955 409.756 243.776 411.503 250.144C413.251 256.512 414.419 293.252 408.587 311.316C402.755 329.38 416.746 321.222 416.746 321.222C416.746 321.222 434.81 276.356 432.473 254.754C430.136 233.152 452.842 209.888 452.842 209.888L424.904 204.742L415.577 222.807Z" fill="#FFCEBE"/>
<path d="M410.152 305.344C410.152 305.344 405.681 308.443 405.092 310.769C404.743 312.167 403.921 313.402 402.765 314.264C402.765 314.264 398.102 322.422 398.102 329.412C398.102 336.402 383.543 346.898 383.543 346.898C383.543 346.898 367.805 355.045 389.365 353.887C410.924 352.73 416.166 351.55 416.166 351.55V353.887C416.166 353.887 425.482 354.466 424.904 347.455C424.325 340.444 423.714 324.17 423.714 324.17C423.714 324.17 430.703 317.18 428.377 311.938C426.051 306.695 421.945 306.899 421.945 306.899C421.945 306.899 418.428 318.348 415.512 317.759C412.596 317.169 410.549 309.236 410.152 305.344Z" fill="#011214"/>
<path d="M418.493 120.849L402.766 177.357C402.766 177.357 394.607 197.169 401.018 196.579C407.429 195.99 410.334 175.61 410.334 175.61L422.577 147.651L424.325 125.512L418.493 120.849Z" fill="#FFCEBE"/>
<path d="M446.752 66.3789C455.437 66.3789 462.479 59.3377 462.479 50.6518C462.479 41.9659 455.437 34.9246 446.752 34.9246C438.066 34.9246 431.024 41.9659 431.024 50.6518C431.024 59.3377 438.066 66.3789 446.752 66.3789Z" fill="#FFCEBE"/>
<path d="M433.642 98.1382C433.642 98.1382 431.262 85.8095 438.273 80.3205C438.273 80.3205 429.568 79.4951 427.82 81.8214C427.82 81.8214 417.325 82.4003 417.325 89.4009C417.325 96.4014 416.167 105.128 415.577 106.286C414.988 107.444 412.672 112.718 416.167 124.929C419.662 137.14 425.816 142.704 422.278 149.115C421.173 151.371 420.269 153.721 419.576 156.137C416.328 166.656 415.002 177.674 415.663 188.663C416.285 199.062 415.931 213.932 410.303 223.366C400.987 239.093 467.401 214.05 468.569 208.807C469.738 203.565 471.475 189.574 469.148 182.006C467.745 177.086 467.347 171.934 467.98 166.857C467.98 166.857 472.643 145.888 460.411 134.235L476.717 85.8845C476.717 85.8845 469.727 78.305 464.485 78.8839C459.242 79.4628 433.642 98.1382 433.642 98.1382Z" fill="#1E2037"/>
<path d="M469.18 99.8842L468.901 100.688C467.036 106.327 456.326 139.658 462.19 147.655C462.19 147.655 469.18 149.403 471.506 140.076C473.833 130.749 481.412 94.6419 478.496 91.7259C475.58 88.8098 469.18 99.8842 469.18 99.8842Z" fill="#FFCEBE"/>
<path opacity="0.1" d="M469.18 99.8842L468.901 100.688C467.036 106.327 456.326 139.658 462.19 147.655C462.19 147.655 469.18 149.403 471.506 140.076C473.833 130.749 481.412 94.6419 478.496 91.7259C475.58 88.8098 469.18 99.8842 469.18 99.8842Z" fill="#FEFEFE"/>
<path d="M476.748 85.3122C476.748 85.3122 481.412 87.0596 480.243 91.7445C479.074 96.4295 466.306 105.145 466.306 105.145L465.138 95.2395L476.748 85.3122Z" fill="#1E2037"/>
<path d="M462.191 135.423C462.191 135.423 477.339 115.611 479.086 108.031C480.834 100.452 468.012 80.6511 477.339 81.8196C486.666 82.9882 488.981 99.2942 488.981 99.2942C488.981 99.2942 490.729 102.21 486.655 113.285C482.581 124.359 476.17 140.086 472.718 143.57C469.266 147.055 459.274 156.971 462.191 135.423Z" fill="#FFCEBE"/>
<path d="M456.348 64.704C456.318 64.7333 456.318 64.7333 456.318 64.7333C452.633 69.2371 448.188 70.6409 442.719 70.6409C436.49 70.6409 433.799 64.704 432.805 60.7558C432.337 58.9719 431.5 55.5 431.5 54.5C434.307 55.9915 436.461 52.8888 436.461 52.8888C436.607 51.719 436.987 50.7246 436.987 50.7246C439.765 50.8416 443.275 53.6492 445.322 54.6728C447.369 55.6671 452.303 53.4944 454 52.5C454 52.5 453.072 58.5624 453.979 61.3408C454.885 64.1191 456.348 64.704 456.348 64.704Z" fill="white"/>
<path d="M456 65L458 61.5" stroke="white" stroke-width="0.2"/>
<path d="M456.089 31.8409C454.861 31.7814 453.632 31.9338 452.455 32.2912C451.563 30.6485 450.252 29.2714 448.655 28.3C447.058 27.3287 445.232 26.7978 443.363 26.7614C441.494 26.7249 439.649 27.1842 438.015 28.0925C436.381 29.0009 435.017 30.3258 434.062 31.9324C433.106 33.5391 432.594 35.3702 432.576 37.2394C432.558 39.1086 433.035 40.9492 433.96 42.5738C434.884 44.1985 436.223 45.5493 437.839 46.4887C439.455 47.4281 441.291 47.9225 443.16 47.9218H443.696C444.454 47.8757 445.212 47.9979 445.916 48.2796C446.621 48.5614 447.254 48.9957 447.77 49.5514C448.942 50.8366 450.413 51.813 452.053 52.3942C453.692 52.9754 455.45 53.1434 457.17 52.8834C458.89 52.6234 460.519 51.9435 461.913 50.9037C463.308 49.8638 464.425 48.4963 465.164 46.922C465.904 45.3478 466.245 43.6154 466.156 41.8782C466.066 40.141 465.55 38.4527 464.653 36.9625C463.756 35.4724 462.505 34.2265 461.011 33.335C459.517 32.4436 457.827 31.934 456.089 31.8516V31.8409Z" fill="#4D3A3C"/>
</svg>
