<svg width="557" height="356" viewBox="0 0 557 356" fill="none" xmlns="http://www.w3.org/2000/svg">
<path d="M549.181 150.619C529.071 71.5009 459.585 14.3888 378.023 12.098C334.904 10.887 289.53 25.1952 256.495 75.2647C197.441 164.769 260.124 226.62 303.825 256.01C324.938 270.237 343.962 287.345 360.346 306.837C389.864 341.884 446.651 385.434 514.282 317.197C563.301 267.739 562.576 203.319 549.181 150.619Z" fill="#FAFAFA"/>
<path d="M84.4278 210.602C83.886 209.799 83.3534 208.975 82.8445 208.152L83.6664 207.644C84.1684 208.456 84.6939 209.269 85.2284 210.061L84.4278 210.602Z" fill="#3F3D56"/>
<path d="M79.9314 202.971C79.0352 201.211 78.2023 199.393 77.456 197.568L78.35 197.201C79.0867 199.002 79.9083 200.796 80.7924 202.532L79.9314 202.971ZM75.4367 191.978C74.844 190.096 74.3229 188.166 73.8877 186.24L74.8303 186.027C75.2594 187.926 75.7734 189.831 76.3581 191.687L75.4367 191.978ZM72.8193 180.394C72.5454 178.443 72.3492 176.454 72.2355 174.481L73.2003 174.425C73.3121 176.372 73.506 178.335 73.7761 180.26L72.8193 180.394ZM73.1007 168.561L72.135 168.539C72.1815 166.563 72.3098 164.568 72.5162 162.61L73.4772 162.712C73.2734 164.644 73.1467 166.612 73.1007 168.561ZM74.3314 156.913L73.3821 156.732C73.7501 154.794 74.2037 152.847 74.7305 150.946L75.6618 151.204C75.1419 153.08 74.6944 155 74.3314 156.913ZM77.4607 145.625L76.5544 145.29C77.2375 143.439 78.0072 141.592 78.842 139.802L79.7176 140.211C78.8939 141.977 78.1346 143.798 77.4607 145.625ZM209.784 142.637C209.029 140.845 208.188 139.061 207.286 137.334L208.142 136.886C209.057 138.637 209.909 140.445 210.674 142.261L209.784 142.637ZM82.4141 135.003L81.5753 134.523C82.5537 132.811 83.6164 131.117 84.7338 129.488L85.5302 130.035C84.4279 131.642 83.3793 133.313 82.4141 135.003ZM204.358 132.256C203.318 130.611 202.196 128.989 201.023 127.435L201.794 126.853C202.983 128.428 204.12 130.072 205.174 131.738L204.358 132.256ZM89.0437 125.341L88.2946 124.731C89.541 123.2 90.8658 121.704 92.2327 120.281L92.9291 120.951C91.5805 122.355 90.2732 123.832 89.0437 125.341ZM197.304 122.904C196.008 121.451 194.636 120.034 193.226 118.692L193.892 117.992C195.321 119.352 196.711 120.788 198.025 122.26L197.304 122.904ZM97.1602 116.894L96.5209 116.169C97.9993 114.864 99.5502 113.603 101.131 112.423L101.709 113.198C100.149 114.362 98.6189 115.606 97.1602 116.894ZM188.818 114.829C187.302 113.607 185.717 112.432 184.107 111.339L184.65 110.539C186.282 111.647 187.888 112.837 189.424 114.076L188.818 114.829ZM106.543 109.888L106.031 109.068C107.704 108.021 109.44 107.032 111.19 106.128L111.633 106.987C109.906 107.879 108.194 108.855 106.543 109.888ZM179.126 108.249C177.429 107.29 175.673 106.392 173.907 105.58L174.311 104.701C176.101 105.525 177.88 106.435 179.601 107.407L179.126 108.249ZM116.944 104.517L116.573 103.625C118.394 102.868 120.268 102.179 122.144 101.576L122.439 102.496C120.589 103.091 118.74 103.771 116.944 104.517ZM168.485 103.351C166.657 102.687 164.777 102.091 162.897 101.581L163.151 100.648C165.055 101.165 166.961 101.769 168.815 102.443L168.485 103.351ZM128.087 100.937L127.869 99.9954C129.787 99.5502 131.751 99.1799 133.704 98.8944L133.844 99.8509C131.917 100.133 129.98 100.498 128.087 100.937V100.937ZM157.182 100.28C155.273 99.9283 153.321 99.6512 151.381 99.4572L151.477 98.4953C153.443 98.6921 155.422 98.9727 157.357 99.3298L157.182 100.28ZM139.671 99.2432L139.61 98.2784C141.575 98.1542 143.579 98.1101 145.548 98.1457L145.531 99.1124C143.586 99.0768 141.611 99.1209 139.671 99.2432Z" fill="#3F3D56"/>
<path d="M212.694 150.955C212.435 150.035 212.154 149.108 211.858 148.199L212.776 147.899C213.076 148.821 213.362 149.761 213.624 150.693L212.694 150.955Z" fill="#3F3D56"/>
<path d="M206.802 96.8194H205.836C205.836 95.852 205.853 94.8705 205.887 93.9023L206.853 93.9359C206.819 94.8931 206.802 95.8631 206.802 96.8194Z" fill="#3F3D56"/>
<path d="M207.262 88.1225L206.301 88.0201C206.508 86.0732 206.788 84.1106 207.133 82.1866L208.084 82.3575C207.743 84.2588 207.466 86.1986 207.262 88.1225ZM209.319 76.6665L208.383 76.4277C208.866 74.5304 209.425 72.6281 210.044 70.7736L210.961 71.0794C210.349 72.9123 209.797 74.7919 209.319 76.6665ZM363.41 66.4675C362.688 64.6736 361.891 62.8837 361.042 61.1481L361.91 60.7232C362.769 62.4796 363.575 64.2908 364.306 66.1064L363.41 66.4675ZM213.003 65.6202L212.111 65.2488C212.862 63.4423 213.689 61.639 214.57 59.8887L215.433 60.3234C214.563 62.0532 213.745 63.835 213.003 65.6202ZM358.297 56.012C357.325 54.3415 356.281 52.684 355.192 51.0857L355.99 50.541C357.092 52.1584 358.149 53.8355 359.132 55.5258L358.297 56.012ZM218.237 55.2159L217.408 54.7203C218.409 53.0418 219.486 51.376 220.608 49.7695L221.4 50.3232C220.291 51.9108 219.227 53.557 218.237 55.2159H218.237ZM351.742 46.3938C350.54 44.8765 349.27 43.3847 347.967 41.9596L348.679 41.3068C349.998 42.7488 351.284 44.2582 352.5 45.7934L351.742 46.3938ZM224.904 45.6697L224.153 45.0608C225.385 43.54 226.688 42.0451 228.024 40.6177L228.729 41.2785C227.409 42.6894 226.121 44.1668 224.904 45.6697ZM343.885 37.8056C342.481 36.475 341.012 35.1788 339.518 33.9527L340.131 33.2055C341.642 34.4457 343.129 35.7575 344.55 37.1037L343.885 37.8056ZM232.858 37.1717L232.201 36.4622C233.636 35.1332 235.137 33.8387 236.663 32.615L237.267 33.3693C235.759 34.5788 234.275 35.858 232.858 37.1717V37.1717ZM334.888 30.421C333.309 29.3037 331.671 28.2299 330.017 27.2292L330.517 26.4022C332.19 27.4147 333.848 28.5013 335.445 29.6318L334.888 30.421ZM241.935 29.8914L241.386 29.0961C242.994 27.9849 244.664 26.9179 246.348 25.9243L246.839 26.757C245.174 27.739 243.524 28.7935 241.935 29.8914V29.8914ZM324.93 24.3949C323.208 23.5146 321.433 22.6867 319.653 21.9336L320.03 21.0433C321.83 21.8052 323.627 22.6433 325.37 23.534L324.93 24.3949ZM251.953 23.9826L251.524 23.117C253.274 22.2475 255.078 21.4307 256.886 20.6893L257.253 21.5838C255.466 22.3164 253.683 23.1235 251.953 23.9826V23.9826ZM314.212 19.8593C312.384 19.2367 310.508 18.6726 308.636 18.1829L308.88 17.2478C310.775 17.7432 312.674 18.3141 314.523 18.944L314.212 19.8593ZM262.709 19.5732L262.408 18.6547C264.265 18.0458 266.169 17.4966 268.068 17.0224L268.302 17.9603C266.425 18.4288 264.544 18.9714 262.709 19.5732L262.709 19.5732ZM302.954 16.9143C301.054 16.5615 299.117 16.2733 297.196 16.0576L297.304 15.097C299.248 15.3153 301.208 15.6068 303.13 15.9637L302.954 16.9143ZM273.996 16.7553L273.83 15.8027C275.755 15.4673 277.718 15.1976 279.665 15.0005L279.762 15.9625C277.838 16.157 275.898 16.4236 273.996 16.7552L273.996 16.7553ZM291.392 15.6144C289.457 15.5358 287.491 15.5254 285.57 15.5827L285.541 14.6165C287.484 14.5585 289.474 14.5686 291.432 14.6486L291.392 15.6144Z" fill="#3F3D56"/>
<path d="M366.236 74.7629C365.978 73.8429 365.699 72.9142 365.407 72.0021L366.327 71.7075C366.622 72.6303 366.905 73.5701 367.167 74.5009L366.236 74.7629Z" fill="#3F3D56"/>
<path d="M370.722 103.448C379.61 103.448 386.816 102.907 386.816 102.24C386.816 101.573 379.61 101.033 370.722 101.033C361.834 101.033 354.629 101.573 354.629 102.24C354.629 102.907 361.834 103.448 370.722 103.448Z" fill="#DBDBDB"/>
<path d="M364.348 98.275L315.956 146.692L316.639 147.376L365.032 98.9585L364.348 98.275Z" fill="#3F3D56"/>
<path d="M301.927 152.879H220.656V153.846H301.927V152.879Z" fill="#3F3D56"/>
<path d="M205.822 159.47L160.367 204.949L161.05 205.632L206.505 160.153L205.822 159.47Z" fill="#3F3D56"/>
<path d="M146.626 211.249H92.3116V212.215H146.626V211.249Z" fill="#3F3D56"/>
<path d="M77.547 217.366L23.5739 271.368L24.257 272.051L78.2301 218.05L77.547 217.366Z" fill="#3F3D56"/>
<path d="M83.8628 220.668C82.0962 220.668 80.3692 220.144 78.9003 219.162C77.4314 218.18 76.2865 216.784 75.6104 215.151C74.9343 213.518 74.7574 211.721 75.102 209.987C75.4466 208.254 76.2973 206.661 77.5465 205.412C78.7957 204.162 80.3872 203.311 82.1199 202.966C83.8526 202.621 85.6486 202.798 87.2807 203.474C88.9129 204.151 90.3079 205.296 91.2894 206.766C92.2709 208.235 92.7948 209.963 92.7948 211.731C92.7921 214.1 91.8502 216.372 90.1757 218.047C88.5012 219.722 86.2309 220.665 83.8628 220.668ZM83.8628 203.761C82.2873 203.761 80.7471 204.228 79.4371 205.104C78.1271 205.979 77.106 207.224 76.5031 208.681C75.9001 210.137 75.7423 211.739 76.0497 213.286C76.357 214.832 77.1157 216.252 78.2297 217.366C79.3438 218.481 80.7632 219.24 82.3084 219.548C83.8537 219.855 85.4554 219.697 86.911 219.094C88.3666 218.491 89.6107 217.469 90.486 216.159C91.3614 214.848 91.8286 213.307 91.8286 211.731C91.8261 209.618 90.9861 207.592 89.4928 206.098C87.9995 204.604 85.9748 203.763 83.8628 203.761Z" fill="#3F3D56"/>
<path d="M155.075 220.668C153.309 220.668 151.582 220.143 150.113 219.161C148.644 218.179 147.499 216.784 146.823 215.151C146.147 213.518 145.97 211.721 146.315 209.987C146.659 208.254 147.51 206.661 148.759 205.411C150.009 204.162 151.6 203.311 153.333 202.966C155.065 202.621 156.861 202.798 158.494 203.474C160.126 204.151 161.521 205.296 162.502 206.766C163.484 208.235 164.008 209.963 164.008 211.731C164.005 214.1 163.063 216.372 161.388 218.047C159.714 219.723 157.444 220.665 155.075 220.668ZM155.075 203.761C153.5 203.761 151.96 204.228 150.65 205.104C149.34 205.98 148.319 207.224 147.716 208.681C147.113 210.137 146.955 211.74 147.262 213.286C147.57 214.832 148.329 216.252 149.443 217.366C150.557 218.481 151.976 219.24 153.521 219.548C155.067 219.855 156.668 219.697 158.124 219.094C159.579 218.491 160.824 217.469 161.699 216.159C162.574 214.848 163.041 213.307 163.041 211.731C163.039 209.618 162.199 207.592 160.705 206.098C159.212 204.604 157.187 203.763 155.075 203.761Z" fill="#3F3D56"/>
<path d="M212.206 162.299C210.44 162.299 208.713 161.775 207.244 160.793C205.775 159.811 204.63 158.415 203.954 156.782C203.278 155.149 203.101 153.353 203.446 151.619C203.791 149.885 204.641 148.293 205.891 147.043C207.14 145.793 208.731 144.942 210.464 144.598C212.197 144.253 213.992 144.43 215.625 145.106C217.257 145.782 218.652 146.928 219.633 148.397C220.615 149.867 221.139 151.595 221.139 153.362C221.136 155.732 220.194 158.003 218.519 159.679C216.845 161.354 214.574 162.297 212.206 162.299ZM212.206 145.392C210.631 145.393 209.091 145.86 207.781 146.736C206.471 147.612 205.45 148.856 204.847 150.313C204.244 151.769 204.086 153.371 204.394 154.917C204.701 156.463 205.46 157.884 206.574 158.998C207.688 160.113 209.107 160.872 210.653 161.179C212.198 161.487 213.799 161.329 215.255 160.726C216.711 160.122 217.955 159.101 218.83 157.79C219.705 156.48 220.172 154.939 220.172 153.362C220.17 151.249 219.33 149.224 217.836 147.729C216.343 146.235 214.318 145.395 212.206 145.392V145.392Z" fill="#3F3D56"/>
<path d="M310.375 162.299C308.608 162.299 306.882 161.775 305.413 160.793C303.944 159.811 302.799 158.415 302.123 156.782C301.447 155.149 301.27 153.353 301.615 151.619C301.959 149.885 302.81 148.293 304.059 147.043C305.308 145.793 306.9 144.942 308.633 144.598C310.365 144.253 312.161 144.43 313.793 145.106C315.425 145.782 316.82 146.928 317.802 148.397C318.783 149.867 319.307 151.595 319.307 153.362C319.305 155.732 318.363 158.003 316.688 159.679C315.014 161.354 312.743 162.297 310.375 162.299ZM310.375 145.392C308.8 145.393 307.259 145.86 305.949 146.736C304.64 147.612 303.619 148.856 303.016 150.313C302.413 151.769 302.255 153.371 302.562 154.917C302.87 156.463 303.628 157.884 304.743 158.998C305.857 160.113 307.276 160.872 308.821 161.179C310.366 161.487 311.968 161.329 313.424 160.726C314.879 160.122 316.123 159.101 316.999 157.79C317.874 156.48 318.341 154.939 318.341 153.362C318.339 151.249 317.499 149.223 316.005 147.729C314.512 146.235 312.487 145.395 310.375 145.392V145.392Z" fill="#3F3D56"/>
<circle cx="371" cy="93" r="9" fill="#FF9637"/>
<path d="M17.8805 286.685C16.1138 286.685 14.3869 286.161 12.918 285.179C11.449 284.197 10.3041 282.801 9.62805 281.168C8.95196 279.535 8.77504 277.739 9.11966 276.005C9.46429 274.271 10.315 272.679 11.5642 271.429C12.8133 270.179 14.4049 269.328 16.1376 268.983C17.8702 268.638 19.6662 268.815 21.2984 269.492C22.9305 270.168 24.3256 271.314 25.307 272.783C26.2885 274.253 26.8124 275.981 26.8124 277.748C26.8097 280.118 25.8678 282.389 24.1934 284.065C22.5189 285.74 20.2486 286.682 17.8805 286.685ZM17.8805 269.778C16.3049 269.778 14.7648 270.246 13.4547 271.121C12.1447 271.997 11.1237 273.242 10.5207 274.698C9.91774 276.155 9.75996 277.757 10.0673 279.303C10.3746 280.849 11.1333 282.269 12.2474 283.384C13.3614 284.499 14.7808 285.258 16.3261 285.565C17.8713 285.873 19.473 285.715 20.9286 285.112C22.3842 284.509 23.6283 283.487 24.5037 282.176C25.379 280.866 25.8462 279.325 25.8462 277.748C25.8438 275.635 25.0038 273.61 23.5104 272.115C22.0171 270.621 19.9924 269.781 17.8805 269.778Z" fill="#C4C4C4"/>
<path d="M18.0932 289.415C26.9813 289.415 34.1865 288.875 34.1865 288.208C34.1865 287.541 26.9813 287 18.0932 287C9.20519 287 2 287.541 2 288.208C2 288.875 9.20519 289.415 18.0932 289.415Z" fill="#DBDBDB"/>
<path d="M84 176C82.5555 176 81.1251 176.276 79.7905 176.812C78.4559 177.348 77.2433 178.134 76.2218 179.124C75.2004 180.115 74.3901 181.291 73.8373 182.585C73.2845 183.879 73 185.266 73 186.667C73 192.558 84 212 84 212C84 212 95 192.558 95 186.667C95 185.266 94.7155 183.879 94.1627 182.585C93.6099 181.291 92.7996 180.115 91.7782 179.124C90.7567 178.134 89.5441 177.348 88.2095 176.812C86.8749 176.276 85.4445 176 84 176ZM84 192.267C82.8578 192.267 81.7413 191.938 80.7916 191.323C79.8419 190.708 79.1017 189.833 78.6646 188.81C78.2275 187.786 78.1131 186.66 78.336 185.574C78.5588 184.488 79.1088 183.49 79.9165 182.707C80.7241 181.924 81.7531 181.39 82.8734 181.174C83.9936 180.958 85.1548 181.069 86.21 181.493C87.2652 181.917 88.1672 182.635 88.8017 183.555C89.4363 184.476 89.775 185.559 89.775 186.667C89.775 188.152 89.1666 189.576 88.0835 190.626C87.0005 191.677 85.5316 192.267 84 192.267Z" fill="#0388FF"/>
<path d="M212 117C210.555 117 209.125 117.276 207.79 117.812C206.456 118.348 205.243 119.134 204.222 120.124C203.2 121.115 202.39 122.291 201.837 123.585C201.285 124.879 201 126.266 201 127.667C201 133.558 212 153 212 153C212 153 223 133.558 223 127.667C223 126.266 222.715 124.879 222.163 123.585C221.61 122.291 220.8 121.115 219.778 120.124C218.757 119.134 217.544 118.348 216.21 117.812C214.875 117.276 213.445 117 212 117ZM212 133.267C210.858 133.267 209.741 132.938 208.792 132.323C207.842 131.708 207.102 130.833 206.665 129.81C206.228 128.786 206.113 127.66 206.336 126.574C206.559 125.488 207.109 124.49 207.916 123.707C208.724 122.924 209.753 122.39 210.873 122.174C211.994 121.958 213.155 122.069 214.21 122.493C215.265 122.917 216.167 123.635 216.802 124.555C217.436 125.476 217.775 126.559 217.775 127.667C217.775 129.152 217.167 130.576 216.084 131.626C215.001 132.677 213.532 133.267 212 133.267Z" fill="#0388FF"/>
<path d="M528.142 353.922H309.039V355.103H528.142V353.922Z" fill="#BBBBBB"/>
<path d="M240.991 340.248C245.801 340.248 249.699 336.347 249.699 331.535C249.699 326.724 245.801 322.823 240.991 322.823C236.182 322.823 232.283 326.724 232.283 331.535C232.283 336.347 236.182 340.248 240.991 340.248Z" fill="#EFEFEF"/>
<path d="M295.169 303.394C299.979 303.394 303.877 299.494 303.877 294.682C303.877 289.87 299.979 285.969 295.169 285.969C290.36 285.969 286.461 289.87 286.461 294.682C286.461 299.494 290.36 303.394 295.169 303.394Z" fill="#EFEFEF"/>
<path d="M206.999 237.035C211.808 237.035 215.707 233.135 215.707 228.323C215.707 223.511 211.808 219.61 206.999 219.61C202.19 219.61 198.291 223.511 198.291 228.323C198.291 233.135 202.19 237.035 206.999 237.035Z" fill="#EFEFEF"/>
<path d="M4.81152 307.475C4.81152 307.162 4.70085 306.921 4.47949 306.752C4.26139 306.583 3.86589 306.412 3.29297 306.239C2.72005 306.067 2.26432 305.875 1.92578 305.663C1.27799 305.256 0.954102 304.726 0.954102 304.071C0.954102 303.498 1.18685 303.026 1.65234 302.655C2.12109 302.284 2.72819 302.099 3.47363 302.099C3.96842 302.099 4.40951 302.19 4.79688 302.372C5.18424 302.554 5.48861 302.815 5.70996 303.153C5.93132 303.489 6.04199 303.861 6.04199 304.271H4.81152C4.81152 303.9 4.69434 303.611 4.45996 303.402C4.22884 303.191 3.89681 303.085 3.46387 303.085C3.06022 303.085 2.74609 303.171 2.52148 303.344C2.30013 303.516 2.18945 303.757 2.18945 304.066C2.18945 304.327 2.3099 304.545 2.55078 304.721C2.79167 304.893 3.1888 305.062 3.74219 305.229C4.29557 305.391 4.73991 305.578 5.0752 305.79C5.41048 305.998 5.65625 306.239 5.8125 306.513C5.96875 306.783 6.04688 307.1 6.04688 307.465C6.04688 308.057 5.81901 308.529 5.36328 308.881C4.91081 309.229 4.29557 309.403 3.51758 309.403C3.00326 309.403 2.52962 309.309 2.09668 309.12C1.66699 308.928 1.33171 308.664 1.09082 308.329C0.85319 307.994 0.734375 307.603 0.734375 307.157H1.96973C1.96973 307.561 2.10319 307.873 2.37012 308.095C2.63704 308.316 3.01953 308.427 3.51758 308.427C3.94727 308.427 4.26953 308.34 4.48438 308.168C4.70247 307.992 4.81152 307.761 4.81152 307.475ZM13.7676 303.192H11.5508V309.306H10.3252V303.192H8.12793V302.196H13.7676V303.192ZM19.5986 307.65H16.8447L16.2686 309.306H14.9844L17.6699 302.196H18.7783L21.4688 309.306H20.1797L19.5986 307.65ZM17.1914 306.654H19.252L18.2217 303.705L17.1914 306.654ZM26.3916 306.566H25.0146V309.306H23.7793V302.196H26.2793C27.0996 302.196 27.7327 302.38 28.1787 302.748C28.6247 303.116 28.8477 303.648 28.8477 304.345C28.8477 304.82 28.7321 305.219 28.501 305.541C28.2731 305.86 27.9541 306.106 27.5439 306.278L29.1406 309.242V309.306H27.8174L26.3916 306.566ZM25.0146 305.575H26.2842C26.7008 305.575 27.0264 305.471 27.2607 305.263C27.4951 305.051 27.6123 304.763 27.6123 304.398C27.6123 304.018 27.5033 303.723 27.2852 303.515C27.0703 303.306 26.748 303.199 26.3184 303.192H25.0146V305.575ZM36.4121 303.192H34.1953V309.306H32.9697V303.192H30.7725V302.196H36.4121V303.192Z" fill="#0A0A0A"/>
<path d="M73.8702 238.333C73.8702 238.021 73.7595 237.78 73.5381 237.611C73.32 237.442 72.9245 237.271 72.3516 237.098C71.7787 236.926 71.323 236.734 70.9844 236.522C70.3366 236.115 70.0127 235.584 70.0127 234.93C70.0127 234.357 70.2455 233.885 70.711 233.514C71.1797 233.143 71.7868 232.958 72.5323 232.958C73.0271 232.958 73.4681 233.049 73.8555 233.231C74.2429 233.413 74.5472 233.674 74.7686 234.012C74.99 234.347 75.1006 234.72 75.1006 235.13H73.8702C73.8702 234.759 73.753 234.47 73.5186 234.261C73.2875 234.05 72.9554 233.944 72.5225 233.944C72.1189 233.944 71.8047 234.03 71.5801 234.203C71.3588 234.375 71.2481 234.616 71.2481 234.925C71.2481 235.186 71.3685 235.404 71.6094 235.58C71.8503 235.752 72.2474 235.921 72.8008 236.087C73.3542 236.25 73.7985 236.437 74.1338 236.649C74.4691 236.857 74.7149 237.098 74.8711 237.372C75.0274 237.642 75.1055 237.959 75.1055 238.324C75.1055 238.916 74.8776 239.388 74.4219 239.74C73.9694 240.088 73.3542 240.262 72.5762 240.262C72.0619 240.262 71.5883 240.168 71.1553 239.979C70.7256 239.787 70.3903 239.523 70.1495 239.188C69.9118 238.853 69.793 238.462 69.793 238.016H71.0284C71.0284 238.42 71.1618 238.732 71.4288 238.954C71.6957 239.175 72.0782 239.286 72.5762 239.286C73.0059 239.286 73.3282 239.199 73.543 239.027C73.7611 238.851 73.8702 238.62 73.8702 238.333ZM82.8262 234.051H80.6094V240.165H79.3838V234.051H77.1866V233.055H82.8262V234.051ZM89.419 236.991H86.4991V239.178H89.9122V240.165H85.2637V233.055H89.878V234.051H86.4991V236.014H89.419V236.991ZM93.6534 237.523V240.165H92.418V233.055H95.1377C95.932 233.055 96.5619 233.262 97.0274 233.675C97.4961 234.089 97.7305 234.636 97.7305 235.316C97.7305 236.013 97.501 236.555 97.042 236.942C96.5863 237.329 95.9467 237.523 95.1231 237.523H93.6534ZM93.6534 236.532H95.1377C95.5772 236.532 95.9125 236.429 96.1436 236.224C96.3747 236.016 96.4903 235.716 96.4903 235.326C96.4903 234.942 96.3731 234.636 96.1387 234.408C95.9043 234.177 95.5821 234.058 95.1719 234.051H93.6534V236.532ZM85.4151 256.165H84.2334V250.457L82.4903 251.052V250.051L85.2637 249.031H85.4151V256.165Z" fill="#0A0A0A"/>
<path d="M144.222 237.465C144.222 237.153 144.112 236.912 143.89 236.743C143.672 236.573 143.277 236.403 142.704 236.23C142.131 236.057 141.675 235.865 141.336 235.654C140.689 235.247 140.365 234.716 140.365 234.062C140.365 233.489 140.598 233.017 141.063 232.646C141.532 232.275 142.139 232.089 142.884 232.089C143.379 232.089 143.82 232.181 144.208 232.363C144.595 232.545 144.899 232.806 145.121 233.144C145.342 233.479 145.453 233.852 145.453 234.262H144.222C144.222 233.891 144.105 233.601 143.871 233.393C143.64 233.181 143.307 233.076 142.875 233.076C142.471 233.076 142.157 233.162 141.932 233.334C141.711 233.507 141.6 233.748 141.6 234.057C141.6 234.318 141.721 234.536 141.961 234.711C142.202 234.884 142.599 235.053 143.153 235.219C143.706 235.382 144.151 235.569 144.486 235.781C144.821 235.989 145.067 236.23 145.223 236.503C145.379 236.774 145.458 237.091 145.458 237.456C145.458 238.048 145.23 238.52 144.774 238.872C144.321 239.22 143.706 239.394 142.928 239.394C142.414 239.394 141.94 239.3 141.507 239.111C141.078 238.919 140.742 238.655 140.502 238.32C140.264 237.985 140.145 237.594 140.145 237.148H141.38C141.38 237.552 141.514 237.864 141.781 238.085C142.048 238.307 142.43 238.417 142.928 238.417C143.358 238.417 143.68 238.331 143.895 238.159C144.113 237.983 144.222 237.752 144.222 237.465ZM153.178 233.183H150.961V239.296H149.736V233.183H147.539V232.187H153.178V233.183ZM159.771 236.123H156.851V238.31H160.264V239.296H155.616V232.187H160.23V233.183H156.851V235.146H159.771V236.123ZM164.005 236.655V239.296H162.77V232.187H165.49C166.284 232.187 166.914 232.394 167.379 232.807C167.848 233.221 168.083 233.767 168.083 234.448C168.083 235.144 167.853 235.686 167.394 236.074C166.938 236.461 166.299 236.655 165.475 236.655H164.005ZM164.005 235.664H165.49C165.929 235.664 166.265 235.561 166.496 235.356C166.727 235.148 166.842 234.848 166.842 234.458C166.842 234.073 166.725 233.767 166.491 233.54C166.256 233.308 165.934 233.19 165.524 233.183H164.005V235.664ZM157.335 255.296H152.554V254.481L154.922 251.898C155.264 251.517 155.507 251.2 155.65 250.946C155.796 250.689 155.87 250.431 155.87 250.174C155.87 249.836 155.774 249.562 155.582 249.354C155.393 249.146 155.137 249.042 154.815 249.042C154.431 249.042 154.133 249.159 153.921 249.393C153.71 249.627 153.604 249.948 153.604 250.355H152.418C152.418 249.922 152.515 249.533 152.71 249.188C152.909 248.84 153.191 248.569 153.555 248.377C153.923 248.185 154.346 248.089 154.825 248.089C155.515 248.089 156.058 248.264 156.456 248.612C156.856 248.957 157.056 249.435 157.056 250.047C157.056 250.402 156.955 250.775 156.753 251.166C156.555 251.553 156.228 251.994 155.772 252.489L154.034 254.349H157.335V255.296Z" fill="#0A0A0A"/>
<path d="M199.809 181.01C199.809 180.697 199.698 180.456 199.477 180.287C199.259 180.118 198.863 179.947 198.291 179.774C197.718 179.602 197.262 179.41 196.923 179.198C196.276 178.791 195.952 178.261 195.952 177.606C195.952 177.034 196.184 176.562 196.65 176.19C197.119 175.819 197.726 175.634 198.471 175.634C198.966 175.634 199.407 175.725 199.794 175.907C200.182 176.09 200.486 176.35 200.708 176.688C200.929 177.024 201.04 177.396 201.04 177.807H199.809C199.809 177.436 199.692 177.146 199.458 176.938C199.226 176.726 198.894 176.62 198.461 176.62C198.058 176.62 197.744 176.706 197.519 176.879C197.298 177.051 197.187 177.292 197.187 177.602C197.187 177.862 197.307 178.08 197.548 178.256C197.789 178.428 198.186 178.598 198.74 178.764C199.293 178.926 199.738 179.114 200.073 179.325C200.408 179.534 200.654 179.774 200.81 180.048C200.966 180.318 201.044 180.635 201.044 181C201.044 181.592 200.817 182.064 200.361 182.416C199.908 182.764 199.293 182.938 198.515 182.938C198.001 182.938 197.527 182.844 197.094 182.655C196.665 182.463 196.329 182.2 196.088 181.864C195.851 181.529 195.732 181.138 195.732 180.692H196.967C196.967 181.096 197.101 181.409 197.368 181.63C197.635 181.851 198.017 181.962 198.515 181.962C198.945 181.962 199.267 181.876 199.482 181.703C199.7 181.527 199.809 181.296 199.809 181.01ZM208.765 176.728H206.548V182.841H205.323V176.728H203.126V175.731H208.765V176.728ZM215.358 179.667H212.438V181.854H215.851V182.841H211.203V175.731H215.817V176.728H212.438V178.69H215.358V179.667ZM219.592 180.199V182.841H218.357V175.731H221.077C221.871 175.731 222.501 175.938 222.966 176.352C223.435 176.765 223.669 177.312 223.669 177.992C223.669 178.689 223.44 179.231 222.981 179.618C222.525 180.006 221.886 180.199 221.062 180.199H219.592ZM219.592 179.208H221.077C221.516 179.208 221.851 179.105 222.083 178.9C222.314 178.692 222.429 178.393 222.429 178.002C222.429 177.618 222.312 177.312 222.078 177.084C221.843 176.853 221.521 176.734 221.111 176.728H219.592V179.208ZM209.513 194.744H210.236C210.6 194.741 210.889 194.646 211.1 194.461C211.315 194.275 211.422 194.007 211.422 193.655C211.422 193.317 211.333 193.055 211.154 192.869C210.978 192.68 210.708 192.586 210.343 192.586C210.024 192.586 209.762 192.679 209.557 192.864C209.352 193.047 209.25 193.286 209.25 193.582H208.063C208.063 193.217 208.159 192.885 208.351 192.586C208.546 192.286 208.817 192.054 209.162 191.888C209.51 191.718 209.899 191.634 210.329 191.634C211.038 191.634 211.595 191.813 211.999 192.171C212.405 192.526 212.609 193.021 212.609 193.655C212.609 193.974 212.506 194.275 212.301 194.559C212.099 194.839 211.837 195.05 211.515 195.193C211.906 195.327 212.202 195.537 212.404 195.823C212.609 196.11 212.711 196.451 212.711 196.849C212.711 197.487 212.492 197.994 212.052 198.372C211.616 198.75 211.042 198.938 210.329 198.938C209.645 198.938 209.085 198.756 208.649 198.392C208.213 198.027 207.995 197.542 207.995 196.937H209.181C209.181 197.249 209.285 197.503 209.494 197.698C209.705 197.894 209.988 197.991 210.343 197.991C210.711 197.991 211.001 197.894 211.212 197.698C211.424 197.503 211.53 197.22 211.53 196.849C211.53 196.474 211.419 196.186 211.198 195.984C210.976 195.783 210.648 195.682 210.211 195.682H209.513V194.744Z" fill="#0A0A0A"/>
<path d="M299.692 179.273C299.692 178.96 299.581 178.72 299.36 178.55C299.142 178.381 298.746 178.21 298.173 178.038C297.6 177.865 297.144 177.673 296.806 177.461C296.158 177.055 295.834 176.524 295.834 175.87C295.834 175.297 296.067 174.825 296.533 174.454C297.001 174.083 297.608 173.897 298.354 173.897C298.849 173.897 299.29 173.988 299.677 174.17C300.064 174.353 300.369 174.613 300.59 174.952C300.811 175.287 300.922 175.66 300.922 176.07H299.692C299.692 175.699 299.575 175.409 299.34 175.201C299.109 174.989 298.777 174.883 298.344 174.883C297.94 174.883 297.626 174.97 297.402 175.142C297.18 175.315 297.07 175.556 297.07 175.865C297.07 176.125 297.19 176.343 297.431 176.519C297.672 176.692 298.069 176.861 298.622 177.027C299.176 177.19 299.62 177.377 299.955 177.588C300.291 177.797 300.536 178.038 300.693 178.311C300.849 178.581 300.927 178.899 300.927 179.263C300.927 179.856 300.699 180.328 300.243 180.679C299.791 181.028 299.176 181.202 298.398 181.202C297.883 181.202 297.41 181.107 296.977 180.918C296.547 180.726 296.212 180.463 295.971 180.127C295.733 179.792 295.615 179.402 295.615 178.956H296.85C296.85 179.359 296.983 179.672 297.25 179.893C297.517 180.114 297.9 180.225 298.398 180.225C298.827 180.225 299.15 180.139 299.365 179.966C299.583 179.791 299.692 179.559 299.692 179.273ZM308.648 174.991H306.431V181.104H305.205V174.991H303.008V173.995H308.648V174.991ZM315.241 177.93H312.321V180.118H315.734V181.104H311.085V173.995H315.7V174.991H312.321V176.954H315.241V177.93ZM319.475 178.462V181.104H318.24V173.995H320.959C321.754 173.995 322.383 174.201 322.849 174.615C323.318 175.028 323.552 175.575 323.552 176.255C323.552 176.952 323.323 177.494 322.864 177.881C322.408 178.269 321.768 178.462 320.945 178.462H319.475ZM319.475 177.471H320.959C321.399 177.471 321.734 177.369 321.965 177.164C322.196 176.955 322.312 176.656 322.312 176.265C322.312 175.881 322.195 175.575 321.96 175.347C321.726 175.116 321.404 174.997 320.993 174.991H319.475V177.471ZM312.037 194.57H312.921V195.522H312.037V197.104H310.851V195.522H307.78L307.745 194.799L310.812 189.995H312.037V194.57ZM308.991 194.57H310.851V191.601L310.763 191.757L308.991 194.57Z" fill="#0A0A0A"/>
<path d="M363.943 118.868H361.023V121.056H364.437V122.042H359.788V114.933H364.402V115.929H361.023V117.892H363.943V118.868ZM372.582 122.042H371.347L368.178 116.998V122.042H366.942V114.933H368.178L371.356 119.996V114.933H372.582V122.042ZM375.542 122.042V114.933H377.642C378.27 114.933 378.826 115.073 379.312 115.353C379.8 115.632 380.177 116.03 380.444 116.544C380.711 117.058 380.845 117.647 380.845 118.312V118.668C380.845 119.342 380.71 119.934 380.439 120.445C380.173 120.956 379.79 121.35 379.292 121.627C378.797 121.904 378.229 122.042 377.588 122.042H375.542ZM376.777 115.929V121.056H377.583C378.231 121.056 378.727 120.854 379.072 120.45C379.421 120.043 379.598 119.461 379.604 118.702V118.307C379.604 117.535 379.437 116.946 379.102 116.539C378.766 116.132 378.28 115.929 377.642 115.929H376.777Z" fill="#0A0A0A"/>
<path d="M401.535 8.63184C401.48 9.39681 401.197 9.99902 400.686 10.4385C400.178 10.8779 399.507 11.0977 398.674 11.0977C397.762 11.0977 397.045 10.7917 396.521 10.1797C396 9.56445 395.739 8.72135 395.739 7.65039V7.21582C395.739 6.53223 395.86 5.93001 396.101 5.40918C396.341 4.88835 396.685 4.48958 397.131 4.21289C397.58 3.93294 398.101 3.79297 398.693 3.79297C399.514 3.79297 400.174 4.0127 400.676 4.45215C401.177 4.8916 401.467 5.50846 401.545 6.30273H400.08C400.044 5.84375 399.916 5.51172 399.694 5.30664C399.476 5.09831 399.143 4.99414 398.693 4.99414C398.205 4.99414 397.839 5.16992 397.595 5.52148C397.354 5.86979 397.23 6.41178 397.224 7.14746V7.68457C397.224 8.4528 397.339 9.01432 397.57 9.36914C397.805 9.72396 398.173 9.90137 398.674 9.90137C399.126 9.90137 399.463 9.79883 399.685 9.59375C399.909 9.38542 400.038 9.06478 400.07 8.63184H401.535ZM409.378 3.89062V8.57324C409.378 9.35124 409.134 9.96647 408.646 10.4189C408.16 10.8714 407.496 11.0977 406.653 11.0977C405.823 11.0977 405.164 10.8779 404.676 10.4385C404.188 9.99902 403.938 9.39518 403.929 8.62695V3.89062H405.394V8.58301C405.394 9.0485 405.504 9.38867 405.726 9.60352C405.95 9.8151 406.259 9.9209 406.653 9.9209C407.477 9.9209 407.895 9.48796 407.908 8.62207V3.89062H409.378ZM415.766 9.13477C415.766 8.85807 415.668 8.64648 415.473 8.5C415.277 8.35026 414.926 8.19401 414.418 8.03125C413.91 7.86523 413.508 7.70247 413.212 7.54297C412.405 7.10677 412.001 6.51921 412.001 5.78027C412.001 5.39616 412.108 5.05436 412.323 4.75488C412.541 4.45215 412.852 4.21615 413.256 4.04688C413.663 3.8776 414.118 3.79297 414.623 3.79297C415.131 3.79297 415.583 3.88574 415.98 4.07129C416.378 4.25358 416.685 4.51237 416.903 4.84766C417.125 5.18294 417.235 5.5638 417.235 5.99023H415.771C415.771 5.66471 415.668 5.41243 415.463 5.2334C415.258 5.05111 414.97 4.95996 414.599 4.95996C414.241 4.95996 413.962 5.03646 413.764 5.18945C413.565 5.33919 413.466 5.53776 413.466 5.78516C413.466 6.01628 413.581 6.20996 413.812 6.36621C414.047 6.52246 414.39 6.66895 414.843 6.80566C415.676 7.05632 416.283 7.36719 416.664 7.73828C417.045 8.10938 417.235 8.57161 417.235 9.125C417.235 9.74023 417.003 10.2236 416.537 10.5752C416.072 10.9235 415.445 11.0977 414.657 11.0977C414.11 11.0977 413.612 10.9984 413.163 10.7998C412.714 10.598 412.37 10.3229 412.133 9.97461C411.898 9.6263 411.781 9.22266 411.781 8.76367H413.251C413.251 9.54818 413.72 9.94043 414.657 9.94043C415.006 9.94043 415.277 9.87044 415.473 9.73047C415.668 9.58724 415.766 9.38867 415.766 9.13477ZM425.083 5.07715H422.905V11H421.44V5.07715H419.292V3.89062H425.083V5.07715ZM433.126 7.60645C433.126 8.30632 433.002 8.91992 432.755 9.44727C432.507 9.97461 432.153 10.3815 431.69 10.668C431.231 10.9544 430.704 11.0977 430.108 11.0977C429.519 11.0977 428.993 10.9561 428.531 10.6729C428.069 10.3896 427.711 9.986 427.457 9.46191C427.203 8.93457 427.075 8.3291 427.071 7.64551V7.29395C427.071 6.59408 427.197 5.97884 427.447 5.44824C427.701 4.91439 428.058 4.50586 428.517 4.22266C428.979 3.9362 429.506 3.79297 430.099 3.79297C430.691 3.79297 431.217 3.9362 431.676 4.22266C432.138 4.50586 432.494 4.91439 432.745 5.44824C432.999 5.97884 433.126 6.59245 433.126 7.28906V7.60645ZM431.642 7.28418C431.642 6.53874 431.508 5.97233 431.241 5.58496C430.974 5.19759 430.593 5.00391 430.099 5.00391C429.607 5.00391 429.228 5.19596 428.961 5.58008C428.694 5.96094 428.559 6.52083 428.556 7.25977V7.60645C428.556 8.33236 428.689 8.89551 428.956 9.2959C429.223 9.69629 429.607 9.89648 430.108 9.89648C430.6 9.89648 430.978 9.70443 431.241 9.32031C431.505 8.93294 431.638 8.36979 431.642 7.63086V7.28418ZM437.604 3.89062L439.431 9.04688L441.247 3.89062H443.171V11H441.701V9.05664L441.848 5.70215L439.929 11H438.923L437.009 5.70703L437.155 9.05664V11H435.69V3.89062H437.604ZM450.228 7.91895H447.415V9.82324H450.716V11H445.95V3.89062H450.706V5.07715H447.415V6.77148H450.228V7.91895ZM455.707 8.39746H454.54V11H453.075V3.89062H455.717C456.557 3.89062 457.204 4.0778 457.66 4.45215C458.116 4.8265 458.344 5.35547 458.344 6.03906C458.344 6.52409 458.238 6.92936 458.026 7.25488C457.818 7.57715 457.501 7.83431 457.074 8.02637L458.612 10.9316V11H457.04L455.707 8.39746ZM454.54 7.21094H455.722C456.09 7.21094 456.374 7.11816 456.576 6.93262C456.778 6.74382 456.879 6.48503 456.879 6.15625C456.879 5.82096 456.783 5.55729 456.591 5.36523C456.402 5.17318 456.111 5.07715 455.717 5.07715H454.54V7.21094ZM461.313 11.6104H460.264L462.881 3.89062H463.931L461.313 11.6104ZM471.783 8.63184C471.728 9.39681 471.445 9.99902 470.934 10.4385C470.426 10.8779 469.755 11.0977 468.922 11.0977C468.01 11.0977 467.293 10.7917 466.769 10.1797C466.248 9.56445 465.987 8.72135 465.987 7.65039V7.21582C465.987 6.53223 466.108 5.93001 466.349 5.40918C466.59 4.88835 466.933 4.48958 467.379 4.21289C467.828 3.93294 468.349 3.79297 468.941 3.79297C469.762 3.79297 470.423 4.0127 470.924 4.45215C471.425 4.8916 471.715 5.50846 471.793 6.30273H470.328C470.292 5.84375 470.164 5.51172 469.942 5.30664C469.724 5.09831 469.391 4.99414 468.941 4.99414C468.453 4.99414 468.087 5.16992 467.843 5.52148C467.602 5.86979 467.478 6.41178 467.472 7.14746V7.68457C467.472 8.4528 467.587 9.01432 467.818 9.36914C468.053 9.72396 468.421 9.90137 468.922 9.90137C469.374 9.90137 469.711 9.79883 469.933 9.59375C470.157 9.38542 470.286 9.06478 470.318 8.63184H471.783ZM475.71 9.82324H478.82V11H474.245V3.89062H475.71V9.82324ZM482.723 11H481.258V3.89062H482.723V11ZM489.862 7.91895H487.05V9.82324H490.351V11H485.585V3.89062H490.341V5.07715H487.05V6.77148H489.862V7.91895ZM498.491 11H497.026L494.175 6.32227V11H492.71V3.89062H494.175L497.031 8.57812V3.89062H498.491V11ZM506.476 5.07715H504.298V11H502.833V5.07715H500.685V3.89062H506.476V5.07715Z" fill="#0A0A0A"/>
<path d="M240.749 253.134C239.825 253.134 239.227 253.386 238.954 253.891C238.702 254.395 238.576 255.005 238.576 255.72V263.889C238.576 265.529 238.754 266.98 239.111 268.241C239.489 269.503 240.108 270.501 240.969 271.237C241.851 271.952 243.058 272.32 244.591 272.341C246.691 272.362 248.244 271.668 249.252 270.26C250.26 268.83 250.774 266.906 250.795 264.488L250.858 255.815C250.858 255.352 250.858 254.911 250.858 254.49C250.879 254.048 250.911 253.67 250.953 253.355C250.575 253.376 250.176 253.397 249.756 253.418C249.357 253.439 248.99 253.46 248.654 253.481V251.746H255.016V253.134C254.323 253.155 253.819 253.302 253.504 253.575C253.189 253.828 252.989 254.206 252.906 254.711C252.822 255.215 252.78 255.857 252.78 256.635L252.748 264.141C252.748 266.16 252.433 267.936 251.803 269.471C251.194 271.006 250.26 272.205 249 273.067C247.74 273.908 246.124 274.328 244.15 274.328C241.883 274.328 240.098 273.918 238.796 273.098C237.494 272.278 236.571 271.069 236.025 269.471C235.479 267.852 235.206 265.886 235.206 263.573V256.761C235.206 256.193 235.216 255.583 235.237 254.932C235.279 254.259 235.311 253.733 235.332 253.355C234.975 253.376 234.587 253.397 234.167 253.418C233.747 253.439 233.369 253.449 233.033 253.449V251.746H240.749V253.134ZM256.524 273.824V272.436C257.384 272.247 258.109 271.858 258.697 271.269C259.306 270.659 259.967 269.829 260.681 268.777L264.649 263.258C263.389 261.534 262.34 260.115 261.5 259C260.681 257.886 259.977 256.929 259.39 256.13C259.012 255.583 258.707 255.1 258.476 254.679C258.266 254.259 258.077 253.838 257.909 253.418C257.594 253.418 257.3 253.428 257.028 253.449C256.755 253.449 256.492 253.46 256.24 253.481V251.746H264.87V253.134L263.83 253.165C263.095 253.186 262.633 253.323 262.444 253.575C262.256 253.807 262.235 254.101 262.382 254.458C262.528 254.816 262.738 255.194 263.011 255.594C263.41 256.225 263.914 256.971 264.523 257.833C265.153 258.674 265.825 259.578 266.539 260.546L269.342 256.509C269.846 255.815 270.307 255.194 270.727 254.648C271.147 254.08 271.515 253.649 271.83 253.355C271.431 253.376 271 253.397 270.538 253.418C270.077 253.439 269.657 253.46 269.279 253.481V251.746H275.798V253.134C274.895 253.26 274.055 253.723 273.278 254.522C272.502 255.321 271.756 256.225 271.042 257.234L267.641 261.996C268.733 263.426 269.783 264.803 270.79 266.128C271.819 267.453 272.659 268.546 273.31 269.408C273.688 269.871 274.045 270.333 274.381 270.796C274.717 271.258 275.032 271.71 275.326 272.152C275.64 272.131 275.924 272.121 276.176 272.121C276.428 272.099 276.69 272.089 276.963 272.089V273.824H268.68V272.436C269.478 272.457 270.003 272.362 270.255 272.152C270.507 271.921 270.58 271.626 270.475 271.269C270.37 270.911 270.181 270.554 269.909 270.197C269.405 269.524 268.785 268.735 268.05 267.831C267.337 266.906 266.57 265.876 265.751 264.74C265.247 265.455 264.744 266.181 264.24 266.917C263.736 267.652 263.242 268.388 262.759 269.124C262.361 269.692 261.983 270.228 261.626 270.733C261.269 271.237 260.88 271.732 260.46 272.215C260.859 272.194 261.279 272.173 261.72 272.152C262.161 272.131 262.57 272.11 262.948 272.089V273.824H256.524ZM294.978 258.559C294.957 256.75 294.653 255.405 294.065 254.522C293.477 253.638 292.438 253.197 290.947 253.197H288.68L288.648 269.597C288.648 270.165 288.638 270.68 288.617 271.143C288.596 271.584 288.575 271.942 288.554 272.215C288.952 272.194 289.383 272.173 289.845 272.152C290.328 272.11 290.758 272.089 291.136 272.089V273.824H283.137V272.436C283.808 272.415 284.291 272.278 284.585 272.026C284.9 271.753 285.1 271.364 285.184 270.859C285.268 270.333 285.31 269.692 285.31 268.935V253.228L282.664 253.26C281.383 253.26 280.449 253.691 279.861 254.553C279.273 255.415 278.979 256.75 278.979 258.559H277.499L277.688 251.746H296.27L296.459 258.559H294.978ZM306.681 266.301C306.576 265.313 306.229 264.546 305.641 263.999C305.064 263.452 304.318 263.179 303.405 263.179C302.66 263.179 301.983 263.389 301.374 263.81C300.765 264.22 300.277 264.803 299.909 265.56C299.552 266.317 299.374 267.211 299.374 268.241C299.374 269.229 299.563 270.102 299.941 270.859C300.319 271.616 300.828 272.205 301.468 272.625C302.109 273.046 302.817 273.256 303.594 273.256C304.276 273.256 304.948 273.103 305.61 272.799C306.271 272.483 306.812 272.031 307.232 271.442L307.641 271.774C307.19 272.394 306.701 272.872 306.177 273.209C305.652 273.545 305.127 273.771 304.602 273.887C304.088 274.013 303.615 274.076 303.185 274.076C302.397 274.076 301.673 273.934 301.012 273.65C300.361 273.366 299.794 272.972 299.311 272.467C298.839 271.952 298.471 271.358 298.209 270.685C297.957 270.002 297.831 269.266 297.831 268.478C297.831 267.731 297.941 267.006 298.161 266.301C298.392 265.597 298.734 264.961 299.185 264.393C299.636 263.826 300.203 263.374 300.886 263.037C301.578 262.701 302.382 262.533 303.295 262.533C304.45 262.533 305.51 262.853 306.476 263.494L306.397 262.643H307.247V266.301H306.681ZM310.873 273.824V273.303C311.272 273.282 311.545 273.193 311.692 273.035C311.839 272.867 311.917 272.641 311.928 272.357C311.949 272.063 311.959 271.732 311.959 271.364V264.551C311.959 264.11 311.975 263.731 312.006 263.416C311.818 263.426 311.629 263.437 311.44 263.447C311.251 263.458 311.062 263.468 310.873 263.479V262.785H314.416V263.305C314.027 263.316 313.754 263.405 313.597 263.573C313.45 263.742 313.366 263.968 313.345 264.251C313.334 264.535 313.329 264.866 313.329 265.245V272.01C313.329 272.557 313.313 272.967 313.282 273.24L316.227 273.193C316.888 273.182 317.387 272.972 317.723 272.562C318.069 272.152 318.242 271.484 318.242 270.559H318.778L318.683 273.824H310.873ZM321.167 273.824V273.303C321.482 273.303 321.723 273.219 321.891 273.051C322.059 272.883 322.196 272.651 322.301 272.357C322.416 272.063 322.547 271.721 322.694 271.332L325.938 262.485H326.316L329.828 271.458C329.912 271.679 330.006 271.963 330.111 272.31C330.216 272.657 330.258 272.951 330.237 273.193C330.416 273.182 330.594 273.172 330.772 273.161C330.951 273.151 331.129 273.14 331.308 273.13V273.824H327.702V273.303C328.101 273.293 328.363 273.203 328.489 273.035C328.615 272.867 328.662 272.667 328.631 272.436C328.599 272.205 328.547 271.994 328.473 271.805L327.922 270.323L323.828 270.417L323.277 272.105C323.203 272.357 323.135 272.557 323.072 272.704C323.02 272.851 322.957 273.014 322.883 273.193C323.093 273.182 323.298 273.172 323.497 273.161C323.707 273.151 323.912 273.14 324.112 273.13V273.824H321.167ZM324.064 269.739H327.702L326.584 266.727C326.468 266.401 326.348 266.081 326.222 265.765C326.106 265.439 325.991 265.114 325.875 264.788H325.844C325.739 265.082 325.628 265.376 325.513 265.671C325.408 265.965 325.298 266.265 325.182 266.57L324.064 269.739ZM342.488 274.076L336.205 265.623C336.111 265.497 336.016 265.376 335.922 265.261C335.838 265.135 335.749 265.008 335.654 264.882H335.638L335.686 271.632C335.686 271.894 335.686 272.157 335.686 272.42C335.686 272.683 335.675 272.941 335.654 273.193C335.843 273.182 336.032 273.172 336.221 273.161C336.41 273.151 336.599 273.14 336.788 273.13V273.824H333.906V273.303C334.232 273.303 334.463 273.235 334.599 273.098C334.746 272.951 334.84 272.783 334.882 272.594C334.924 272.394 334.945 272.215 334.945 272.057L334.961 264.472V263.416C334.793 263.426 334.62 263.437 334.442 263.447C334.263 263.458 334.085 263.468 333.906 263.479V262.785H335.78L341.685 270.701C341.822 270.88 341.953 271.059 342.079 271.237C342.215 271.416 342.352 271.595 342.488 271.774H342.504L342.52 264.551C342.52 264.11 342.535 263.731 342.567 263.416C342.378 263.426 342.189 263.437 342 263.447C341.811 263.458 341.622 263.468 341.433 263.479V262.785H344.331V263.305C343.942 263.316 343.674 263.405 343.528 263.573C343.381 263.742 343.302 263.968 343.291 264.251C343.281 264.535 343.276 264.866 343.276 265.245L343.244 274.076H342.488Z" fill="#0A0A0A"/>
<path d="M472.303 45.8014C467.875 32.6563 453.632 25.5887 440.49 30.0156C427.347 34.4425 420.283 48.6875 424.711 61.8326L434.776 91.7142C439.204 104.859 453.447 111.927 466.59 107.5C479.732 103.073 486.796 88.8281 482.369 75.683L472.303 45.8014Z" fill="#4D3A3C"/>
<path d="M441.21 62.0186C441.21 62.0186 450.536 75.4087 441.21 78.9036C431.883 82.3985 428.345 92.3044 428.345 92.3044C428.345 92.3044 425.429 103.958 431.84 106.241C438.251 108.525 462.715 95.1775 466.21 91.6826C469.705 88.1877 466.21 78.8178 466.21 78.8178C466.21 78.8178 456.894 65.9531 457.473 57.8483C458.052 49.7435 441.21 62.0186 441.21 62.0186Z" fill="#FFCEBE"/>
<path opacity="0.1" d="M441.21 62.0186C441.21 62.0186 450.536 75.4087 441.21 78.9036C431.883 82.3985 428.345 92.3044 428.345 92.3044C428.345 92.3044 425.429 103.958 431.84 106.241C438.251 108.525 462.715 95.1775 466.21 91.6826C469.705 88.1877 466.21 78.8178 466.21 78.8178C466.21 78.8178 456.894 65.9531 457.473 57.8483C458.052 49.7435 441.21 62.0186 441.21 62.0186Z" fill="#FEFEFE"/>
<path d="M466.264 165.706C466.264 165.706 487.233 209.403 494.234 212.319C501.235 215.235 519.867 213.477 514.035 229.793C508.203 246.11 502.382 238.531 507.603 250.163C512.824 261.795 533.825 278.712 516.93 271.711C500.034 264.711 480.222 248.415 469.158 250.742C458.095 253.068 430.328 243.698 424.132 244.888C417.935 246.078 420.24 219.287 420.24 219.287L437.715 193.654L466.264 165.706Z" fill="#1E2037"/>
<path d="M445.872 210.576C445.872 210.576 437.103 242.577 441.799 247.272C442.377 247.851 458.105 251.936 468.6 263.589C474.996 270.652 482.713 276.392 491.317 280.485L481.99 290.38C481.99 290.38 461.621 274.074 448.756 271.158C435.892 268.242 422.544 258.293 422.544 254.852C422.544 251.411 431.282 207.681 431.282 207.681L445.872 210.576Z" fill="#FFCEBE"/>
<path opacity="0.1" d="M445.872 210.576C445.872 210.576 437.103 242.577 441.799 247.272C442.377 247.851 458.105 251.936 468.6 263.589C474.996 270.652 482.713 276.392 491.317 280.485L481.99 290.38C481.99 290.38 461.621 274.074 448.756 271.158C435.892 268.242 422.544 258.293 422.544 254.852C422.544 251.411 431.282 207.681 431.282 207.681L445.872 210.576Z" fill="#E3B799"/>
<path d="M483.749 274.072C483.749 274.072 488.991 270.577 492.497 275.24C496.002 279.904 511.129 286.883 511.129 286.883C511.129 286.883 518.13 286.883 514.624 294.462L511.129 302.031L508.803 300.873C508.803 300.873 506.476 324.169 493.654 326.506C493.654 326.506 489.581 326.506 493.076 316.011C493.076 316.011 498.318 311.358 488.991 302.074C488.991 302.074 480.254 300.916 480.254 298C480.254 298 473.264 296.253 475.601 291.568C477.938 286.883 487.822 280.483 483.749 274.072Z" fill="#011214"/>
<path d="M415.577 222.807C415.577 222.807 413.25 234.46 411.503 236.208C409.756 237.955 409.756 243.776 411.503 250.145C413.25 256.513 414.419 293.252 408.587 311.316C402.755 329.381 416.745 321.222 416.745 321.222C416.745 321.222 434.81 276.356 432.473 254.754C430.135 233.152 452.842 209.889 452.842 209.889L424.904 204.743L415.577 222.807Z" fill="#FFCEBE"/>
<path d="M410.152 305.344C410.152 305.344 405.681 308.442 405.092 310.769C404.743 312.167 403.921 313.402 402.765 314.264C402.765 314.264 398.102 322.422 398.102 329.412C398.102 336.402 383.543 346.897 383.543 346.897C383.543 346.897 367.805 355.045 389.365 353.887C410.924 352.729 416.166 351.55 416.166 351.55V353.887C416.166 353.887 425.482 354.466 424.904 347.455C424.325 340.444 423.714 324.17 423.714 324.17C423.714 324.17 430.703 317.18 428.377 311.937C426.051 306.695 421.945 306.899 421.945 306.899C421.945 306.899 418.428 318.348 415.512 317.759C412.596 317.169 410.549 309.236 410.152 305.344Z" fill="#011214"/>
<path d="M418.492 120.849L402.765 177.358C402.765 177.358 394.607 197.169 401.018 196.58C407.429 195.99 410.334 175.61 410.334 175.61L422.577 147.651L424.324 125.513L418.492 120.849Z" fill="#FFCEBE"/>
<path d="M446.752 66.3791C455.437 66.3791 462.479 59.3379 462.479 50.652C462.479 41.9661 455.437 34.9248 446.752 34.9248C438.066 34.9248 431.024 41.9661 431.024 50.652C431.024 59.3379 438.066 66.3791 446.752 66.3791Z" fill="#FFCEBE"/>
<path d="M433.641 98.1384C433.641 98.1384 431.261 85.8096 438.273 80.3207C438.273 80.3207 429.568 79.4952 427.82 81.8216C427.82 81.8216 417.325 82.4005 417.325 89.401C417.325 96.4016 416.167 105.128 415.577 106.286C414.987 107.444 412.672 112.718 416.167 124.929C419.662 137.14 425.815 142.704 422.277 149.115C421.172 151.372 420.268 153.721 419.576 156.137C416.327 166.656 415.002 177.674 415.663 188.663C416.285 199.062 415.931 213.932 410.303 223.366C400.986 239.093 467.401 214.05 468.569 208.807C469.738 203.565 471.474 189.575 469.148 182.006C467.744 177.086 467.347 171.934 467.979 166.858C467.979 166.858 472.643 145.888 460.411 134.235L476.717 85.8847C476.717 85.8847 469.727 78.3052 464.485 78.8841C459.242 79.463 433.641 98.1384 433.641 98.1384Z" fill="#1E2037"/>
<path d="M469.18 99.8843L468.901 100.688C467.036 106.327 456.326 139.658 462.19 147.655C462.19 147.655 469.18 149.403 471.506 140.076C473.833 130.749 481.412 94.642 478.496 91.726C475.58 88.8099 469.18 99.8843 469.18 99.8843Z" fill="#FFCEBE"/>
<path opacity="0.1" d="M469.18 99.8843L468.901 100.688C467.036 106.327 456.326 139.658 462.19 147.655C462.19 147.655 469.18 149.403 471.506 140.076C473.833 130.749 481.412 94.642 478.496 91.726C475.58 88.8099 469.18 99.8843 469.18 99.8843Z" fill="#FEFEFE"/>
<path d="M476.748 85.312C476.748 85.312 481.412 87.0595 480.243 91.7444C479.075 96.4293 466.306 105.145 466.306 105.145L465.138 95.2393L476.748 85.312Z" fill="#1E2037"/>
<path d="M462.19 135.423C462.19 135.423 477.339 115.611 479.086 108.031C480.834 100.452 468.012 80.6511 477.339 81.8196C486.666 82.9881 488.981 99.2942 488.981 99.2942C488.981 99.2942 490.729 102.21 486.655 113.285C482.581 124.359 476.17 140.086 472.718 143.57C469.266 147.055 459.274 156.971 462.19 135.423Z" fill="#FFCEBE"/>
<path d="M456.348 64.704C456.319 64.7333 456.319 64.7333 456.319 64.7333C452.634 69.2371 448.189 70.6409 442.72 70.6409C436.49 70.6409 433.8 64.704 432.805 60.7558C432.338 58.9719 431.5 55.5 431.5 54.5C434.308 55.9915 436.461 52.8888 436.461 52.8888C436.607 51.719 436.988 50.7246 436.988 50.7246C439.766 50.8416 443.275 53.6492 445.323 54.6728C447.37 55.6671 452.304 53.4944 454 52.5C454 52.5 453.073 58.5624 453.979 61.3408C454.886 64.1191 456.348 64.704 456.348 64.704Z" fill="white"/>
<path d="M456 65L458 61.5" stroke="white" stroke-width="0.2"/>
<path d="M456.089 31.8408C454.861 31.7814 453.632 31.9337 452.455 32.2911C451.563 30.6484 450.252 29.2713 448.655 28.3C447.058 27.3286 445.232 26.7977 443.363 26.7613C441.494 26.7248 439.649 27.1842 438.015 28.0925C436.381 29.0008 435.017 30.3257 434.062 31.9324C433.106 33.5391 432.594 35.3702 432.576 37.2394C432.558 39.1086 433.035 40.9491 433.96 42.5738C434.884 44.1984 436.223 45.5492 437.839 46.4886C439.455 47.428 441.291 47.9225 443.16 47.9218H443.696C444.454 47.8756 445.212 47.9978 445.916 48.2796C446.621 48.5613 447.254 48.9956 447.77 49.5513C448.942 50.8365 450.413 51.813 452.053 52.3941C453.692 52.9753 455.45 53.1433 457.17 52.8833C458.89 52.6233 460.519 51.9434 461.913 50.9036C463.308 49.8638 464.425 48.4962 465.164 46.9219C465.904 45.3477 466.245 43.6153 466.156 41.8781C466.066 40.141 465.55 38.4526 464.653 36.9624C463.756 35.4723 462.505 34.2264 461.011 33.3349C459.517 32.4435 457.827 31.934 456.089 31.8516V31.8408Z" fill="#4D3A3C"/>
</svg>
