<svg width="27" height="23" viewBox="0 0 27 23" fill="none" xmlns="http://www.w3.org/2000/svg">
<path d="M15.66 9.65V0H26.46V7.62C26.46 11.74 25.86 14.73 24.67 16.57C23.1 19.03 20.62 20.89 17.23 22.16L14.77 18.93C16.82 18.22 18.33 17.17 19.3 15.77C20.27 14.37 20.81 12.33 20.92 9.65H15.66Z" fill="#0A0A0A"/>
<path d="M0.889999 9.65V0H11.69V7.62C11.69 11.74 11.09 14.73 9.9 16.57C8.33 19.03 5.85 20.89 2.46 22.16L0 18.93C2.05 18.22 3.56 17.17 4.53 15.77C5.5 14.37 6.04 12.33 6.15 9.65H0.889999Z" fill="#0A0A0A"/>
</svg>
