<svg width="27" height="23" viewBox="0 0 27 23" fill="none" xmlns="http://www.w3.org/2000/svg">
<path d="M10.8 12.52V22.17H0V14.55C0 10.43 0.599999 7.44 1.79 5.59C3.36 3.13 5.84 1.27 9.23 0L11.69 3.23C9.64 3.94 8.13 4.99 7.16 6.39C6.19 7.79 5.65 9.83 5.54 12.51H10.8V12.52Z" fill="#0A0A0A"/>
<path d="M25.58 12.52V22.17H14.78V14.55C14.78 10.43 15.38 7.44 16.57 5.59C18.14 3.13 20.62 1.27 24.01 0L26.47 3.23C24.42 3.94 22.91 4.99 21.94 6.39C20.97 7.79 20.43 9.83 20.32 12.51H25.58V12.52Z" fill="#0A0A0A"/>
</svg>
