<svg width="198" height="53" viewBox="0 0 198 53" fill="none" xmlns="http://www.w3.org/2000/svg">
<path fill-rule="evenodd" clip-rule="evenodd" d="M86.94 25.23L75.86 0H23.15L34.23 25.23H86.94Z" fill="#FF8000"/>
<path fill-rule="evenodd" clip-rule="evenodd" d="M197.32 8.10986H23.74V44.6099H181.3L197.32 8.10986Z" fill="#0A0A0A"/>
<path fill-rule="evenodd" clip-rule="evenodd" d="M52.72 52.72H0L23.14 0H75.86L52.72 52.72Z" fill="#FFCE66"/>
<path d="M85.83 32.2801L81.41 30.0601L76.98 32.2401L77.73 27.3601L74.28 23.8101L79.16 23.0201L81.46 18.6401L83.73 23.0401L88.6 23.8701L85.12 27.3901L85.83 32.2801Z" fill="#FFCE66"/>
<path d="M107.58 32.2801L103.17 30.0601L98.73 32.2401L99.48 27.3601L96.03 23.8101L100.91 23.0201L103.22 18.6401L105.48 23.0401L110.36 23.8701L106.88 27.3901L107.58 32.2801Z" fill="#FFCE66"/>
<path d="M129.34 32.2801L124.92 30.0601L120.49 32.2401L121.24 27.3601L117.79 23.8101L122.67 23.0201L124.97 18.6401L127.24 23.0401L132.11 23.8701L128.63 27.3901L129.34 32.2801Z" fill="#FFCE66"/>
<path d="M151.1 32.2801L146.68 30.0601L142.24 32.2401L142.99 27.3601L139.55 23.8101L144.43 23.0201L146.73 18.6401L148.99 23.0401L153.87 23.8701L150.39 27.3901L151.1 32.2801Z" fill="#FFCE66"/>
<path d="M172.85 32.2801L168.43 30.0601L164 32.2401L164.75 27.3601L161.3 23.8101L166.18 23.0201L168.48 18.6401L170.75 23.0401L175.62 23.8701L172.14 27.3901L172.85 32.2801Z" fill="#FFCE66"/>
<path d="M24.63 31.1199L26.04 29.4699C27.08 30.4299 28.17 31.0299 29.38 31.0299C30.94 31.0299 31.96 30.1399 31.96 28.7799V28.7399C31.96 27.4199 30.85 26.5899 29.27 26.5899C28.34 26.5899 27.54 26.8499 26.88 27.1699L25.51 26.2599L25.88 19.8999H33.64V21.9199H27.85L27.65 24.9599C28.26 24.7399 28.84 24.5899 29.71 24.5899C32.23 24.5899 34.22 25.9299 34.22 28.6699V28.7099C34.22 31.3599 32.29 33.1099 29.41 33.1099C27.41 33.1099 25.85 32.3099 24.63 31.1199Z" fill="#0A0A0A"/>
<path d="M36.56 30.3398H39.03V32.8798H36.56V30.3398Z" fill="#0A0A0A"/>
<path d="M40.97 26.4299V26.3899C40.97 22.6799 43.23 19.6699 46.65 19.6699C50.04 19.6699 52.29 22.6399 52.29 26.3499V26.3899C52.29 30.0999 50.03 33.1099 46.61 33.1099C43.19 33.1099 40.97 30.1399 40.97 26.4299ZM49.94 26.4299V26.3899C49.94 23.8299 48.62 21.7299 46.62 21.7299C44.62 21.7299 43.33 23.7699 43.33 26.3499V26.3899C43.33 28.9499 44.63 31.0499 46.65 31.0499C48.67 31.0499 49.94 28.9899 49.94 26.4299Z" fill="#0A0A0A"/>
</svg>
